999
"DXF R12 Output" (www.mydxf.blogspot.com)
 0 
SECTION
 2 
HEADER
 9 
$ACADVER
 1 
AC1009
 9 
$EXTMIN
 10 
 0 
 20 
 0 
 9 
$EXTMAX
 10 
 8.5 
 20 
 11 
 0 
ENDSEC
 0 
SECTION
 2 
ENTITIES
0
POLYLINE
8
Layer 1
62
10
70
0
10
0.000000
20
0.000000
66
1
0
VERTEX
8
Layer 1
10
-107.581001
20
146.598000
70
0
0
VERTEX
8
Layer 1
10
-107.258759
20
146.384001
70
0
0
VERTEX
8
Layer 1
10
-106.969002
20
146.191568
70
0
0
VERTEX
8
Layer 1
10
-106.801003
20
146.080000
70
0
0
VERTEX
8
Layer 1
10
-106.496002
20
145.799753
70
0
0
VERTEX
8
Layer 1
10
-106.111000
20
145.446000
70
0
0
VERTEX
8
Layer 1
10
-105.528000
20
144.713000
70
0
0
VERTEX
8
Layer 1
10
-105.428047
20
144.818477
70
0
0
VERTEX
8
Layer 1
10
-104.713997
20
145.572000
70
0
0
VERTEX
8
Layer 1
10
-103.969002
20
146.208561
70
0
0
VERTEX
8
Layer 1
10
-103.814003
20
146.341000
70
0
0
VERTEX
8
Layer 1
10
-103.751358
20
146.384001
70
0
0
VERTEX
8
Layer 1
10
-102.837997
20
147.011000
70
0
0
VERTEX
8
Layer 1
10
-103.471001
20
147.701000
70
0
0
VERTEX
8
Layer 1
10
-103.969002
20
148.451845
70
0
0
VERTEX
8
Layer 1
10
-103.988998
20
148.482000
70
0
0
VERTEX
8
Layer 1
10
-104.377998
20
149.333000
70
0
0
VERTEX
8
Layer 1
10
-104.630997
20
150.235001
70
0
0
VERTEX
8
Layer 1
10
-104.659714
20
150.480000
70
0
0
VERTEX
8
Layer 1
10
-104.739998
20
151.165001
70
0
0
VERTEX
8
Layer 1
10
-104.703003
20
152.101000
70
0
0
VERTEX
8
Layer 1
10
-104.521004
20
153.020000
70
0
0
VERTEX
8
Layer 1
10
-104.198997
20
153.899000
70
0
0
VERTEX
8
Layer 1
10
-103.969002
20
153.994080
70
0
0
VERTEX
8
Layer 1
10
-103.512001
20
154.183001
70
0
0
VERTEX
8
Layer 1
10
-102.662003
20
153.790001
70
0
0
VERTEX
8
Layer 1
10
-101.884003
20
153.268999
70
0
0
VERTEX
8
Layer 1
10
-101.195999
20
152.632999
70
0
0
VERTEX
8
Layer 1
10
-100.615997
20
151.898001
70
0
0
VERTEX
8
Layer 1
10
-100.156998
20
151.082001
70
0
0
VERTEX
8
Layer 1
10
-99.933479
20
150.480000
70
0
0
VERTEX
8
Layer 1
10
-99.831001
20
150.204000
70
0
0
VERTEX
8
Layer 1
10
-99.644997
20
149.285999
70
0
0
VERTEX
8
Layer 1
10
-99.603996
20
148.351000
70
0
0
VERTEX
8
Layer 1
10
-99.460938
20
148.377548
70
0
0
VERTEX
8
Layer 1
10
-99.172699
20
148.431034
70
0
0
VERTEX
8
Layer 1
10
-98.440002
20
148.566999
70
0
0
VERTEX
8
Layer 1
10
-98.304001
20
148.577719
70
0
0
VERTEX
8
Layer 1
10
-97.260002
20
148.660000
70
0
0
VERTEX
8
Layer 1
10
-96.077003
20
148.628000
70
0
0
VERTEX
8
Layer 1
10
-96.091133
20
148.752123
70
0
0
VERTEX
8
Layer 1
10
-96.182999
20
149.559000
70
0
0
VERTEX
8
Layer 1
10
-96.143600
20
150.480000
70
0
0
VERTEX
8
Layer 1
10
-96.142998
20
150.493999
70
0
0
VERTEX
8
Layer 1
10
-95.958000
20
151.412001
70
0
0
VERTEX
8
Layer 1
10
-95.633003
20
152.290001
70
0
0
VERTEX
8
Layer 1
10
-95.174004
20
153.107000
70
0
0
VERTEX
8
Layer 1
10
-94.594002
20
153.841999
70
0
0
VERTEX
8
Layer 1
10
-93.906998
20
154.479000
70
0
0
VERTEX
8
Layer 1
10
-93.762154
20
154.576000
70
0
0
VERTEX
8
Layer 1
10
-93.128998
20
155.000000
70
0
0
VERTEX
8
Layer 1
10
-92.969002
20
154.961662
70
0
0
VERTEX
8
Layer 1
10
-92.406998
20
154.827000
70
0
0
VERTEX
8
Layer 1
10
-92.267075
20
154.576000
70
0
0
VERTEX
8
Layer 1
10
-91.950996
20
154.009001
70
0
0
VERTEX
8
Layer 1
10
-91.626999
20
153.129999
70
0
0
VERTEX
8
Layer 1
10
-91.444000
20
152.211000
70
0
0
VERTEX
8
Layer 1
10
-91.406998
20
151.275999
70
0
0
VERTEX
8
Layer 1
10
-91.499435
20
150.480000
70
0
0
VERTEX
8
Layer 1
10
-91.514999
20
150.346001
70
0
0
VERTEX
8
Layer 1
10
-91.766998
20
149.444000
70
0
0
VERTEX
8
Layer 1
10
-92.155998
20
148.591999
70
0
0
VERTEX
8
Layer 1
10
-92.672997
20
147.811001
70
0
0
VERTEX
8
Layer 1
10
-92.541229
20
147.748259
70
0
0
VERTEX
8
Layer 1
10
-92.276031
20
147.621986
70
0
0
VERTEX
8
Layer 1
10
-91.854637
20
147.421341
70
0
0
VERTEX
8
Layer 1
10
-91.603996
20
147.302000
70
0
0
VERTEX
8
Layer 1
10
-90.595001
20
146.683001
70
0
0
VERTEX
8
Layer 1
10
-90.206009
20
146.384001
70
0
0
VERTEX
8
Layer 1
10
-90.112000
20
146.311739
70
0
0
VERTEX
8
Layer 1
10
-89.969002
20
146.201820
70
0
0
VERTEX
8
Layer 1
10
-89.656998
20
145.962000
70
0
0
VERTEX
8
Layer 1
10
-89.418297
20
146.384001
70
0
0
VERTEX
8
Layer 1
10
-89.195999
20
146.777000
70
0
0
VERTEX
8
Layer 1
10
-88.612999
20
147.511000
70
0
0
VERTEX
8
Layer 1
10
-87.924004
20
148.145000
70
0
0
VERTEX
8
Layer 1
10
-87.143997
20
148.664000
70
0
0
VERTEX
8
Layer 1
10
-86.293999
20
149.055000
70
0
0
VERTEX
8
Layer 1
10
-85.391998
20
149.309000
70
0
0
VERTEX
8
Layer 1
10
-84.461998
20
149.420000
70
0
0
VERTEX
8
Layer 1
10
-83.527000
20
149.384001
70
0
0
VERTEX
8
Layer 1
10
-83.043999
20
148.819000
70
0
0
VERTEX
8
Layer 1
10
-83.155998
20
147.889999
70
0
0
VERTEX
8
Layer 1
10
-83.410004
20
146.988001
70
0
0
VERTEX
8
Layer 1
10
-83.688553
20
146.384001
70
0
0
VERTEX
8
Layer 1
10
-83.802002
20
146.138000
70
0
0
VERTEX
8
Layer 1
10
-84.321999
20
145.359000
70
0
0
VERTEX
8
Layer 1
10
-84.956001
20
144.670000
70
0
0
VERTEX
8
Layer 1
10
-85.690002
20
144.088000
70
0
0
VERTEX
8
Layer 1
10
-86.505997
20
143.628000
70
0
0
VERTEX
8
Layer 1
10
-87.383003
20
143.300000
70
0
0
VERTEX
8
Layer 1
10
-87.313797
20
143.172623
70
0
0
VERTEX
8
Layer 1
10
-87.172493
20
142.912511
70
0
0
VERTEX
8
Layer 1
10
-86.950012
20
142.503002
70
0
0
VERTEX
8
Layer 1
10
-86.833214
20
142.288000
70
0
0
VERTEX
8
Layer 1
10
-86.818001
20
142.260000
70
0
0
VERTEX
8
Layer 1
10
-86.364998
20
141.167000
70
0
0
VERTEX
8
Layer 1
10
-86.028999
20
140.032000
70
0
0
VERTEX
8
Layer 1
10
-85.915932
20
140.083490
70
0
0
VERTEX
8
Layer 1
10
-85.691177
20
140.185845
70
0
0
VERTEX
8
Layer 1
10
-85.177002
20
140.420000
70
0
0
VERTEX
8
Layer 1
10
-84.275002
20
140.671000
70
0
0
VERTEX
8
Layer 1
10
-83.345001
20
140.779000
70
0
0
VERTEX
8
Layer 1
10
-82.408997
20
140.740000
70
0
0
VERTEX
8
Layer 1
10
-82.000000
20
140.658467
70
0
0
VERTEX
8
Layer 1
10
-81.919998
20
140.642520
70
0
0
VERTEX
8
Layer 1
10
-81.490997
20
140.557000
70
0
0
VERTEX
8
Layer 1
10
-80.612000
20
140.232000
70
0
0
VERTEX
8
Layer 1
10
-79.794998
20
139.775000
70
0
0
VERTEX
8
Layer 1
10
-79.057999
20
139.197000
70
0
0
VERTEX
8
Layer 1
10
-79.000000
20
138.456000
70
0
0
VERTEX
8
Layer 1
10
-79.637001
20
137.769000
70
0
0
VERTEX
8
Layer 1
10
-80.373001
20
137.190000
70
0
0
VERTEX
8
Layer 1
10
-81.190002
20
136.732000
70
0
0
VERTEX
8
Layer 1
10
-81.919998
20
136.462615
70
0
0
VERTEX
8
Layer 1
10
-82.000000
20
136.433094
70
0
0
VERTEX
8
Layer 1
10
-82.068001
20
136.408000
70
0
0
VERTEX
8
Layer 1
10
-82.986000
20
136.223000
70
0
0
VERTEX
8
Layer 1
10
-83.921997
20
136.184000
70
0
0
VERTEX
8
Layer 1
10
-84.851997
20
136.291000
70
0
0
VERTEX
8
Layer 1
10
-85.753998
20
136.541000
70
0
0
VERTEX
8
Layer 1
10
-85.772911
20
136.396955
70
0
0
VERTEX
8
Layer 1
10
-85.811203
20
136.105283
70
0
0
VERTEX
8
Layer 1
10
-85.872108
20
135.641376
70
0
0
VERTEX
8
Layer 1
10
-85.907997
20
135.368000
70
0
0
VERTEX
8
Layer 1
10
-86.007187
20
134.954359
70
0
0
VERTEX
8
Layer 1
10
-86.183998
20
134.217000
70
0
0
VERTEX
8
Layer 1
10
-86.226936
20
134.096000
70
0
0
VERTEX
8
Layer 1
10
-86.580002
20
133.101000
70
0
0
VERTEX
8
Layer 1
10
-85.662003
20
132.915000
70
0
0
VERTEX
8
Layer 1
10
-84.785004
20
132.587000
70
0
0
VERTEX
8
Layer 1
10
-83.969002
20
132.128000
70
0
0
VERTEX
8
Layer 1
10
-83.235001
20
131.547000
70
0
0
VERTEX
8
Layer 1
10
-82.599998
20
130.858000
70
0
0
VERTEX
8
Layer 1
10
-82.303337
20
130.415000
70
0
0
VERTEX
8
Layer 1
10
-82.079002
20
130.080000
70
0
0
VERTEX
8
Layer 1
10
-82.042152
20
130.000000
70
0
0
VERTEX
8
Layer 1
10
-82.000000
20
129.908497
70
0
0
VERTEX
8
Layer 1
10
-81.919998
20
129.734824
70
0
0
VERTEX
8
Layer 1
10
-81.686996
20
129.229000
70
0
0
VERTEX
8
Layer 1
10
-81.431000
20
128.329000
70
0
0
VERTEX
8
Layer 1
10
-81.819000
20
127.695000
70
0
0
VERTEX
8
Layer 1
10
-81.919998
20
127.675108
70
0
0
VERTEX
8
Layer 1
10
-82.000000
20
127.659352
70
0
0
VERTEX
8
Layer 1
10
-82.737999
20
127.514000
70
0
0
VERTEX
8
Layer 1
10
-83.674004
20
127.478000
70
0
0
VERTEX
8
Layer 1
10
-84.603996
20
127.588000
70
0
0
VERTEX
8
Layer 1
10
-85.504997
20
127.841000
70
0
0
VERTEX
8
Layer 1
10
-86.356003
20
128.232000
70
0
0
VERTEX
8
Layer 1
10
-87.136002
20
128.750000
70
0
0
VERTEX
8
Layer 1
10
-87.825996
20
129.383000
70
0
0
VERTEX
8
Layer 1
10
-88.316734
20
130.000000
70
0
0
VERTEX
8
Layer 1
10
-88.408997
20
130.116000
70
0
0
VERTEX
8
Layer 1
10
-88.518921
20
130.000000
70
0
0
VERTEX
8
Layer 1
10
-88.711784
20
129.796480
70
0
0
VERTEX
8
Layer 1
10
-89.030052
20
129.460617
70
0
0
VERTEX
8
Layer 1
10
-89.223000
20
129.257000
70
0
0
VERTEX
8
Layer 1
10
-89.550995
20
128.977112
70
0
0
VERTEX
8
Layer 1
10
-90.112000
20
128.498387
70
0
0
VERTEX
8
Layer 1
10
-90.123001
20
128.489000
70
0
0
VERTEX
8
Layer 1
10
-91.098999
20
127.819000
70
0
0
VERTEX
8
Layer 1
10
-91.015343
20
127.727534
70
0
0
VERTEX
8
Layer 1
10
-90.467003
20
127.128000
70
0
0
VERTEX
8
Layer 1
10
-90.112000
20
126.593444
70
0
0
VERTEX
8
Layer 1
10
-89.948997
20
126.348000
70
0
0
VERTEX
8
Layer 1
10
-89.842255
20
126.114795
70
0
0
VERTEX
8
Layer 1
10
-89.745758
20
125.904000
70
0
0
VERTEX
8
Layer 1
10
-89.558998
20
125.496000
70
0
0
VERTEX
8
Layer 1
10
-89.306000
20
124.595000
70
0
0
VERTEX
8
Layer 1
10
-89.196999
20
123.664000
70
0
0
VERTEX
8
Layer 1
10
-89.234001
20
122.729000
70
0
0
VERTEX
8
Layer 1
10
-89.416000
20
121.810000
70
0
0
VERTEX
8
Layer 1
10
-89.416733
20
121.808000
70
0
0
VERTEX
8
Layer 1
10
-89.738998
20
120.931000
70
0
0
VERTEX
8
Layer 1
10
-90.112000
20
120.776580
70
0
0
VERTEX
8
Layer 1
10
-90.425003
20
120.647000
70
0
0
VERTEX
8
Layer 1
10
-91.275002
20
121.040000
70
0
0
VERTEX
8
Layer 1
10
-92.053001
20
121.561000
70
0
0
VERTEX
8
Layer 1
10
-92.320618
20
121.808000
70
0
0
VERTEX
8
Layer 1
10
-92.740997
20
122.196000
70
0
0
VERTEX
8
Layer 1
10
-92.969002
20
122.484931
70
0
0
VERTEX
8
Layer 1
10
-93.320999
20
122.931000
70
0
0
VERTEX
8
Layer 1
10
-93.780998
20
123.748000
70
0
0
VERTEX
8
Layer 1
10
-94.107002
20
124.625000
70
0
0
VERTEX
8
Layer 1
10
-94.292999
20
125.543000
70
0
0
VERTEX
8
Layer 1
10
-94.308815
20
125.904000
70
0
0
VERTEX
8
Layer 1
10
-94.334000
20
126.479000
70
0
0
VERTEX
8
Layer 1
10
-95.497002
20
126.263000
70
0
0
VERTEX
8
Layer 1
10
-96.677002
20
126.170000
70
0
0
VERTEX
8
Layer 1
10
-97.860001
20
126.201000
70
0
0
VERTEX
8
Layer 1
10
-97.845963
20
126.077870
70
0
0
VERTEX
8
Layer 1
10
-97.826149
20
125.904000
70
0
0
VERTEX
8
Layer 1
10
-97.753998
20
125.271000
70
0
0
VERTEX
8
Layer 1
10
-97.793999
20
124.335000
70
0
0
VERTEX
8
Layer 1
10
-97.978996
20
123.417000
70
0
0
VERTEX
8
Layer 1
10
-98.304001
20
122.541693
70
0
0
VERTEX
8
Layer 1
10
-98.305000
20
122.539000
70
0
0
VERTEX
8
Layer 1
10
-98.715294
20
121.808000
70
0
0
VERTEX
8
Layer 1
10
-98.763000
20
121.723000
70
0
0
VERTEX
8
Layer 1
10
-99.343002
20
120.987000
70
0
0
VERTEX
8
Layer 1
10
-100.029999
20
120.351000
70
0
0
VERTEX
8
Layer 1
10
-100.807999
20
119.830000
70
0
0
VERTEX
8
Layer 1
10
-101.530998
20
120.003000
70
0
0
VERTEX
8
Layer 1
10
-101.987000
20
120.821000
70
0
0
VERTEX
8
Layer 1
10
-102.309998
20
121.700000
70
0
0
VERTEX
8
Layer 1
10
-102.331528
20
121.808000
70
0
0
VERTEX
8
Layer 1
10
-102.492996
20
122.618000
70
0
0
VERTEX
8
Layer 1
10
-102.530998
20
123.554000
70
0
0
VERTEX
8
Layer 1
10
-102.421997
20
124.484000
70
0
0
VERTEX
8
Layer 1
10
-102.170998
20
125.386000
70
0
0
VERTEX
8
Layer 1
10
-101.780998
20
126.238000
70
0
0
VERTEX
8
Layer 1
10
-101.264000
20
127.019000
70
0
0
VERTEX
8
Layer 1
10
-101.394958
20
127.081355
70
0
0
VERTEX
8
Layer 1
10
-101.663635
20
127.209284
70
0
0
VERTEX
8
Layer 1
10
-102.079384
20
127.407242
70
0
0
VERTEX
8
Layer 1
10
-102.333000
20
127.528000
70
0
0
VERTEX
8
Layer 1
10
-102.701500
20
127.753702
70
0
0
VERTEX
8
Layer 1
10
-103.342003
20
128.146000
70
0
0
VERTEX
8
Layer 1
10
-103.640709
20
128.375360
70
0
0
VERTEX
8
Layer 1
10
-103.969002
20
128.627434
70
0
0
VERTEX
8
Layer 1
10
-104.280998
20
128.867000
70
0
0
VERTEX
8
Layer 1
10
-104.741997
20
128.052000
70
0
0
VERTEX
8
Layer 1
10
-105.323997
20
127.319000
70
0
0
VERTEX
8
Layer 1
10
-106.014000
20
126.685000
70
0
0
VERTEX
8
Layer 1
10
-106.496002
20
126.363873
70
0
0
VERTEX
8
Layer 1
10
-106.792999
20
126.166000
70
0
0
VERTEX
8
Layer 1
10
-106.969002
20
126.085135
70
0
0
VERTEX
8
Layer 1
10
-107.643997
20
125.775000
70
0
0
VERTEX
8
Layer 1
10
-108.544998
20
125.521000
70
0
0
VERTEX
8
Layer 1
10
-109.474998
20
125.410000
70
0
0
VERTEX
8
Layer 1
10
-110.411003
20
125.445000
70
0
0
VERTEX
8
Layer 1
10
-110.892998
20
126.010000
70
0
0
VERTEX
8
Layer 1
10
-110.781998
20
126.940000
70
0
0
VERTEX
8
Layer 1
10
-110.527000
20
127.841000
70
0
0
VERTEX
8
Layer 1
10
-110.135002
20
128.692000
70
0
0
VERTEX
8
Layer 1
10
-109.615997
20
129.471000
70
0
0
VERTEX
8
Layer 1
10
-109.128464
20
130.000000
70
0
0
VERTEX
8
Layer 1
10
-108.981003
20
130.160000
70
0
0
VERTEX
8
Layer 1
10
-108.247002
20
130.741000
70
0
0
VERTEX
8
Layer 1
10
-107.431999
20
131.202000
70
0
0
VERTEX
8
Layer 1
10
-106.969002
20
131.375163
70
0
0
VERTEX
8
Layer 1
10
-106.555000
20
131.530000
70
0
0
VERTEX
8
Layer 1
10
-106.624893
20
131.658534
70
0
0
VERTEX
8
Layer 1
10
-106.764206
20
131.914712
70
0
0
VERTEX
8
Layer 1
10
-106.969002
20
132.291320
70
0
0
VERTEX
8
Layer 1
10
-106.986710
20
132.323885
70
0
0
VERTEX
8
Layer 1
10
-107.120003
20
132.569000
70
0
0
VERTEX
8
Layer 1
10
-107.572998
20
133.663000
70
0
0
VERTEX
8
Layer 1
10
-107.700798
20
134.096000
70
0
0
VERTEX
8
Layer 1
10
-107.907997
20
134.798000
70
0
0
VERTEX
8
Layer 1
10
-108.761002
20
134.410000
70
0
0
VERTEX
8
Layer 1
10
-109.663002
20
134.159000
70
0
0
VERTEX
8
Layer 1
10
-110.205498
20
134.096000
70
0
0
VERTEX
8
Layer 1
10
-110.593002
20
134.051000
70
0
0
VERTEX
8
Layer 1
10
-111.528999
20
134.089000
70
0
0
VERTEX
8
Layer 1
10
-111.563927
20
134.096000
70
0
0
VERTEX
8
Layer 1
10
-112.446999
20
134.273000
70
0
0
VERTEX
8
Layer 1
10
-113.324997
20
134.597000
70
0
0
VERTEX
8
Layer 1
10
-114.142998
20
135.054000
70
0
0
VERTEX
8
Layer 1
10
-114.688004
20
135.482743
70
0
0
VERTEX
8
Layer 1
10
-114.878998
20
135.633000
70
0
0
VERTEX
8
Layer 1
10
-114.938004
20
136.374000
70
0
0
VERTEX
8
Layer 1
10
-114.688004
20
136.643231
70
0
0
VERTEX
8
Layer 1
10
-114.301003
20
137.060000
70
0
0
VERTEX
8
Layer 1
10
-113.565002
20
137.640000
70
0
0
VERTEX
8
Layer 1
10
-112.748001
20
138.097000
70
0
0
VERTEX
8
Layer 1
10
-112.491356
20
138.192000
70
0
0
VERTEX
8
Layer 1
10
-111.870003
20
138.422000
70
0
0
VERTEX
8
Layer 1
10
-110.952003
20
138.606000
70
0
0
VERTEX
8
Layer 1
10
-110.015999
20
138.646000
70
0
0
VERTEX
8
Layer 1
10
-109.085999
20
138.539000
70
0
0
VERTEX
8
Layer 1
10
-108.182999
20
138.288000
70
0
0
VERTEX
8
Layer 1
10
-108.163994
20
138.432920
70
0
0
VERTEX
8
Layer 1
10
-108.125443
20
138.726793
70
0
0
VERTEX
8
Layer 1
10
-108.065392
20
139.184580
70
0
0
VERTEX
8
Layer 1
10
-108.028999
20
139.462000
70
0
0
VERTEX
8
Layer 1
10
-107.928535
20
139.880971
70
0
0
VERTEX
8
Layer 1
10
-107.752998
20
140.613000
70
0
0
VERTEX
8
Layer 1
10
-107.357002
20
141.728000
70
0
0
VERTEX
8
Layer 1
10
-107.479645
20
141.752982
70
0
0
VERTEX
8
Layer 1
10
-108.275002
20
141.915000
70
0
0
VERTEX
8
Layer 1
10
-109.153000
20
142.242000
70
0
0
VERTEX
8
Layer 1
10
-109.234497
20
142.288000
70
0
0
VERTEX
8
Layer 1
10
-109.968002
20
142.702000
70
0
0
VERTEX
8
Layer 1
10
-110.703003
20
143.283000
70
0
0
VERTEX
8
Layer 1
10
-111.337997
20
143.971000
70
0
0
VERTEX
8
Layer 1
10
-111.858002
20
144.750000
70
0
0
VERTEX
8
Layer 1
10
-112.250999
20
145.600000
70
0
0
VERTEX
8
Layer 1
10
-112.472885
20
146.384001
70
0
0
VERTEX
8
Layer 1
10
-112.505997
20
146.500999
70
0
0
VERTEX
8
Layer 1
10
-112.117996
20
147.135000
70
0
0
VERTEX
8
Layer 1
10
-111.198997
20
147.316000
70
0
0
VERTEX
8
Layer 1
10
-110.264000
20
147.351999
70
0
0
VERTEX
8
Layer 1
10
-109.334000
20
147.242001
70
0
0
VERTEX
8
Layer 1
10
-108.431999
20
146.989000
70
0
0
VERTEX
8
Layer 1
10
-107.581001
20
146.598000
70
0
0
SEQEND
8
Layer 1
0
POLYLINE
8
Layer 1
62
10
70
0
10
0.000000
20
0.000000
66
1
0
VERTEX
8
Layer 1
10
-107.198997
20
114.729000
70
0
0
VERTEX
8
Layer 1
10
-106.969002
20
114.824080
70
0
0
VERTEX
8
Layer 1
10
-106.512001
20
115.013000
70
0
0
VERTEX
8
Layer 1
10
-105.662003
20
114.619000
70
0
0
VERTEX
8
Layer 1
10
-104.884003
20
114.099000
70
0
0
VERTEX
8
Layer 1
10
-104.361511
20
113.615999
70
0
0
VERTEX
8
Layer 1
10
-104.195999
20
113.462999
70
0
0
VERTEX
8
Layer 1
10
-103.615997
20
112.728001
70
0
0
VERTEX
8
Layer 1
10
-103.156998
20
111.912001
70
0
0
VERTEX
8
Layer 1
10
-102.831001
20
111.034000
70
0
0
VERTEX
8
Layer 1
10
-102.644997
20
110.115999
70
0
0
VERTEX
8
Layer 1
10
-102.618896
20
109.520000
70
0
0
VERTEX
8
Layer 1
10
-102.603996
20
109.180000
70
0
0
VERTEX
8
Layer 1
10
-101.440002
20
109.396999
70
0
0
VERTEX
8
Layer 1
10
-100.260002
20
109.490000
70
0
0
VERTEX
8
Layer 1
10
-99.077003
20
109.458000
70
0
0
VERTEX
8
Layer 1
10
-99.084068
20
109.520000
70
0
0
VERTEX
8
Layer 1
10
-99.182999
20
110.388000
70
0
0
VERTEX
8
Layer 1
10
-99.142998
20
111.323999
70
0
0
VERTEX
8
Layer 1
10
-98.958000
20
112.242001
70
0
0
VERTEX
8
Layer 1
10
-98.633003
20
113.120001
70
0
0
VERTEX
8
Layer 1
10
-98.354340
20
113.615999
70
0
0
VERTEX
8
Layer 1
10
-98.304001
20
113.705606
70
0
0
VERTEX
8
Layer 1
10
-98.174004
20
113.937000
70
0
0
VERTEX
8
Layer 1
10
-97.594002
20
114.672000
70
0
0
VERTEX
8
Layer 1
10
-96.906998
20
115.308000
70
0
0
VERTEX
8
Layer 1
10
-96.128998
20
115.830000
70
0
0
VERTEX
8
Layer 1
10
-95.406998
20
115.656000
70
0
0
VERTEX
8
Layer 1
10
-94.950996
20
114.839000
70
0
0
VERTEX
8
Layer 1
10
-94.626999
20
113.959999
70
0
0
VERTEX
8
Layer 1
10
-94.558502
20
113.615999
70
0
0
VERTEX
8
Layer 1
10
-94.444000
20
113.041000
70
0
0
VERTEX
8
Layer 1
10
-94.406998
20
112.105000
70
0
0
VERTEX
8
Layer 1
10
-94.514999
20
111.174999
70
0
0
VERTEX
8
Layer 1
10
-94.766998
20
110.273001
70
0
0
VERTEX
8
Layer 1
10
-95.155998
20
109.421000
70
0
0
VERTEX
8
Layer 1
10
-95.672997
20
108.641001
70
0
0
VERTEX
8
Layer 1
10
-95.540855
20
108.578079
70
0
0
VERTEX
8
Layer 1
10
-95.275787
20
108.451868
70
0
0
VERTEX
8
Layer 1
10
-94.854530
20
108.251287
70
0
0
VERTEX
8
Layer 1
10
-94.603996
20
108.132000
70
0
0
VERTEX
8
Layer 1
10
-94.241150
20
107.909399
70
0
0
VERTEX
8
Layer 1
10
-93.595001
20
107.513000
70
0
0
VERTEX
8
Layer 1
10
-93.297707
20
107.284485
70
0
0
VERTEX
8
Layer 1
10
-92.969002
20
107.031820
70
0
0
VERTEX
8
Layer 1
10
-92.656998
20
106.792000
70
0
0
VERTEX
8
Layer 1
10
-92.195999
20
107.607000
70
0
0
VERTEX
8
Layer 1
10
-91.612999
20
108.341000
70
0
0
VERTEX
8
Layer 1
10
-90.924004
20
108.974001
70
0
0
VERTEX
8
Layer 1
10
-90.143997
20
109.493000
70
0
0
VERTEX
8
Layer 1
10
-90.112000
20
109.507757
70
0
0
VERTEX
8
Layer 1
10
-89.293999
20
109.885000
70
0
0
VERTEX
8
Layer 1
10
-88.391998
20
110.139000
70
0
0
VERTEX
8
Layer 1
10
-87.461998
20
110.250000
70
0
0
VERTEX
8
Layer 1
10
-86.527000
20
110.214001
70
0
0
VERTEX
8
Layer 1
10
-86.043999
20
109.649000
70
0
0
VERTEX
8
Layer 1
10
-86.155998
20
108.719000
70
0
0
VERTEX
8
Layer 1
10
-86.410004
20
107.818001
70
0
0
VERTEX
8
Layer 1
10
-86.802002
20
106.968000
70
0
0
VERTEX
8
Layer 1
10
-87.321999
20
106.188999
70
0
0
VERTEX
8
Layer 1
10
-87.956001
20
105.500000
70
0
0
VERTEX
8
Layer 1
10
-88.051849
20
105.424000
70
0
0
VERTEX
8
Layer 1
10
-88.690002
20
104.917999
70
0
0
VERTEX
8
Layer 1
10
-89.505997
20
104.458000
70
0
0
VERTEX
8
Layer 1
10
-90.112000
20
104.231354
70
0
0
VERTEX
8
Layer 1
10
-90.383003
20
104.129999
70
0
0
VERTEX
8
Layer 1
10
-90.112000
20
103.631168
70
0
0
VERTEX
8
Layer 1
10
-89.818001
20
103.090000
70
0
0
VERTEX
8
Layer 1
10
-89.364998
20
101.996000
70
0
0
VERTEX
8
Layer 1
10
-89.167252
20
101.327999
70
0
0
VERTEX
8
Layer 1
10
-89.028999
20
100.861000
70
0
0
VERTEX
8
Layer 1
10
-88.177002
20
101.250000
70
0
0
VERTEX
8
Layer 1
10
-87.896698
20
101.327999
70
0
0
VERTEX
8
Layer 1
10
-87.275002
20
101.500999
70
0
0
VERTEX
8
Layer 1
10
-86.345001
20
101.608000
70
0
0
VERTEX
8
Layer 1
10
-85.408997
20
101.570000
70
0
0
VERTEX
8
Layer 1
10
-84.490997
20
101.386000
70
0
0
VERTEX
8
Layer 1
10
-84.333649
20
101.327999
70
0
0
VERTEX
8
Layer 1
10
-83.612000
20
101.062000
70
0
0
VERTEX
8
Layer 1
10
-82.794998
20
100.605000
70
0
0
VERTEX
8
Layer 1
10
-82.057999
20
100.027000
70
0
0
VERTEX
8
Layer 1
10
-82.000000
20
99.285999
70
0
0
VERTEX
8
Layer 1
10
-82.637001
20
98.599001
70
0
0
VERTEX
8
Layer 1
10
-83.373001
20
98.020000
70
0
0
VERTEX
8
Layer 1
10
-84.190002
20
97.562000
70
0
0
VERTEX
8
Layer 1
10
-85.068001
20
97.237000
70
0
0
VERTEX
8
Layer 1
10
-85.092949
20
97.231998
70
0
0
VERTEX
8
Layer 1
10
-85.986000
20
97.053001
70
0
0
VERTEX
8
Layer 1
10
-86.921997
20
97.014000
70
0
0
VERTEX
8
Layer 1
10
-87.851997
20
97.120998
70
0
0
VERTEX
8
Layer 1
10
-88.252487
20
97.231998
70
0
0
VERTEX
8
Layer 1
10
-88.753998
20
97.370998
70
0
0
VERTEX
8
Layer 1
10
-88.772247
20
97.231998
70
0
0
VERTEX
8
Layer 1
10
-88.772911
20
97.226955
70
0
0
VERTEX
8
Layer 1
10
-88.811203
20
96.935284
70
0
0
VERTEX
8
Layer 1
10
-88.871689
20
96.474606
70
0
0
VERTEX
8
Layer 1
10
-88.907997
20
96.198002
70
0
0
VERTEX
8
Layer 1
10
-89.183998
20
95.047001
70
0
0
VERTEX
8
Layer 1
10
-89.580002
20
93.931000
70
0
0
VERTEX
8
Layer 1
10
-89.457588
20
93.906063
70
0
0
VERTEX
8
Layer 1
10
-89.215378
20
93.856724
70
0
0
VERTEX
8
Layer 1
10
-88.662003
20
93.743999
70
0
0
VERTEX
8
Layer 1
10
-87.785004
20
93.417000
70
0
0
VERTEX
8
Layer 1
10
-87.285446
20
93.136002
70
0
0
VERTEX
8
Layer 1
10
-86.969002
20
92.958000
70
0
0
VERTEX
8
Layer 1
10
-86.235001
20
92.375999
70
0
0
VERTEX
8
Layer 1
10
-85.599998
20
91.688000
70
0
0
VERTEX
8
Layer 1
10
-85.303719
20
91.244999
70
0
0
VERTEX
8
Layer 1
10
-85.079002
20
90.909000
70
0
0
VERTEX
8
Layer 1
10
-84.686996
20
90.058998
70
0
0
VERTEX
8
Layer 1
10
-84.431000
20
89.158001
70
0
0
VERTEX
8
Layer 1
10
-84.503326
20
89.040001
70
0
0
VERTEX
8
Layer 1
10
-84.819000
20
88.525002
70
0
0
VERTEX
8
Layer 1
10
-85.737999
20
88.344002
70
0
0
VERTEX
8
Layer 1
10
-86.674004
20
88.306999
70
0
0
VERTEX
8
Layer 1
10
-87.603996
20
88.417000
70
0
0
VERTEX
8
Layer 1
10
-88.504997
20
88.671001
70
0
0
VERTEX
8
Layer 1
10
-89.310181
20
89.040001
70
0
0
VERTEX
8
Layer 1
10
-89.356003
20
89.061001
70
0
0
VERTEX
8
Layer 1
10
-90.112000
20
89.564030
70
0
0
VERTEX
8
Layer 1
10
-90.136002
20
89.580002
70
0
0
VERTEX
8
Layer 1
10
-90.825996
20
90.213001
70
0
0
VERTEX
8
Layer 1
10
-91.408997
20
90.945999
70
0
0
VERTEX
8
Layer 1
10
-91.509453
20
90.839993
70
0
0
VERTEX
8
Layer 1
10
-91.710609
20
90.627720
70
0
0
VERTEX
8
Layer 1
10
-92.223000
20
90.087002
70
0
0
VERTEX
8
Layer 1
10
-93.123001
20
89.318001
70
0
0
VERTEX
8
Layer 1
10
-93.527969
20
89.040001
70
0
0
VERTEX
8
Layer 1
10
-94.098999
20
88.647999
70
0
0
VERTEX
8
Layer 1
10
-93.467003
20
87.958000
70
0
0
VERTEX
8
Layer 1
10
-92.948997
20
87.178001
70
0
0
VERTEX
8
Layer 1
10
-92.558998
20
86.326000
70
0
0
VERTEX
8
Layer 1
10
-92.306000
20
85.424000
70
0
0
VERTEX
8
Layer 1
10
-92.249741
20
84.944000
70
0
0
VERTEX
8
Layer 1
10
-92.196999
20
84.493999
70
0
0
VERTEX
8
Layer 1
10
-92.234001
20
83.557999
70
0
0
VERTEX
8
Layer 1
10
-92.416000
20
82.639999
70
0
0
VERTEX
8
Layer 1
10
-92.738998
20
81.761002
70
0
0
VERTEX
8
Layer 1
10
-93.425003
20
81.476002
70
0
0
VERTEX
8
Layer 1
10
-94.275002
20
81.869999
70
0
0
VERTEX
8
Layer 1
10
-95.053001
20
82.390999
70
0
0
VERTEX
8
Layer 1
10
-95.740997
20
83.026001
70
0
0
VERTEX
8
Layer 1
10
-96.320999
20
83.761002
70
0
0
VERTEX
8
Layer 1
10
-96.780998
20
84.577000
70
0
0
VERTEX
8
Layer 1
10
-96.917267
20
84.944000
70
0
0
VERTEX
8
Layer 1
10
-97.107002
20
85.455002
70
0
0
VERTEX
8
Layer 1
10
-97.292999
20
86.373001
70
0
0
VERTEX
8
Layer 1
10
-97.334000
20
87.308998
70
0
0
VERTEX
8
Layer 1
10
-97.477234
20
87.282276
70
0
0
VERTEX
8
Layer 1
10
-97.765495
20
87.228489
70
0
0
VERTEX
8
Layer 1
10
-98.304001
20
87.128010
70
0
0
VERTEX
8
Layer 1
10
-98.497002
20
87.091999
70
0
0
VERTEX
8
Layer 1
10
-99.677002
20
87.000000
70
0
0
VERTEX
8
Layer 1
10
-100.860001
20
87.030998
70
0
0
VERTEX
8
Layer 1
10
-100.846077
20
86.908852
70
0
0
VERTEX
8
Layer 1
10
-100.817604
20
86.659008
70
0
0
VERTEX
8
Layer 1
10
-100.753998
20
86.101002
70
0
0
VERTEX
8
Layer 1
10
-100.793999
20
85.165001
70
0
0
VERTEX
8
Layer 1
10
-100.838539
20
84.944000
70
0
0
VERTEX
8
Layer 1
10
-100.978996
20
84.247002
70
0
0
VERTEX
8
Layer 1
10
-101.305000
20
83.368999
70
0
0
VERTEX
8
Layer 1
10
-101.763000
20
82.551998
70
0
0
VERTEX
8
Layer 1
10
-102.343002
20
81.817001
70
0
0
VERTEX
8
Layer 1
10
-103.029999
20
81.181000
70
0
0
VERTEX
8
Layer 1
10
-103.526314
20
80.848000
70
0
0
VERTEX
8
Layer 1
10
-103.807999
20
80.659000
70
0
0
VERTEX
8
Layer 1
10
-104.530998
20
80.833000
70
0
0
VERTEX
8
Layer 1
10
-104.539360
20
80.848000
70
0
0
VERTEX
8
Layer 1
10
-104.987000
20
81.651001
70
0
0
VERTEX
8
Layer 1
10
-105.309998
20
82.528999
70
0
0
VERTEX
8
Layer 1
10
-105.492996
20
83.448002
70
0
0
VERTEX
8
Layer 1
10
-105.530998
20
84.383999
70
0
0
VERTEX
8
Layer 1
10
-105.465363
20
84.944000
70
0
0
VERTEX
8
Layer 1
10
-105.421997
20
85.313999
70
0
0
VERTEX
8
Layer 1
10
-105.170998
20
86.216000
70
0
0
VERTEX
8
Layer 1
10
-104.780998
20
87.068001
70
0
0
VERTEX
8
Layer 1
10
-104.264000
20
87.848999
70
0
0
VERTEX
8
Layer 1
10
-104.394958
20
87.911354
70
0
0
VERTEX
8
Layer 1
10
-104.663635
20
88.039284
70
0
0
VERTEX
8
Layer 1
10
-105.079384
20
88.237240
70
0
0
VERTEX
8
Layer 1
10
-105.333000
20
88.358002
70
0
0
VERTEX
8
Layer 1
10
-106.342003
20
88.976002
70
0
0
VERTEX
8
Layer 1
10
-106.425354
20
89.040001
70
0
0
VERTEX
8
Layer 1
10
-106.496002
20
89.094246
70
0
0
VERTEX
8
Layer 1
10
-106.969002
20
89.457436
70
0
0
VERTEX
8
Layer 1
10
-107.280998
20
89.696999
70
0
0
VERTEX
8
Layer 1
10
-107.652626
20
89.040001
70
0
0
VERTEX
8
Layer 1
10
-107.741997
20
88.882000
70
0
0
VERTEX
8
Layer 1
10
-108.323997
20
88.148998
70
0
0
VERTEX
8
Layer 1
10
-109.014000
20
87.514999
70
0
0
VERTEX
8
Layer 1
10
-109.792999
20
86.995998
70
0
0
VERTEX
8
Layer 1
10
-110.643997
20
86.605000
70
0
0
VERTEX
8
Layer 1
10
-111.544998
20
86.349998
70
0
0
VERTEX
8
Layer 1
10
-112.474998
20
86.240002
70
0
0
VERTEX
8
Layer 1
10
-113.411003
20
86.275002
70
0
0
VERTEX
8
Layer 1
10
-113.892998
20
86.840000
70
0
0
VERTEX
8
Layer 1
10
-113.781998
20
87.770000
70
0
0
VERTEX
8
Layer 1
10
-113.527000
20
88.671001
70
0
0
VERTEX
8
Layer 1
10
-113.356827
20
89.040001
70
0
0
VERTEX
8
Layer 1
10
-113.135002
20
89.521000
70
0
0
VERTEX
8
Layer 1
10
-112.615997
20
90.300999
70
0
0
VERTEX
8
Layer 1
10
-111.981003
20
90.988998
70
0
0
VERTEX
8
Layer 1
10
-111.247002
20
91.570999
70
0
0
VERTEX
8
Layer 1
10
-110.431999
20
92.030998
70
0
0
VERTEX
8
Layer 1
10
-109.555000
20
92.359001
70
0
0
VERTEX
8
Layer 1
10
-109.624435
20
92.486805
70
0
0
VERTEX
8
Layer 1
10
-109.765213
20
92.745934
70
0
0
VERTEX
8
Layer 1
10
-109.985374
20
93.151192
70
0
0
VERTEX
8
Layer 1
10
-110.120003
20
93.398998
70
0
0
VERTEX
8
Layer 1
10
-110.286728
20
93.801643
70
0
0
VERTEX
8
Layer 1
10
-110.572998
20
94.493000
70
0
0
VERTEX
8
Layer 1
10
-110.677986
20
94.848705
70
0
0
VERTEX
8
Layer 1
10
-110.907997
20
95.627998
70
0
0
VERTEX
8
Layer 1
10
-111.761002
20
95.238998
70
0
0
VERTEX
8
Layer 1
10
-112.663002
20
94.987999
70
0
0
VERTEX
8
Layer 1
10
-113.593002
20
94.881001
70
0
0
VERTEX
8
Layer 1
10
-114.528999
20
94.918999
70
0
0
VERTEX
8
Layer 1
10
-114.688004
20
94.950871
70
0
0
VERTEX
8
Layer 1
10
-115.446999
20
95.103001
70
0
0
VERTEX
8
Layer 1
10
-116.324997
20
95.426998
70
0
0
VERTEX
8
Layer 1
10
-117.142998
20
95.883999
70
0
0
VERTEX
8
Layer 1
10
-117.878998
20
96.463001
70
0
0
VERTEX
8
Layer 1
10
-117.938004
20
97.202999
70
0
0
VERTEX
8
Layer 1
10
-117.911110
20
97.231998
70
0
0
VERTEX
8
Layer 1
10
-117.301003
20
97.889999
70
0
0
VERTEX
8
Layer 1
10
-116.565002
20
98.469000
70
0
0
VERTEX
8
Layer 1
10
-115.748001
20
98.927000
70
0
0
VERTEX
8
Layer 1
10
-114.870003
20
99.252001
70
0
0
VERTEX
8
Layer 1
10
-114.688004
20
99.288479
70
0
0
VERTEX
8
Layer 1
10
-113.952003
20
99.436001
70
0
0
VERTEX
8
Layer 1
10
-113.015999
20
99.475000
70
0
0
VERTEX
8
Layer 1
10
-112.085999
20
99.368000
70
0
0
VERTEX
8
Layer 1
10
-111.182999
20
99.118000
70
0
0
VERTEX
8
Layer 1
10
-111.164116
20
99.261934
70
0
0
VERTEX
8
Layer 1
10
-111.125839
20
99.553757
70
0
0
VERTEX
8
Layer 1
10
-111.065392
20
100.014580
70
0
0
VERTEX
8
Layer 1
10
-111.028999
20
100.292000
70
0
0
VERTEX
8
Layer 1
10
-110.752998
20
101.443001
70
0
0
VERTEX
8
Layer 1
10
-110.357002
20
102.558001
70
0
0
VERTEX
8
Layer 1
10
-110.479645
20
102.582983
70
0
0
VERTEX
8
Layer 1
10
-110.722000
20
102.632353
70
0
0
VERTEX
8
Layer 1
10
-111.275002
20
102.745001
70
0
0
VERTEX
8
Layer 1
10
-112.153000
20
103.072001
70
0
0
VERTEX
8
Layer 1
10
-112.968002
20
103.532000
70
0
0
VERTEX
8
Layer 1
10
-113.703003
20
104.113001
70
0
0
VERTEX
8
Layer 1
10
-114.337997
20
104.801001
70
0
0
VERTEX
8
Layer 1
10
-114.688004
20
105.325327
70
0
0
VERTEX
8
Layer 1
10
-114.858002
20
105.580000
70
0
0
VERTEX
8
Layer 1
10
-115.250999
20
106.430000
70
0
0
VERTEX
8
Layer 1
10
-115.505997
20
107.330999
70
0
0
VERTEX
8
Layer 1
10
-115.117996
20
107.964001
70
0
0
VERTEX
8
Layer 1
10
-114.688004
20
108.049158
70
0
0
VERTEX
8
Layer 1
10
-114.198997
20
108.146000
70
0
0
VERTEX
8
Layer 1
10
-113.264000
20
108.181999
70
0
0
VERTEX
8
Layer 1
10
-112.334000
20
108.072001
70
0
0
VERTEX
8
Layer 1
10
-111.431999
20
107.818001
70
0
0
VERTEX
8
Layer 1
10
-110.581001
20
107.427999
70
0
0
VERTEX
8
Layer 1
10
-109.801003
20
106.909000
70
0
0
VERTEX
8
Layer 1
10
-109.111000
20
106.275999
70
0
0
VERTEX
8
Layer 1
10
-108.528000
20
105.542999
70
0
0
VERTEX
8
Layer 1
10
-108.427544
20
105.649006
70
0
0
VERTEX
8
Layer 1
10
-108.226395
20
105.861280
70
0
0
VERTEX
8
Layer 1
10
-107.904213
20
106.201271
70
0
0
VERTEX
8
Layer 1
10
-107.713997
20
106.402000
70
0
0
VERTEX
8
Layer 1
10
-107.389168
20
106.679552
70
0
0
VERTEX
8
Layer 1
10
-106.969002
20
107.038561
70
0
0
VERTEX
8
Layer 1
10
-106.814003
20
107.171000
70
0
0
VERTEX
8
Layer 1
10
-106.505714
20
107.382633
70
0
0
VERTEX
8
Layer 1
10
-106.496002
20
107.389299
70
0
0
VERTEX
8
Layer 1
10
-105.837997
20
107.841000
70
0
0
VERTEX
8
Layer 1
10
-106.471001
20
108.531000
70
0
0
VERTEX
8
Layer 1
10
-106.496002
20
108.568693
70
0
0
VERTEX
8
Layer 1
10
-106.969002
20
109.281845
70
0
0
VERTEX
8
Layer 1
10
-106.988998
20
109.312000
70
0
0
VERTEX
8
Layer 1
10
-107.084076
20
109.520000
70
0
0
VERTEX
8
Layer 1
10
-107.377998
20
110.163000
70
0
0
VERTEX
8
Layer 1
10
-107.630997
20
111.065001
70
0
0
VERTEX
8
Layer 1
10
-107.739998
20
111.995001
70
0
0
VERTEX
8
Layer 1
10
-107.703003
20
112.931000
70
0
0
VERTEX
8
Layer 1
10
-107.567192
20
113.615999
70
0
0
VERTEX
8
Layer 1
10
-107.521004
20
113.849001
70
0
0
VERTEX
8
Layer 1
10
-107.198997
20
114.729000
70
0
0
SEQEND
8
Layer 1
0
POLYLINE
8
Layer 1
62
10
70
0
10
0.000000
20
0.000000
66
1
0
VERTEX
8
Layer 1
10
-77.301003
20
99.889999
70
0
0
VERTEX
8
Layer 1
10
-77.000000
20
100.127201
70
0
0
VERTEX
8
Layer 1
10
-76.565002
20
100.469999
70
0
0
VERTEX
8
Layer 1
10
-75.748001
20
100.927000
70
0
0
VERTEX
8
Layer 1
10
-74.870003
20
101.252001
70
0
0
VERTEX
8
Layer 1
10
-73.952003
20
101.436001
70
0
0
VERTEX
8
Layer 1
10
-73.727997
20
101.445572
70
0
0
VERTEX
8
Layer 1
10
-73.015999
20
101.476000
70
0
0
VERTEX
8
Layer 1
10
-72.085999
20
101.368999
70
0
0
VERTEX
8
Layer 1
10
-71.182999
20
101.118000
70
0
0
VERTEX
8
Layer 1
10
-71.163994
20
101.262918
70
0
0
VERTEX
8
Layer 1
10
-71.125443
20
101.556793
70
0
0
VERTEX
8
Layer 1
10
-71.028999
20
102.292000
70
0
0
VERTEX
8
Layer 1
10
-70.752998
20
103.443001
70
0
0
VERTEX
8
Layer 1
10
-70.357002
20
104.558001
70
0
0
VERTEX
8
Layer 1
10
-70.479645
20
104.582983
70
0
0
VERTEX
8
Layer 1
10
-70.722000
20
104.632353
70
0
0
VERTEX
8
Layer 1
10
-71.275002
20
104.745001
70
0
0
VERTEX
8
Layer 1
10
-72.153000
20
105.072001
70
0
0
VERTEX
8
Layer 1
10
-72.776649
20
105.424000
70
0
0
VERTEX
8
Layer 1
10
-72.968002
20
105.532000
70
0
0
VERTEX
8
Layer 1
10
-73.703003
20
106.113001
70
0
0
VERTEX
8
Layer 1
10
-73.727997
20
106.140087
70
0
0
VERTEX
8
Layer 1
10
-74.337997
20
106.801001
70
0
0
VERTEX
8
Layer 1
10
-74.858002
20
107.580000
70
0
0
VERTEX
8
Layer 1
10
-75.250999
20
108.430000
70
0
0
VERTEX
8
Layer 1
10
-75.505997
20
109.330999
70
0
0
VERTEX
8
Layer 1
10
-75.117996
20
109.965000
70
0
0
VERTEX
8
Layer 1
10
-74.199997
20
110.146000
70
0
0
VERTEX
8
Layer 1
10
-73.727997
20
110.164154
70
0
0
VERTEX
8
Layer 1
10
-73.264000
20
110.181999
70
0
0
VERTEX
8
Layer 1
10
-72.334000
20
110.072001
70
0
0
VERTEX
8
Layer 1
10
-71.431999
20
109.819000
70
0
0
VERTEX
8
Layer 1
10
-70.781235
20
109.520000
70
0
0
VERTEX
8
Layer 1
10
-70.581001
20
109.427999
70
0
0
VERTEX
8
Layer 1
10
-69.801003
20
108.910000
70
0
0
VERTEX
8
Layer 1
10
-69.111000
20
108.275999
70
0
0
VERTEX
8
Layer 1
10
-68.528000
20
107.542999
70
0
0
VERTEX
8
Layer 1
10
-68.428047
20
107.648478
70
0
0
VERTEX
8
Layer 1
10
-68.224640
20
107.863134
70
0
0
VERTEX
8
Layer 1
10
-67.906288
20
108.199080
70
0
0
VERTEX
8
Layer 1
10
-67.713997
20
108.402000
70
0
0
VERTEX
8
Layer 1
10
-66.969002
20
109.038561
70
0
0
VERTEX
8
Layer 1
10
-66.814003
20
109.171000
70
0
0
VERTEX
8
Layer 1
10
-66.305603
20
109.520000
70
0
0
VERTEX
8
Layer 1
10
-65.837997
20
109.841000
70
0
0
VERTEX
8
Layer 1
10
-66.393257
20
110.446259
70
0
0
VERTEX
8
Layer 1
10
-66.471001
20
110.531000
70
0
0
VERTEX
8
Layer 1
10
-66.969002
20
111.281845
70
0
0
VERTEX
8
Layer 1
10
-66.988998
20
111.312000
70
0
0
VERTEX
8
Layer 1
10
-67.377998
20
112.163000
70
0
0
VERTEX
8
Layer 1
10
-67.630997
20
113.065001
70
0
0
VERTEX
8
Layer 1
10
-67.695580
20
113.615999
70
0
0
VERTEX
8
Layer 1
10
-67.739998
20
113.995001
70
0
0
VERTEX
8
Layer 1
10
-67.704002
20
114.931000
70
0
0
VERTEX
8
Layer 1
10
-67.522003
20
115.850000
70
0
0
VERTEX
8
Layer 1
10
-67.198997
20
116.729000
70
0
0
VERTEX
8
Layer 1
10
-66.969002
20
116.824080
70
0
0
VERTEX
8
Layer 1
10
-66.512001
20
117.013000
70
0
0
VERTEX
8
Layer 1
10
-65.663002
20
116.620000
70
0
0
VERTEX
8
Layer 1
10
-65.536003
20
116.535062
70
0
0
VERTEX
8
Layer 1
10
-64.884003
20
116.099000
70
0
0
VERTEX
8
Layer 1
10
-64.196999
20
115.463000
70
0
0
VERTEX
8
Layer 1
10
-63.616001
20
114.728000
70
0
0
VERTEX
8
Layer 1
10
-63.157001
20
113.912001
70
0
0
VERTEX
8
Layer 1
10
-63.047096
20
113.615999
70
0
0
VERTEX
8
Layer 1
10
-62.831001
20
113.034000
70
0
0
VERTEX
8
Layer 1
10
-62.645000
20
112.115999
70
0
0
VERTEX
8
Layer 1
10
-62.604000
20
111.181000
70
0
0
VERTEX
8
Layer 1
10
-62.460934
20
111.207548
70
0
0
VERTEX
8
Layer 1
10
-62.172699
20
111.261034
70
0
0
VERTEX
8
Layer 1
10
-61.439999
20
111.396999
70
0
0
VERTEX
8
Layer 1
10
-60.259998
20
111.490000
70
0
0
VERTEX
8
Layer 1
10
-59.077000
20
111.458000
70
0
0
VERTEX
8
Layer 1
10
-59.091133
20
111.582123
70
0
0
VERTEX
8
Layer 1
10
-59.119091
20
111.827684
70
0
0
VERTEX
8
Layer 1
10
-59.182999
20
112.389000
70
0
0
VERTEX
8
Layer 1
10
-59.143002
20
113.323999
70
0
0
VERTEX
8
Layer 1
10
-59.084156
20
113.615999
70
0
0
VERTEX
8
Layer 1
10
-58.958000
20
114.242000
70
0
0
VERTEX
8
Layer 1
10
-58.632999
20
115.120000
70
0
0
VERTEX
8
Layer 1
10
-58.174000
20
115.937000
70
0
0
VERTEX
8
Layer 1
10
-57.594002
20
116.672000
70
0
0
VERTEX
8
Layer 1
10
-57.344002
20
116.903805
70
0
0
VERTEX
8
Layer 1
10
-56.907001
20
117.309000
70
0
0
VERTEX
8
Layer 1
10
-56.129002
20
117.830000
70
0
0
VERTEX
8
Layer 1
10
-55.407001
20
117.657000
70
0
0
VERTEX
8
Layer 1
10
-54.951000
20
116.839000
70
0
0
VERTEX
8
Layer 1
10
-54.626999
20
115.960000
70
0
0
VERTEX
8
Layer 1
10
-54.444000
20
115.041000
70
0
0
VERTEX
8
Layer 1
10
-54.407001
20
114.106000
70
0
0
VERTEX
8
Layer 1
10
-54.463902
20
113.615999
70
0
0
VERTEX
8
Layer 1
10
-54.514999
20
113.176001
70
0
0
VERTEX
8
Layer 1
10
-54.766998
20
112.274000
70
0
0
VERTEX
8
Layer 1
10
-55.155998
20
111.422001
70
0
0
VERTEX
8
Layer 1
10
-55.673000
20
110.641001
70
0
0
VERTEX
8
Layer 1
10
-55.541229
20
110.578259
70
0
0
VERTEX
8
Layer 1
10
-55.276031
20
110.451986
70
0
0
VERTEX
8
Layer 1
10
-54.854637
20
110.251341
70
0
0
VERTEX
8
Layer 1
10
-54.604000
20
110.132000
70
0
0
VERTEX
8
Layer 1
10
-53.595001
20
109.513000
70
0
0
VERTEX
8
Layer 1
10
-52.969002
20
109.031820
70
0
0
VERTEX
8
Layer 1
10
-52.657001
20
108.792000
70
0
0
VERTEX
8
Layer 1
10
-52.595879
20
108.900059
70
0
0
VERTEX
8
Layer 1
10
-52.472980
20
109.117325
70
0
0
VERTEX
8
Layer 1
10
-52.195999
20
109.607000
70
0
0
VERTEX
8
Layer 1
10
-51.612999
20
110.341000
70
0
0
VERTEX
8
Layer 1
10
-50.924000
20
110.975000
70
0
0
VERTEX
8
Layer 1
10
-50.144001
20
111.493999
70
0
0
VERTEX
8
Layer 1
10
-49.293999
20
111.885000
70
0
0
VERTEX
8
Layer 1
10
-49.152000
20
111.924986
70
0
0
VERTEX
8
Layer 1
10
-48.391998
20
112.139000
70
0
0
VERTEX
8
Layer 1
10
-47.462002
20
112.250000
70
0
0
VERTEX
8
Layer 1
10
-46.527000
20
112.214001
70
0
0
VERTEX
8
Layer 1
10
-46.043999
20
111.649000
70
0
0
VERTEX
8
Layer 1
10
-46.155998
20
110.719999
70
0
0
VERTEX
8
Layer 1
10
-46.410000
20
109.818001
70
0
0
VERTEX
8
Layer 1
10
-46.801998
20
108.968000
70
0
0
VERTEX
8
Layer 1
10
-47.321999
20
108.188999
70
0
0
VERTEX
8
Layer 1
10
-47.956001
20
107.500000
70
0
0
VERTEX
8
Layer 1
10
-48.689999
20
106.917999
70
0
0
VERTEX
8
Layer 1
10
-49.152000
20
106.657558
70
0
0
VERTEX
8
Layer 1
10
-49.506001
20
106.458000
70
0
0
VERTEX
8
Layer 1
10
-50.382999
20
106.129999
70
0
0
VERTEX
8
Layer 1
10
-50.313801
20
106.002623
70
0
0
VERTEX
8
Layer 1
10
-49.999451
20
105.424000
70
0
0
VERTEX
8
Layer 1
10
-49.818001
20
105.090000
70
0
0
VERTEX
8
Layer 1
10
-49.365002
20
103.997000
70
0
0
VERTEX
8
Layer 1
10
-49.152000
20
103.277491
70
0
0
VERTEX
8
Layer 1
10
-49.028999
20
102.862000
70
0
0
VERTEX
8
Layer 1
10
-48.176998
20
103.250000
70
0
0
VERTEX
8
Layer 1
10
-47.275002
20
103.500999
70
0
0
VERTEX
8
Layer 1
10
-46.345001
20
103.608999
70
0
0
VERTEX
8
Layer 1
10
-45.409000
20
103.570000
70
0
0
VERTEX
8
Layer 1
10
-44.491001
20
103.386999
70
0
0
VERTEX
8
Layer 1
10
-43.612000
20
103.062000
70
0
0
VERTEX
8
Layer 1
10
-42.794998
20
102.605000
70
0
0
VERTEX
8
Layer 1
10
-42.057999
20
102.027000
70
0
0
VERTEX
8
Layer 1
10
-42.003288
20
101.327999
70
0
0
VERTEX
8
Layer 1
10
-42.000000
20
101.285999
70
0
0
VERTEX
8
Layer 1
10
-42.637001
20
100.599001
70
0
0
VERTEX
8
Layer 1
10
-43.373001
20
100.020000
70
0
0
VERTEX
8
Layer 1
10
-44.189999
20
99.562000
70
0
0
VERTEX
8
Layer 1
10
-45.068001
20
99.238001
70
0
0
VERTEX
8
Layer 1
10
-45.986000
20
99.052999
70
0
0
VERTEX
8
Layer 1
10
-46.922001
20
99.014000
70
0
0
VERTEX
8
Layer 1
10
-47.852001
20
99.121000
70
0
0
VERTEX
8
Layer 1
10
-48.754002
20
99.371000
70
0
0
VERTEX
8
Layer 1
10
-48.772911
20
99.226954
70
0
0
VERTEX
8
Layer 1
10
-48.811203
20
98.935284
70
0
0
VERTEX
8
Layer 1
10
-48.872108
20
98.471376
70
0
0
VERTEX
8
Layer 1
10
-48.908001
20
98.198000
70
0
0
VERTEX
8
Layer 1
10
-49.007187
20
97.784359
70
0
0
VERTEX
8
Layer 1
10
-49.139637
20
97.231998
70
0
0
VERTEX
8
Layer 1
10
-49.152000
20
97.180450
70
0
0
VERTEX
8
Layer 1
10
-49.183998
20
97.047001
70
0
0
VERTEX
8
Layer 1
10
-49.580002
20
95.931000
70
0
0
VERTEX
8
Layer 1
10
-49.457558
20
95.906193
70
0
0
VERTEX
8
Layer 1
10
-49.152000
20
95.844280
70
0
0
VERTEX
8
Layer 1
10
-48.661999
20
95.744999
70
0
0
VERTEX
8
Layer 1
10
-47.785000
20
95.417000
70
0
0
VERTEX
8
Layer 1
10
-46.969002
20
94.958000
70
0
0
VERTEX
8
Layer 1
10
-46.235001
20
94.376999
70
0
0
VERTEX
8
Layer 1
10
-45.599998
20
93.688000
70
0
0
VERTEX
8
Layer 1
10
-45.303337
20
93.244999
70
0
0
VERTEX
8
Layer 1
10
-45.078999
20
92.910000
70
0
0
VERTEX
8
Layer 1
10
-44.687000
20
92.058998
70
0
0
VERTEX
8
Layer 1
10
-44.431000
20
91.158001
70
0
0
VERTEX
8
Layer 1
10
-44.819000
20
90.525002
70
0
0
VERTEX
8
Layer 1
10
-45.737999
20
90.344002
70
0
0
VERTEX
8
Layer 1
10
-46.674000
20
90.307999
70
0
0
VERTEX
8
Layer 1
10
-47.604000
20
90.417999
70
0
0
VERTEX
8
Layer 1
10
-48.505001
20
90.671001
70
0
0
VERTEX
8
Layer 1
10
-49.152000
20
90.967922
70
0
0
VERTEX
8
Layer 1
10
-49.356998
20
91.062000
70
0
0
VERTEX
8
Layer 1
10
-50.137001
20
91.580002
70
0
0
VERTEX
8
Layer 1
10
-50.826000
20
92.213001
70
0
0
VERTEX
8
Layer 1
10
-51.409000
20
92.945999
70
0
0
VERTEX
8
Layer 1
10
-51.509056
20
92.840542
70
0
0
VERTEX
8
Layer 1
10
-51.712395
20
92.626225
70
0
0
VERTEX
8
Layer 1
10
-52.031837
20
92.289536
70
0
0
VERTEX
8
Layer 1
10
-52.223999
20
92.087002
70
0
0
VERTEX
8
Layer 1
10
-53.124001
20
91.319000
70
0
0
VERTEX
8
Layer 1
10
-54.098999
20
90.648998
70
0
0
VERTEX
8
Layer 1
10
-54.015781
20
90.558014
70
0
0
VERTEX
8
Layer 1
10
-53.848351
20
90.374954
70
0
0
VERTEX
8
Layer 1
10
-53.466999
20
89.958000
70
0
0
VERTEX
8
Layer 1
10
-52.949001
20
89.178001
70
0
0
VERTEX
8
Layer 1
10
-52.885830
20
89.040001
70
0
0
VERTEX
8
Layer 1
10
-52.558998
20
88.326000
70
0
0
VERTEX
8
Layer 1
10
-52.306000
20
87.424999
70
0
0
VERTEX
8
Layer 1
10
-52.196999
20
86.493999
70
0
0
VERTEX
8
Layer 1
10
-52.234001
20
85.558998
70
0
0
VERTEX
8
Layer 1
10
-52.416000
20
84.639999
70
0
0
VERTEX
8
Layer 1
10
-52.738998
20
83.761002
70
0
0
VERTEX
8
Layer 1
10
-53.424999
20
83.477001
70
0
0
VERTEX
8
Layer 1
10
-54.275002
20
83.869999
70
0
0
VERTEX
8
Layer 1
10
-55.053001
20
84.390999
70
0
0
VERTEX
8
Layer 1
10
-55.741001
20
85.026001
70
0
0
VERTEX
8
Layer 1
10
-56.321999
20
85.761002
70
0
0
VERTEX
8
Layer 1
10
-56.780998
20
86.577999
70
0
0
VERTEX
8
Layer 1
10
-57.106998
20
87.455002
70
0
0
VERTEX
8
Layer 1
10
-57.292999
20
88.373001
70
0
0
VERTEX
8
Layer 1
10
-57.322216
20
89.040001
70
0
0
VERTEX
8
Layer 1
10
-57.334000
20
89.308998
70
0
0
VERTEX
8
Layer 1
10
-57.344002
20
89.307144
70
0
0
VERTEX
8
Layer 1
10
-57.853344
20
89.212543
70
0
0
VERTEX
8
Layer 1
10
-58.497002
20
89.092999
70
0
0
VERTEX
8
Layer 1
10
-59.169472
20
89.040001
70
0
0
VERTEX
8
Layer 1
10
-59.676998
20
89.000000
70
0
0
VERTEX
8
Layer 1
10
-60.860001
20
89.030998
70
0
0
VERTEX
8
Layer 1
10
-60.845966
20
88.907871
70
0
0
VERTEX
8
Layer 1
10
-60.754002
20
88.101002
70
0
0
VERTEX
8
Layer 1
10
-60.793999
20
87.165001
70
0
0
VERTEX
8
Layer 1
10
-60.979000
20
86.247002
70
0
0
VERTEX
8
Layer 1
10
-61.305000
20
85.368999
70
0
0
VERTEX
8
Layer 1
10
-61.439999
20
85.128475
70
0
0
VERTEX
8
Layer 1
10
-61.763000
20
84.553001
70
0
0
VERTEX
8
Layer 1
10
-62.342999
20
83.817001
70
0
0
VERTEX
8
Layer 1
10
-63.029999
20
83.181000
70
0
0
VERTEX
8
Layer 1
10
-63.807999
20
82.660000
70
0
0
VERTEX
8
Layer 1
10
-64.530998
20
82.833000
70
0
0
VERTEX
8
Layer 1
10
-64.987000
20
83.651001
70
0
0
VERTEX
8
Layer 1
10
-65.309998
20
84.529999
70
0
0
VERTEX
8
Layer 1
10
-65.492996
20
85.448002
70
0
0
VERTEX
8
Layer 1
10
-65.530998
20
86.383999
70
0
0
VERTEX
8
Layer 1
10
-65.421997
20
87.313999
70
0
0
VERTEX
8
Layer 1
10
-65.170998
20
88.216000
70
0
0
VERTEX
8
Layer 1
10
-64.793816
20
89.040001
70
0
0
VERTEX
8
Layer 1
10
-64.780998
20
89.068001
70
0
0
VERTEX
8
Layer 1
10
-64.264999
20
89.848999
70
0
0
VERTEX
8
Layer 1
10
-64.395111
20
89.911011
70
0
0
VERTEX
8
Layer 1
10
-65.333000
20
90.358002
70
0
0
VERTEX
8
Layer 1
10
-65.536003
20
90.482334
70
0
0
VERTEX
8
Layer 1
10
-66.342003
20
90.976002
70
0
0
VERTEX
8
Layer 1
10
-66.969002
20
91.457436
70
0
0
VERTEX
8
Layer 1
10
-67.280998
20
91.696999
70
0
0
VERTEX
8
Layer 1
10
-67.342285
20
91.588661
70
0
0
VERTEX
8
Layer 1
10
-67.741997
20
90.882000
70
0
0
VERTEX
8
Layer 1
10
-68.323997
20
90.148998
70
0
0
VERTEX
8
Layer 1
10
-69.014000
20
89.514999
70
0
0
VERTEX
8
Layer 1
10
-69.726959
20
89.040001
70
0
0
VERTEX
8
Layer 1
10
-69.792999
20
88.995998
70
0
0
VERTEX
8
Layer 1
10
-70.643997
20
88.605000
70
0
0
VERTEX
8
Layer 1
10
-71.544998
20
88.351002
70
0
0
VERTEX
8
Layer 1
10
-72.474998
20
88.240002
70
0
0
VERTEX
8
Layer 1
10
-73.411003
20
88.275002
70
0
0
VERTEX
8
Layer 1
10
-73.892998
20
88.840000
70
0
0
VERTEX
8
Layer 1
10
-73.869125
20
89.040001
70
0
0
VERTEX
8
Layer 1
10
-73.781998
20
89.770000
70
0
0
VERTEX
8
Layer 1
10
-73.727997
20
89.960800
70
0
0
VERTEX
8
Layer 1
10
-73.527000
20
90.671001
70
0
0
VERTEX
8
Layer 1
10
-73.135002
20
91.521999
70
0
0
VERTEX
8
Layer 1
10
-72.615997
20
92.300999
70
0
0
VERTEX
8
Layer 1
10
-71.981003
20
92.990002
70
0
0
VERTEX
8
Layer 1
10
-71.796555
20
93.136002
70
0
0
VERTEX
8
Layer 1
10
-71.247002
20
93.570999
70
0
0
VERTEX
8
Layer 1
10
-70.431999
20
94.032001
70
0
0
VERTEX
8
Layer 1
10
-69.555000
20
94.360001
70
0
0
VERTEX
8
Layer 1
10
-69.624893
20
94.488533
70
0
0
VERTEX
8
Layer 1
10
-69.764206
20
94.744713
70
0
0
VERTEX
8
Layer 1
10
-70.120003
20
95.398998
70
0
0
VERTEX
8
Layer 1
10
-70.572998
20
96.493000
70
0
0
VERTEX
8
Layer 1
10
-70.791122
20
97.231998
70
0
0
VERTEX
8
Layer 1
10
-70.907997
20
97.627998
70
0
0
VERTEX
8
Layer 1
10
-71.761002
20
97.240002
70
0
0
VERTEX
8
Layer 1
10
-71.789749
20
97.231998
70
0
0
VERTEX
8
Layer 1
10
-72.663002
20
96.988998
70
0
0
VERTEX
8
Layer 1
10
-73.593002
20
96.881001
70
0
0
VERTEX
8
Layer 1
10
-73.727997
20
96.886482
70
0
0
VERTEX
8
Layer 1
10
-74.528999
20
96.918999
70
0
0
VERTEX
8
Layer 1
10
-75.446999
20
97.103001
70
0
0
VERTEX
8
Layer 1
10
-75.796974
20
97.231998
70
0
0
VERTEX
8
Layer 1
10
-76.325996
20
97.426998
70
0
0
VERTEX
8
Layer 1
10
-77.000000
20
97.804012
70
0
0
VERTEX
8
Layer 1
10
-77.142998
20
97.883999
70
0
0
VERTEX
8
Layer 1
10
-77.878998
20
98.462999
70
0
0
VERTEX
8
Layer 1
10
-77.938004
20
99.204000
70
0
0
VERTEX
8
Layer 1
10
-77.301003
20
99.889999
70
0
0
SEQEND
8
Layer 1
0
POLYLINE
8
Layer 1
62
10
70
0
10
0.000000
20
0.000000
66
1
0
VERTEX
8
Layer 1
10
-90.021439
20
138.213846
70
0
0
VERTEX
8
Layer 1
10
-90.020004
20
138.192000
70
0
0
VERTEX
8
Layer 1
10
-90.015915
20
138.129717
70
0
0
VERTEX
8
Layer 1
10
-89.969002
20
138.149135
70
0
0
VERTEX
8
Layer 1
10
-89.920998
20
138.169000
70
0
0
VERTEX
8
Layer 1
10
-89.930527
20
138.192000
70
0
0
VERTEX
8
Layer 1
10
-89.952568
20
138.245211
70
0
0
VERTEX
8
Layer 1
10
-89.969002
20
138.284877
70
0
0
VERTEX
8
Layer 1
10
-90.036858
20
138.448692
70
0
0
VERTEX
8
Layer 1
10
-90.067284
20
138.522150
70
0
0
VERTEX
8
Layer 1
10
-90.028999
20
138.329000
70
0
0
VERTEX
8
Layer 1
10
-90.021439
20
138.213846
70
0
0
SEQEND
8
Layer 1
0
POLYLINE
8
Layer 1
62
10
70
0
10
0.000000
20
0.000000
66
1
0
VERTEX
8
Layer 1
10
-35.118000
20
146.135000
70
0
0
VERTEX
8
Layer 1
10
-35.000000
20
146.158241
70
0
0
VERTEX
8
Layer 1
10
-34.199001
20
146.316000
70
0
0
VERTEX
8
Layer 1
10
-33.264000
20
146.351999
70
0
0
VERTEX
8
Layer 1
10
-32.768002
20
146.293333
70
0
0
VERTEX
8
Layer 1
10
-32.334000
20
146.242001
70
0
0
VERTEX
8
Layer 1
10
-31.431999
20
145.989000
70
0
0
VERTEX
8
Layer 1
10
-30.580999
20
145.598000
70
0
0
VERTEX
8
Layer 1
10
-29.969000
20
145.191569
70
0
0
VERTEX
8
Layer 1
10
-29.801001
20
145.080000
70
0
0
VERTEX
8
Layer 1
10
-29.111000
20
144.446000
70
0
0
VERTEX
8
Layer 1
10
-28.528000
20
143.713000
70
0
0
VERTEX
8
Layer 1
10
-28.428049
20
143.818477
70
0
0
VERTEX
8
Layer 1
10
-28.224638
20
144.033134
70
0
0
VERTEX
8
Layer 1
10
-27.906290
20
144.369080
70
0
0
VERTEX
8
Layer 1
10
-27.714001
20
144.572000
70
0
0
VERTEX
8
Layer 1
10
-27.384336
20
144.853680
70
0
0
VERTEX
8
Layer 1
10
-26.969000
20
145.208561
70
0
0
VERTEX
8
Layer 1
10
-26.813999
20
145.341000
70
0
0
VERTEX
8
Layer 1
10
-26.505711
20
145.552632
70
0
0
VERTEX
8
Layer 1
10
-25.837999
20
146.011000
70
0
0
VERTEX
8
Layer 1
10
-26.180187
20
146.384001
70
0
0
VERTEX
8
Layer 1
10
-26.471001
20
146.701000
70
0
0
VERTEX
8
Layer 1
10
-26.969000
20
147.451845
70
0
0
VERTEX
8
Layer 1
10
-26.989000
20
147.482000
70
0
0
VERTEX
8
Layer 1
10
-27.378000
20
148.333000
70
0
0
VERTEX
8
Layer 1
10
-27.631001
20
149.235001
70
0
0
VERTEX
8
Layer 1
10
-27.740000
20
150.165001
70
0
0
VERTEX
8
Layer 1
10
-27.702999
20
151.101000
70
0
0
VERTEX
8
Layer 1
10
-27.521000
20
152.020000
70
0
0
VERTEX
8
Layer 1
10
-27.198999
20
152.899000
70
0
0
VERTEX
8
Layer 1
10
-26.969000
20
152.994080
70
0
0
VERTEX
8
Layer 1
10
-26.511999
20
153.183001
70
0
0
VERTEX
8
Layer 1
10
-25.662001
20
152.790001
70
0
0
VERTEX
8
Layer 1
10
-24.884001
20
152.268999
70
0
0
VERTEX
8
Layer 1
10
-24.576000
20
151.984280
70
0
0
VERTEX
8
Layer 1
10
-24.195999
20
151.632999
70
0
0
VERTEX
8
Layer 1
10
-23.615999
20
150.898001
70
0
0
VERTEX
8
Layer 1
10
-23.157000
20
150.082001
70
0
0
VERTEX
8
Layer 1
10
-22.830999
20
149.204000
70
0
0
VERTEX
8
Layer 1
10
-22.645000
20
148.285999
70
0
0
VERTEX
8
Layer 1
10
-22.604000
20
147.351000
70
0
0
VERTEX
8
Layer 1
10
-22.460934
20
147.377548
70
0
0
VERTEX
8
Layer 1
10
-22.172701
20
147.431034
70
0
0
VERTEX
8
Layer 1
10
-21.713739
20
147.516203
70
0
0
VERTEX
8
Layer 1
10
-21.440001
20
147.566999
70
0
0
VERTEX
8
Layer 1
10
-21.013952
20
147.600578
70
0
0
VERTEX
8
Layer 1
10
-20.480000
20
147.642660
70
0
0
VERTEX
8
Layer 1
10
-20.260000
20
147.660000
70
0
0
VERTEX
8
Layer 1
10
-19.077000
20
147.628000
70
0
0
VERTEX
8
Layer 1
10
-19.091131
20
147.752123
70
0
0
VERTEX
8
Layer 1
10
-19.183001
20
148.559000
70
0
0
VERTEX
8
Layer 1
10
-19.143000
20
149.493999
70
0
0
VERTEX
8
Layer 1
10
-18.958000
20
150.412001
70
0
0
VERTEX
8
Layer 1
10
-18.632999
20
151.290001
70
0
0
VERTEX
8
Layer 1
10
-18.174000
20
152.107000
70
0
0
VERTEX
8
Layer 1
10
-17.594000
20
152.841999
70
0
0
VERTEX
8
Layer 1
10
-16.907000
20
153.479000
70
0
0
VERTEX
8
Layer 1
10
-16.384001
20
153.829235
70
0
0
VERTEX
8
Layer 1
10
-16.129000
20
154.000000
70
0
0
VERTEX
8
Layer 1
10
-15.969000
20
153.961662
70
0
0
VERTEX
8
Layer 1
10
-15.407000
20
153.827000
70
0
0
VERTEX
8
Layer 1
10
-14.951000
20
153.009001
70
0
0
VERTEX
8
Layer 1
10
-14.627000
20
152.129999
70
0
0
VERTEX
8
Layer 1
10
-14.444000
20
151.211000
70
0
0
VERTEX
8
Layer 1
10
-14.407000
20
150.275999
70
0
0
VERTEX
8
Layer 1
10
-14.515000
20
149.346001
70
0
0
VERTEX
8
Layer 1
10
-14.767000
20
148.444000
70
0
0
VERTEX
8
Layer 1
10
-15.156000
20
147.591999
70
0
0
VERTEX
8
Layer 1
10
-15.673000
20
146.811001
70
0
0
VERTEX
8
Layer 1
10
-15.541229
20
146.748259
70
0
0
VERTEX
8
Layer 1
10
-15.276032
20
146.621986
70
0
0
VERTEX
8
Layer 1
10
-14.854638
20
146.421341
70
0
0
VERTEX
8
Layer 1
10
-14.776217
20
146.384001
70
0
0
VERTEX
8
Layer 1
10
-14.604000
20
146.302000
70
0
0
VERTEX
8
Layer 1
10
-13.595000
20
145.683000
70
0
0
VERTEX
8
Layer 1
10
-12.969000
20
145.201821
70
0
0
VERTEX
8
Layer 1
10
-12.657000
20
144.962000
70
0
0
VERTEX
8
Layer 1
10
-12.595877
20
145.070059
70
0
0
VERTEX
8
Layer 1
10
-12.472982
20
145.287325
70
0
0
VERTEX
8
Layer 1
10
-12.196000
20
145.777000
70
0
0
VERTEX
8
Layer 1
10
-11.713873
20
146.384001
70
0
0
VERTEX
8
Layer 1
10
-11.613000
20
146.511000
70
0
0
VERTEX
8
Layer 1
10
-10.924000
20
147.145000
70
0
0
VERTEX
8
Layer 1
10
-10.144000
20
147.664000
70
0
0
VERTEX
8
Layer 1
10
-9.294000
20
148.055000
70
0
0
VERTEX
8
Layer 1
10
-8.392000
20
148.309000
70
0
0
VERTEX
8
Layer 1
10
-8.192000
20
148.332870
70
0
0
VERTEX
8
Layer 1
10
-7.462000
20
148.420000
70
0
0
VERTEX
8
Layer 1
10
-6.527000
20
148.384001
70
0
0
VERTEX
8
Layer 1
10
-6.044000
20
147.819000
70
0
0
VERTEX
8
Layer 1
10
-6.156000
20
146.889999
70
0
0
VERTEX
8
Layer 1
10
-6.298488
20
146.384001
70
0
0
VERTEX
8
Layer 1
10
-6.410000
20
145.988000
70
0
0
VERTEX
8
Layer 1
10
-6.802000
20
145.138000
70
0
0
VERTEX
8
Layer 1
10
-7.322000
20
144.359000
70
0
0
VERTEX
8
Layer 1
10
-7.956000
20
143.670000
70
0
0
VERTEX
8
Layer 1
10
-8.192000
20
143.482872
70
0
0
VERTEX
8
Layer 1
10
-8.690000
20
143.088000
70
0
0
VERTEX
8
Layer 1
10
-9.506000
20
142.628000
70
0
0
VERTEX
8
Layer 1
10
-10.383000
20
142.300000
70
0
0
VERTEX
8
Layer 1
10
-10.313800
20
142.172623
70
0
0
VERTEX
8
Layer 1
10
-10.172489
20
141.912511
70
0
0
VERTEX
8
Layer 1
10
-9.818000
20
141.260000
70
0
0
VERTEX
8
Layer 1
10
-9.365000
20
140.167000
70
0
0
VERTEX
8
Layer 1
10
-9.029000
20
139.032000
70
0
0
VERTEX
8
Layer 1
10
-8.915934
20
139.083490
70
0
0
VERTEX
8
Layer 1
10
-8.691175
20
139.185845
70
0
0
VERTEX
8
Layer 1
10
-8.192000
20
139.413169
70
0
0
VERTEX
8
Layer 1
10
-8.177000
20
139.420000
70
0
0
VERTEX
8
Layer 1
10
-7.275000
20
139.671000
70
0
0
VERTEX
8
Layer 1
10
-6.345000
20
139.779000
70
0
0
VERTEX
8
Layer 1
10
-5.409000
20
139.740000
70
0
0
VERTEX
8
Layer 1
10
-5.000000
20
139.658467
70
0
0
VERTEX
8
Layer 1
10
-4.491000
20
139.557000
70
0
0
VERTEX
8
Layer 1
10
-3.612000
20
139.232000
70
0
0
VERTEX
8
Layer 1
10
-2.795000
20
138.775000
70
0
0
VERTEX
8
Layer 1
10
-2.058000
20
138.197000
70
0
0
VERTEX
8
Layer 1
10
-2.057609
20
138.192000
70
0
0
VERTEX
8
Layer 1
10
-2.000000
20
137.456000
70
0
0
VERTEX
8
Layer 1
10
-2.637000
20
136.769000
70
0
0
VERTEX
8
Layer 1
10
-3.373000
20
136.190000
70
0
0
VERTEX
8
Layer 1
10
-4.190000
20
135.732000
70
0
0
VERTEX
8
Layer 1
10
-5.000000
20
135.433094
70
0
0
VERTEX
8
Layer 1
10
-5.068000
20
135.408000
70
0
0
VERTEX
8
Layer 1
10
-5.986000
20
135.223000
70
0
0
VERTEX
8
Layer 1
10
-6.922000
20
135.184000
70
0
0
VERTEX
8
Layer 1
10
-7.852000
20
135.291000
70
0
0
VERTEX
8
Layer 1
10
-8.192000
20
135.385235
70
0
0
VERTEX
8
Layer 1
10
-8.754000
20
135.541000
70
0
0
VERTEX
8
Layer 1
10
-8.908000
20
134.368000
70
0
0
VERTEX
8
Layer 1
10
-9.184000
20
133.217000
70
0
0
VERTEX
8
Layer 1
10
-9.580000
20
132.101000
70
0
0
VERTEX
8
Layer 1
10
-9.457557
20
132.076191
70
0
0
VERTEX
8
Layer 1
10
-9.215329
20
132.027112
70
0
0
VERTEX
8
Layer 1
10
-8.662000
20
131.915000
70
0
0
VERTEX
8
Layer 1
10
-8.192000
20
131.739219
70
0
0
VERTEX
8
Layer 1
10
-7.785000
20
131.587000
70
0
0
VERTEX
8
Layer 1
10
-7.559477
20
131.460143
70
0
0
VERTEX
8
Layer 1
10
-6.969000
20
131.128000
70
0
0
VERTEX
8
Layer 1
10
-6.235000
20
130.547000
70
0
0
VERTEX
8
Layer 1
10
-5.730871
20
130.000000
70
0
0
VERTEX
8
Layer 1
10
-5.600000
20
129.858000
70
0
0
VERTEX
8
Layer 1
10
-5.303338
20
129.415000
70
0
0
VERTEX
8
Layer 1
10
-5.079000
20
129.080000
70
0
0
VERTEX
8
Layer 1
10
-5.000000
20
128.908497
70
0
0
VERTEX
8
Layer 1
10
-4.687000
20
128.229000
70
0
0
VERTEX
8
Layer 1
10
-4.431000
20
127.329000
70
0
0
VERTEX
8
Layer 1
10
-4.819000
20
126.695000
70
0
0
VERTEX
8
Layer 1
10
-5.000000
20
126.659352
70
0
0
VERTEX
8
Layer 1
10
-5.738000
20
126.514000
70
0
0
VERTEX
8
Layer 1
10
-6.674000
20
126.478000
70
0
0
VERTEX
8
Layer 1
10
-7.604000
20
126.588000
70
0
0
VERTEX
8
Layer 1
10
-8.192000
20
126.753110
70
0
0
VERTEX
8
Layer 1
10
-8.505000
20
126.841000
70
0
0
VERTEX
8
Layer 1
10
-9.356000
20
127.232000
70
0
0
VERTEX
8
Layer 1
10
-10.136000
20
127.750000
70
0
0
VERTEX
8
Layer 1
10
-10.826000
20
128.383000
70
0
0
VERTEX
8
Layer 1
10
-11.409000
20
129.116000
70
0
0
VERTEX
8
Layer 1
10
-11.509453
20
129.009994
70
0
0
VERTEX
8
Layer 1
10
-11.711782
20
128.796480
70
0
0
VERTEX
8
Layer 1
10
-12.030049
20
128.460617
70
0
0
VERTEX
8
Layer 1
10
-12.223000
20
128.257000
70
0
0
VERTEX
8
Layer 1
10
-12.550994
20
127.977112
70
0
0
VERTEX
8
Layer 1
10
-13.123000
20
127.489000
70
0
0
VERTEX
8
Layer 1
10
-14.099000
20
126.819000
70
0
0
VERTEX
8
Layer 1
10
-14.015344
20
126.727534
70
0
0
VERTEX
8
Layer 1
10
-13.467000
20
126.128000
70
0
0
VERTEX
8
Layer 1
10
-12.949000
20
125.348000
70
0
0
VERTEX
8
Layer 1
10
-12.559000
20
124.496000
70
0
0
VERTEX
8
Layer 1
10
-12.306000
20
123.595000
70
0
0
VERTEX
8
Layer 1
10
-12.197000
20
122.664000
70
0
0
VERTEX
8
Layer 1
10
-12.230874
20
121.808000
70
0
0
VERTEX
8
Layer 1
10
-12.234000
20
121.729000
70
0
0
VERTEX
8
Layer 1
10
-12.416000
20
120.810000
70
0
0
VERTEX
8
Layer 1
10
-12.739000
20
119.931000
70
0
0
VERTEX
8
Layer 1
10
-13.425000
20
119.647000
70
0
0
VERTEX
8
Layer 1
10
-14.275000
20
120.040000
70
0
0
VERTEX
8
Layer 1
10
-15.053000
20
120.561000
70
0
0
VERTEX
8
Layer 1
10
-15.741000
20
121.196000
70
0
0
VERTEX
8
Layer 1
10
-15.969000
20
121.484931
70
0
0
VERTEX
8
Layer 1
10
-16.223938
20
121.808000
70
0
0
VERTEX
8
Layer 1
10
-16.320999
20
121.931000
70
0
0
VERTEX
8
Layer 1
10
-16.384001
20
122.042893
70
0
0
VERTEX
8
Layer 1
10
-16.781000
20
122.748000
70
0
0
VERTEX
8
Layer 1
10
-17.107000
20
123.625000
70
0
0
VERTEX
8
Layer 1
10
-17.292999
20
124.543000
70
0
0
VERTEX
8
Layer 1
10
-17.334000
20
125.479000
70
0
0
VERTEX
8
Layer 1
10
-17.477257
20
125.452394
70
0
0
VERTEX
8
Layer 1
10
-17.766325
20
125.398706
70
0
0
VERTEX
8
Layer 1
10
-18.225431
20
125.313437
70
0
0
VERTEX
8
Layer 1
10
-18.497000
20
125.263000
70
0
0
VERTEX
8
Layer 1
10
-19.677000
20
125.170000
70
0
0
VERTEX
8
Layer 1
10
-20.860001
20
125.201000
70
0
0
VERTEX
8
Layer 1
10
-20.845966
20
125.077869
70
0
0
VERTEX
8
Layer 1
10
-20.817936
20
124.831941
70
0
0
VERTEX
8
Layer 1
10
-20.754000
20
124.271000
70
0
0
VERTEX
8
Layer 1
10
-20.794001
20
123.335000
70
0
0
VERTEX
8
Layer 1
10
-20.979000
20
122.417000
70
0
0
VERTEX
8
Layer 1
10
-21.205120
20
121.808000
70
0
0
VERTEX
8
Layer 1
10
-21.305000
20
121.539000
70
0
0
VERTEX
8
Layer 1
10
-21.763000
20
120.723000
70
0
0
VERTEX
8
Layer 1
10
-22.343000
20
119.987000
70
0
0
VERTEX
8
Layer 1
10
-23.030001
20
119.351000
70
0
0
VERTEX
8
Layer 1
10
-23.808001
20
118.830000
70
0
0
VERTEX
8
Layer 1
10
-24.531000
20
119.003000
70
0
0
VERTEX
8
Layer 1
10
-24.576000
20
119.083724
70
0
0
VERTEX
8
Layer 1
10
-24.987000
20
119.821000
70
0
0
VERTEX
8
Layer 1
10
-25.309999
20
120.700000
70
0
0
VERTEX
8
Layer 1
10
-25.493000
20
121.618000
70
0
0
VERTEX
8
Layer 1
10
-25.500713
20
121.808000
70
0
0
VERTEX
8
Layer 1
10
-25.531000
20
122.554000
70
0
0
VERTEX
8
Layer 1
10
-25.422001
20
123.484000
70
0
0
VERTEX
8
Layer 1
10
-25.171000
20
124.386000
70
0
0
VERTEX
8
Layer 1
10
-24.781000
20
125.238000
70
0
0
VERTEX
8
Layer 1
10
-24.576000
20
125.547681
70
0
0
VERTEX
8
Layer 1
10
-24.264000
20
126.019000
70
0
0
VERTEX
8
Layer 1
10
-24.576000
20
126.167557
70
0
0
VERTEX
8
Layer 1
10
-25.333000
20
126.528000
70
0
0
VERTEX
8
Layer 1
10
-26.341999
20
127.146000
70
0
0
VERTEX
8
Layer 1
10
-26.969000
20
127.627434
70
0
0
VERTEX
8
Layer 1
10
-27.281000
20
127.867000
70
0
0
VERTEX
8
Layer 1
10
-27.342281
20
127.758660
70
0
0
VERTEX
8
Layer 1
10
-27.464359
20
127.542838
70
0
0
VERTEX
8
Layer 1
10
-27.742001
20
127.052000
70
0
0
VERTEX
8
Layer 1
10
-28.323999
20
126.319000
70
0
0
VERTEX
8
Layer 1
10
-28.775002
20
125.904000
70
0
0
VERTEX
8
Layer 1
10
-29.013000
20
125.685000
70
0
0
VERTEX
8
Layer 1
10
-29.792999
20
125.166000
70
0
0
VERTEX
8
Layer 1
10
-29.969000
20
125.085135
70
0
0
VERTEX
8
Layer 1
10
-30.643999
20
124.775000
70
0
0
VERTEX
8
Layer 1
10
-31.545000
20
124.521000
70
0
0
VERTEX
8
Layer 1
10
-32.474998
20
124.410000
70
0
0
VERTEX
8
Layer 1
10
-32.768002
20
124.420956
70
0
0
VERTEX
8
Layer 1
10
-33.410999
20
124.445000
70
0
0
VERTEX
8
Layer 1
10
-33.893002
20
125.010000
70
0
0
VERTEX
8
Layer 1
10
-33.782001
20
125.940000
70
0
0
VERTEX
8
Layer 1
10
-33.527000
20
126.841000
70
0
0
VERTEX
8
Layer 1
10
-33.134998
20
127.692000
70
0
0
VERTEX
8
Layer 1
10
-32.768002
20
128.242854
70
0
0
VERTEX
8
Layer 1
10
-32.616001
20
128.471000
70
0
0
VERTEX
8
Layer 1
10
-31.981001
20
129.160000
70
0
0
VERTEX
8
Layer 1
10
-31.247000
20
129.741000
70
0
0
VERTEX
8
Layer 1
10
-30.789116
20
130.000000
70
0
0
VERTEX
8
Layer 1
10
-30.431999
20
130.202000
70
0
0
VERTEX
8
Layer 1
10
-29.969000
20
130.375163
70
0
0
VERTEX
8
Layer 1
10
-29.555000
20
130.530000
70
0
0
VERTEX
8
Layer 1
10
-29.624895
20
130.658534
70
0
0
VERTEX
8
Layer 1
10
-29.969000
20
131.291320
70
0
0
VERTEX
8
Layer 1
10
-30.120001
20
131.569000
70
0
0
VERTEX
8
Layer 1
10
-30.573000
20
132.663000
70
0
0
VERTEX
8
Layer 1
10
-30.908001
20
133.798000
70
0
0
VERTEX
8
Layer 1
10
-31.021584
20
133.746335
70
0
0
VERTEX
8
Layer 1
10
-31.248011
20
133.643341
70
0
0
VERTEX
8
Layer 1
10
-31.761000
20
133.410000
70
0
0
VERTEX
8
Layer 1
10
-32.662998
20
133.159000
70
0
0
VERTEX
8
Layer 1
10
-32.768002
20
133.146806
70
0
0
VERTEX
8
Layer 1
10
-33.592999
20
133.051000
70
0
0
VERTEX
8
Layer 1
10
-34.528999
20
133.089000
70
0
0
VERTEX
8
Layer 1
10
-35.000000
20
133.183405
70
0
0
VERTEX
8
Layer 1
10
-35.446999
20
133.273000
70
0
0
VERTEX
8
Layer 1
10
-36.325001
20
133.597000
70
0
0
VERTEX
8
Layer 1
10
-37.000000
20
133.974109
70
0
0
VERTEX
8
Layer 1
10
-37.143002
20
134.054000
70
0
0
VERTEX
8
Layer 1
10
-37.879002
20
134.633000
70
0
0
VERTEX
8
Layer 1
10
-37.938000
20
135.374000
70
0
0
VERTEX
8
Layer 1
10
-37.300999
20
136.060000
70
0
0
VERTEX
8
Layer 1
10
-37.000000
20
136.297201
70
0
0
VERTEX
8
Layer 1
10
-36.564999
20
136.640000
70
0
0
VERTEX
8
Layer 1
10
-35.748001
20
137.097000
70
0
0
VERTEX
8
Layer 1
10
-35.000000
20
137.373879
70
0
0
VERTEX
8
Layer 1
10
-34.869999
20
137.422000
70
0
0
VERTEX
8
Layer 1
10
-33.952000
20
137.606000
70
0
0
VERTEX
8
Layer 1
10
-33.015999
20
137.646000
70
0
0
VERTEX
8
Layer 1
10
-32.768002
20
137.617466
70
0
0
VERTEX
8
Layer 1
10
-32.085999
20
137.539000
70
0
0
VERTEX
8
Layer 1
10
-31.183001
20
137.288000
70
0
0
VERTEX
8
Layer 1
10
-31.163990
20
137.432920
70
0
0
VERTEX
8
Layer 1
10
-31.064417
20
138.192000
70
0
0
VERTEX
8
Layer 1
10
-31.028999
20
138.462000
70
0
0
VERTEX
8
Layer 1
10
-30.753000
20
139.613000
70
0
0
VERTEX
8
Layer 1
10
-30.357000
20
140.728000
70
0
0
VERTEX
8
Layer 1
10
-30.479641
20
140.752982
70
0
0
VERTEX
8
Layer 1
10
-30.722004
20
140.802353
70
0
0
VERTEX
8
Layer 1
10
-31.275000
20
140.915000
70
0
0
VERTEX
8
Layer 1
10
-32.153000
20
141.242000
70
0
0
VERTEX
8
Layer 1
10
-32.768002
20
141.589116
70
0
0
VERTEX
8
Layer 1
10
-32.967999
20
141.702000
70
0
0
VERTEX
8
Layer 1
10
-33.702999
20
142.283000
70
0
0
VERTEX
8
Layer 1
10
-34.338001
20
142.971000
70
0
0
VERTEX
8
Layer 1
10
-34.858002
20
143.750000
70
0
0
VERTEX
8
Layer 1
10
-35.000000
20
144.057125
70
0
0
VERTEX
8
Layer 1
10
-35.250999
20
144.600000
70
0
0
VERTEX
8
Layer 1
10
-35.506001
20
145.501000
70
0
0
VERTEX
8
Layer 1
10
-35.118000
20
146.135000
70
0
0
SEQEND
8
Layer 1
0
POLYLINE
8
Layer 1
62
10
70
0
10
0.000000
20
0.000000
66
1
0
VERTEX
8
Layer 1
10
-35.334000
20
107.072001
70
0
0
VERTEX
8
Layer 1
10
-35.000000
20
106.977947
70
0
0
VERTEX
8
Layer 1
10
-34.431999
20
106.818001
70
0
0
VERTEX
8
Layer 1
10
-33.581001
20
106.427999
70
0
0
VERTEX
8
Layer 1
10
-32.800999
20
105.909000
70
0
0
VERTEX
8
Layer 1
10
-32.768002
20
105.878727
70
0
0
VERTEX
8
Layer 1
10
-32.272327
20
105.424000
70
0
0
VERTEX
8
Layer 1
10
-32.111000
20
105.275999
70
0
0
VERTEX
8
Layer 1
10
-31.528000
20
104.542999
70
0
0
VERTEX
8
Layer 1
10
-31.427547
20
104.649006
70
0
0
VERTEX
8
Layer 1
10
-30.714001
20
105.402000
70
0
0
VERTEX
8
Layer 1
10
-30.688251
20
105.424000
70
0
0
VERTEX
8
Layer 1
10
-29.969000
20
106.038561
70
0
0
VERTEX
8
Layer 1
10
-29.813999
20
106.171000
70
0
0
VERTEX
8
Layer 1
10
-28.837999
20
106.841000
70
0
0
VERTEX
8
Layer 1
10
-28.922308
20
106.932901
70
0
0
VERTEX
8
Layer 1
10
-29.471001
20
107.531000
70
0
0
VERTEX
8
Layer 1
10
-29.969000
20
108.281845
70
0
0
VERTEX
8
Layer 1
10
-29.989000
20
108.312000
70
0
0
VERTEX
8
Layer 1
10
-30.378000
20
109.163000
70
0
0
VERTEX
8
Layer 1
10
-30.478134
20
109.520000
70
0
0
VERTEX
8
Layer 1
10
-30.631001
20
110.065001
70
0
0
VERTEX
8
Layer 1
10
-30.740000
20
110.995001
70
0
0
VERTEX
8
Layer 1
10
-30.702999
20
111.931000
70
0
0
VERTEX
8
Layer 1
10
-30.521000
20
112.849001
70
0
0
VERTEX
8
Layer 1
10
-30.240347
20
113.615999
70
0
0
VERTEX
8
Layer 1
10
-30.198999
20
113.729000
70
0
0
VERTEX
8
Layer 1
10
-29.969000
20
113.824080
70
0
0
VERTEX
8
Layer 1
10
-29.511999
20
114.013000
70
0
0
VERTEX
8
Layer 1
10
-28.662001
20
113.618999
70
0
0
VERTEX
8
Layer 1
10
-28.657511
20
113.615999
70
0
0
VERTEX
8
Layer 1
10
-27.884001
20
113.099001
70
0
0
VERTEX
8
Layer 1
10
-27.195999
20
112.462999
70
0
0
VERTEX
8
Layer 1
10
-26.615999
20
111.728001
70
0
0
VERTEX
8
Layer 1
10
-26.157000
20
110.912001
70
0
0
VERTEX
8
Layer 1
10
-25.830999
20
110.034000
70
0
0
VERTEX
8
Layer 1
10
-25.726856
20
109.520000
70
0
0
VERTEX
8
Layer 1
10
-25.645000
20
109.115999
70
0
0
VERTEX
8
Layer 1
10
-25.604000
20
108.180000
70
0
0
VERTEX
8
Layer 1
10
-25.460764
20
108.206703
70
0
0
VERTEX
8
Layer 1
10
-24.576000
20
108.371647
70
0
0
VERTEX
8
Layer 1
10
-24.440001
20
108.396999
70
0
0
VERTEX
8
Layer 1
10
-23.260000
20
108.490000
70
0
0
VERTEX
8
Layer 1
10
-22.077000
20
108.458000
70
0
0
VERTEX
8
Layer 1
10
-22.091146
20
108.582121
70
0
0
VERTEX
8
Layer 1
10
-22.119358
20
108.829628
70
0
0
VERTEX
8
Layer 1
10
-22.183001
20
109.388000
70
0
0
VERTEX
8
Layer 1
10
-22.177359
20
109.520000
70
0
0
VERTEX
8
Layer 1
10
-22.143000
20
110.323999
70
0
0
VERTEX
8
Layer 1
10
-21.958000
20
111.242001
70
0
0
VERTEX
8
Layer 1
10
-21.632999
20
112.120001
70
0
0
VERTEX
8
Layer 1
10
-21.174000
20
112.937000
70
0
0
VERTEX
8
Layer 1
10
-20.638191
20
113.615999
70
0
0
VERTEX
8
Layer 1
10
-20.594000
20
113.672001
70
0
0
VERTEX
8
Layer 1
10
-19.907000
20
114.308000
70
0
0
VERTEX
8
Layer 1
10
-19.129000
20
114.830000
70
0
0
VERTEX
8
Layer 1
10
-18.407000
20
114.656000
70
0
0
VERTEX
8
Layer 1
10
-17.951000
20
113.839001
70
0
0
VERTEX
8
Layer 1
10
-17.868801
20
113.615999
70
0
0
VERTEX
8
Layer 1
10
-17.627001
20
112.959999
70
0
0
VERTEX
8
Layer 1
10
-17.444000
20
112.041000
70
0
0
VERTEX
8
Layer 1
10
-17.407000
20
111.105000
70
0
0
VERTEX
8
Layer 1
10
-17.514999
20
110.174999
70
0
0
VERTEX
8
Layer 1
10
-17.697994
20
109.520000
70
0
0
VERTEX
8
Layer 1
10
-17.767000
20
109.273001
70
0
0
VERTEX
8
Layer 1
10
-18.156000
20
108.421000
70
0
0
VERTEX
8
Layer 1
10
-18.673000
20
107.641001
70
0
0
VERTEX
8
Layer 1
10
-18.540855
20
107.578079
70
0
0
VERTEX
8
Layer 1
10
-18.275785
20
107.451868
70
0
0
VERTEX
8
Layer 1
10
-17.604000
20
107.132000
70
0
0
VERTEX
8
Layer 1
10
-16.594999
20
106.513000
70
0
0
VERTEX
8
Layer 1
10
-16.384001
20
106.350813
70
0
0
VERTEX
8
Layer 1
10
-15.969000
20
106.031820
70
0
0
VERTEX
8
Layer 1
10
-15.657000
20
105.792000
70
0
0
VERTEX
8
Layer 1
10
-15.196000
20
106.607000
70
0
0
VERTEX
8
Layer 1
10
-14.613000
20
107.341000
70
0
0
VERTEX
8
Layer 1
10
-13.924000
20
107.974001
70
0
0
VERTEX
8
Layer 1
10
-13.144000
20
108.493000
70
0
0
VERTEX
8
Layer 1
10
-12.294000
20
108.885000
70
0
0
VERTEX
8
Layer 1
10
-11.392000
20
109.139000
70
0
0
VERTEX
8
Layer 1
10
-10.462000
20
109.250000
70
0
0
VERTEX
8
Layer 1
10
-9.527000
20
109.214001
70
0
0
VERTEX
8
Layer 1
10
-9.044000
20
108.649000
70
0
0
VERTEX
8
Layer 1
10
-9.156000
20
107.719000
70
0
0
VERTEX
8
Layer 1
10
-9.410000
20
106.818001
70
0
0
VERTEX
8
Layer 1
10
-9.802000
20
105.968000
70
0
0
VERTEX
8
Layer 1
10
-10.165133
20
105.424000
70
0
0
VERTEX
8
Layer 1
10
-10.322000
20
105.188999
70
0
0
VERTEX
8
Layer 1
10
-10.956000
20
104.500000
70
0
0
VERTEX
8
Layer 1
10
-11.690000
20
103.917999
70
0
0
VERTEX
8
Layer 1
10
-12.506000
20
103.458000
70
0
0
VERTEX
8
Layer 1
10
-13.383000
20
103.129999
70
0
0
VERTEX
8
Layer 1
10
-13.313800
20
103.002623
70
0
0
VERTEX
8
Layer 1
10
-13.172489
20
102.742512
70
0
0
VERTEX
8
Layer 1
10
-12.950015
20
102.333002
70
0
0
VERTEX
8
Layer 1
10
-12.818000
20
102.090000
70
0
0
VERTEX
8
Layer 1
10
-12.654395
20
101.694893
70
0
0
VERTEX
8
Layer 1
10
-12.365000
20
100.996000
70
0
0
VERTEX
8
Layer 1
10
-12.029000
20
99.861000
70
0
0
VERTEX
8
Layer 1
10
-11.916325
20
99.912445
70
0
0
VERTEX
8
Layer 1
10
-11.177000
20
100.250000
70
0
0
VERTEX
8
Layer 1
10
-10.275000
20
100.500999
70
0
0
VERTEX
8
Layer 1
10
-9.345000
20
100.608000
70
0
0
VERTEX
8
Layer 1
10
-8.409000
20
100.570000
70
0
0
VERTEX
8
Layer 1
10
-8.192000
20
100.526505
70
0
0
VERTEX
8
Layer 1
10
-7.491000
20
100.386000
70
0
0
VERTEX
8
Layer 1
10
-6.612000
20
100.062000
70
0
0
VERTEX
8
Layer 1
10
-5.795000
20
99.605000
70
0
0
VERTEX
8
Layer 1
10
-5.058000
20
99.027000
70
0
0
VERTEX
8
Layer 1
10
-5.000000
20
98.285999
70
0
0
VERTEX
8
Layer 1
10
-5.637000
20
97.598999
70
0
0
VERTEX
8
Layer 1
10
-6.103515
20
97.231998
70
0
0
VERTEX
8
Layer 1
10
-6.373000
20
97.020000
70
0
0
VERTEX
8
Layer 1
10
-7.190000
20
96.562000
70
0
0
VERTEX
8
Layer 1
10
-8.068000
20
96.237000
70
0
0
VERTEX
8
Layer 1
10
-8.192000
20
96.212147
70
0
0
VERTEX
8
Layer 1
10
-8.986000
20
96.053001
70
0
0
VERTEX
8
Layer 1
10
-9.922000
20
96.014000
70
0
0
VERTEX
8
Layer 1
10
-10.852000
20
96.120998
70
0
0
VERTEX
8
Layer 1
10
-11.754000
20
96.370998
70
0
0
VERTEX
8
Layer 1
10
-11.772911
20
96.226955
70
0
0
VERTEX
8
Layer 1
10
-11.811204
20
95.935284
70
0
0
VERTEX
8
Layer 1
10
-11.871685
20
95.474606
70
0
0
VERTEX
8
Layer 1
10
-11.908000
20
95.198002
70
0
0
VERTEX
8
Layer 1
10
-12.184000
20
94.047001
70
0
0
VERTEX
8
Layer 1
10
-12.507258
20
93.136002
70
0
0
VERTEX
8
Layer 1
10
-12.580000
20
92.931000
70
0
0
VERTEX
8
Layer 1
10
-11.662000
20
92.743999
70
0
0
VERTEX
8
Layer 1
10
-10.785000
20
92.417000
70
0
0
VERTEX
8
Layer 1
10
-9.969000
20
91.958000
70
0
0
VERTEX
8
Layer 1
10
-9.235000
20
91.375999
70
0
0
VERTEX
8
Layer 1
10
-8.600000
20
90.688000
70
0
0
VERTEX
8
Layer 1
10
-8.303719
20
90.244999
70
0
0
VERTEX
8
Layer 1
10
-8.192000
20
90.077957
70
0
0
VERTEX
8
Layer 1
10
-8.079000
20
89.909000
70
0
0
VERTEX
8
Layer 1
10
-7.687000
20
89.058998
70
0
0
VERTEX
8
Layer 1
10
-7.681602
20
89.040001
70
0
0
VERTEX
8
Layer 1
10
-7.431000
20
88.158001
70
0
0
VERTEX
8
Layer 1
10
-7.819000
20
87.525002
70
0
0
VERTEX
8
Layer 1
10
-8.192000
20
87.451538
70
0
0
VERTEX
8
Layer 1
10
-8.738000
20
87.344002
70
0
0
VERTEX
8
Layer 1
10
-9.674000
20
87.306999
70
0
0
VERTEX
8
Layer 1
10
-10.604000
20
87.417000
70
0
0
VERTEX
8
Layer 1
10
-11.505000
20
87.671001
70
0
0
VERTEX
8
Layer 1
10
-12.356000
20
88.061001
70
0
0
VERTEX
8
Layer 1
10
-13.136000
20
88.580002
70
0
0
VERTEX
8
Layer 1
10
-13.637422
20
89.040001
70
0
0
VERTEX
8
Layer 1
10
-13.826000
20
89.213001
70
0
0
VERTEX
8
Layer 1
10
-14.409000
20
89.945999
70
0
0
VERTEX
8
Layer 1
10
-14.509453
20
89.839993
70
0
0
VERTEX
8
Layer 1
10
-15.223000
20
89.087002
70
0
0
VERTEX
8
Layer 1
10
-15.278007
20
89.040001
70
0
0
VERTEX
8
Layer 1
10
-15.546721
20
88.810398
70
0
0
VERTEX
8
Layer 1
10
-16.122999
20
88.318001
70
0
0
VERTEX
8
Layer 1
10
-16.384001
20
88.138828
70
0
0
VERTEX
8
Layer 1
10
-17.099001
20
87.647999
70
0
0
VERTEX
8
Layer 1
10
-16.466999
20
86.958000
70
0
0
VERTEX
8
Layer 1
10
-16.384001
20
86.833019
70
0
0
VERTEX
8
Layer 1
10
-15.949000
20
86.178001
70
0
0
VERTEX
8
Layer 1
10
-15.842251
20
85.944794
70
0
0
VERTEX
8
Layer 1
10
-15.559000
20
85.326000
70
0
0
VERTEX
8
Layer 1
10
-15.306000
20
84.424000
70
0
0
VERTEX
8
Layer 1
10
-15.197000
20
83.493999
70
0
0
VERTEX
8
Layer 1
10
-15.234000
20
82.557999
70
0
0
VERTEX
8
Layer 1
10
-15.416000
20
81.639999
70
0
0
VERTEX
8
Layer 1
10
-15.707030
20
80.848000
70
0
0
VERTEX
8
Layer 1
10
-15.739000
20
80.761002
70
0
0
VERTEX
8
Layer 1
10
-16.384001
20
80.493034
70
0
0
VERTEX
8
Layer 1
10
-16.424999
20
80.476002
70
0
0
VERTEX
8
Layer 1
10
-17.227537
20
80.848000
70
0
0
VERTEX
8
Layer 1
10
-17.275000
20
80.869999
70
0
0
VERTEX
8
Layer 1
10
-18.052999
20
81.390999
70
0
0
VERTEX
8
Layer 1
10
-18.740999
20
82.026001
70
0
0
VERTEX
8
Layer 1
10
-19.320999
20
82.761002
70
0
0
VERTEX
8
Layer 1
10
-19.781000
20
83.577000
70
0
0
VERTEX
8
Layer 1
10
-20.107000
20
84.455002
70
0
0
VERTEX
8
Layer 1
10
-20.206078
20
84.944000
70
0
0
VERTEX
8
Layer 1
10
-20.292999
20
85.373001
70
0
0
VERTEX
8
Layer 1
10
-20.334000
20
86.308998
70
0
0
VERTEX
8
Layer 1
10
-20.477232
20
86.282276
70
0
0
VERTEX
8
Layer 1
10
-21.497000
20
86.091999
70
0
0
VERTEX
8
Layer 1
10
-22.677000
20
86.000000
70
0
0
VERTEX
8
Layer 1
10
-23.860001
20
86.030998
70
0
0
VERTEX
8
Layer 1
10
-23.846077
20
85.908852
70
0
0
VERTEX
8
Layer 1
10
-23.817600
20
85.659008
70
0
0
VERTEX
8
Layer 1
10
-23.754000
20
85.101002
70
0
0
VERTEX
8
Layer 1
10
-23.760710
20
84.944000
70
0
0
VERTEX
8
Layer 1
10
-23.794001
20
84.165001
70
0
0
VERTEX
8
Layer 1
10
-23.844362
20
83.915092
70
0
0
VERTEX
8
Layer 1
10
-23.979000
20
83.247002
70
0
0
VERTEX
8
Layer 1
10
-24.305000
20
82.368999
70
0
0
VERTEX
8
Layer 1
10
-24.576000
20
81.885578
70
0
0
VERTEX
8
Layer 1
10
-24.763000
20
81.551998
70
0
0
VERTEX
8
Layer 1
10
-25.318537
20
80.848000
70
0
0
VERTEX
8
Layer 1
10
-25.343000
20
80.817001
70
0
0
VERTEX
8
Layer 1
10
-26.030001
20
80.181000
70
0
0
VERTEX
8
Layer 1
10
-26.808001
20
79.659000
70
0
0
VERTEX
8
Layer 1
10
-27.531000
20
79.833000
70
0
0
VERTEX
8
Layer 1
10
-27.987000
20
80.651001
70
0
0
VERTEX
8
Layer 1
10
-28.059473
20
80.848000
70
0
0
VERTEX
8
Layer 1
10
-28.309999
20
81.528999
70
0
0
VERTEX
8
Layer 1
10
-28.493000
20
82.448002
70
0
0
VERTEX
8
Layer 1
10
-28.531000
20
83.383999
70
0
0
VERTEX
8
Layer 1
10
-28.422001
20
84.313999
70
0
0
VERTEX
8
Layer 1
10
-28.171000
20
85.216000
70
0
0
VERTEX
8
Layer 1
10
-27.781000
20
86.068001
70
0
0
VERTEX
8
Layer 1
10
-27.264000
20
86.848999
70
0
0
VERTEX
8
Layer 1
10
-27.394957
20
86.911354
70
0
0
VERTEX
8
Layer 1
10
-27.663633
20
87.039284
70
0
0
VERTEX
8
Layer 1
10
-28.079384
20
87.237240
70
0
0
VERTEX
8
Layer 1
10
-28.333000
20
87.358002
70
0
0
VERTEX
8
Layer 1
10
-28.701500
20
87.583702
70
0
0
VERTEX
8
Layer 1
10
-29.341999
20
87.976002
70
0
0
VERTEX
8
Layer 1
10
-29.639235
20
88.204227
70
0
0
VERTEX
8
Layer 1
10
-29.969000
20
88.457436
70
0
0
VERTEX
8
Layer 1
10
-30.281000
20
88.696999
70
0
0
VERTEX
8
Layer 1
10
-30.684528
20
87.983601
70
0
0
VERTEX
8
Layer 1
10
-30.742001
20
87.882000
70
0
0
VERTEX
8
Layer 1
10
-31.323999
20
87.148998
70
0
0
VERTEX
8
Layer 1
10
-32.013000
20
86.514999
70
0
0
VERTEX
8
Layer 1
10
-32.768002
20
86.012634
70
0
0
VERTEX
8
Layer 1
10
-32.792999
20
85.995998
70
0
0
VERTEX
8
Layer 1
10
-33.644001
20
85.605000
70
0
0
VERTEX
8
Layer 1
10
-34.544998
20
85.349998
70
0
0
VERTEX
8
Layer 1
10
-35.000000
20
85.296185
70
0
0
VERTEX
8
Layer 1
10
-35.474998
20
85.240002
70
0
0
VERTEX
8
Layer 1
10
-36.410999
20
85.275002
70
0
0
VERTEX
8
Layer 1
10
-36.893002
20
85.840000
70
0
0
VERTEX
8
Layer 1
10
-36.782001
20
86.770000
70
0
0
VERTEX
8
Layer 1
10
-36.527000
20
87.671001
70
0
0
VERTEX
8
Layer 1
10
-36.134998
20
88.521000
70
0
0
VERTEX
8
Layer 1
10
-35.789665
20
89.040001
70
0
0
VERTEX
8
Layer 1
10
-35.616001
20
89.300999
70
0
0
VERTEX
8
Layer 1
10
-35.000000
20
89.968414
70
0
0
VERTEX
8
Layer 1
10
-34.980999
20
89.988998
70
0
0
VERTEX
8
Layer 1
10
-34.247002
20
90.570999
70
0
0
VERTEX
8
Layer 1
10
-33.431999
20
91.030998
70
0
0
VERTEX
8
Layer 1
10
-32.768002
20
91.279339
70
0
0
VERTEX
8
Layer 1
10
-32.555000
20
91.359001
70
0
0
VERTEX
8
Layer 1
10
-32.768002
20
91.751072
70
0
0
VERTEX
8
Layer 1
10
-32.985374
20
92.151192
70
0
0
VERTEX
8
Layer 1
10
-33.119999
20
92.398998
70
0
0
VERTEX
8
Layer 1
10
-33.286724
20
92.801643
70
0
0
VERTEX
8
Layer 1
10
-33.425175
20
93.136002
70
0
0
VERTEX
8
Layer 1
10
-33.573002
20
93.493000
70
0
0
VERTEX
8
Layer 1
10
-33.908001
20
94.627998
70
0
0
VERTEX
8
Layer 1
10
-34.021538
20
94.576221
70
0
0
VERTEX
8
Layer 1
10
-34.761002
20
94.238998
70
0
0
VERTEX
8
Layer 1
10
-35.000000
20
94.172493
70
0
0
VERTEX
8
Layer 1
10
-35.662998
20
93.987999
70
0
0
VERTEX
8
Layer 1
10
-36.592999
20
93.881001
70
0
0
VERTEX
8
Layer 1
10
-37.000000
20
93.897522
70
0
0
VERTEX
8
Layer 1
10
-37.528999
20
93.918999
70
0
0
VERTEX
8
Layer 1
10
-38.446999
20
94.103001
70
0
0
VERTEX
8
Layer 1
10
-39.325001
20
94.426998
70
0
0
VERTEX
8
Layer 1
10
-40.143002
20
94.883999
70
0
0
VERTEX
8
Layer 1
10
-40.879002
20
95.463001
70
0
0
VERTEX
8
Layer 1
10
-40.938000
20
96.202999
70
0
0
VERTEX
8
Layer 1
10
-40.300999
20
96.889999
70
0
0
VERTEX
8
Layer 1
10
-39.866264
20
97.231998
70
0
0
VERTEX
8
Layer 1
10
-39.564999
20
97.469002
70
0
0
VERTEX
8
Layer 1
10
-38.748001
20
97.926998
70
0
0
VERTEX
8
Layer 1
10
-37.869999
20
98.252001
70
0
0
VERTEX
8
Layer 1
10
-37.000000
20
98.426378
70
0
0
VERTEX
8
Layer 1
10
-36.952000
20
98.436001
70
0
0
VERTEX
8
Layer 1
10
-36.015999
20
98.475000
70
0
0
VERTEX
8
Layer 1
10
-35.085999
20
98.368000
70
0
0
VERTEX
8
Layer 1
10
-35.000000
20
98.344191
70
0
0
VERTEX
8
Layer 1
10
-34.182999
20
98.118000
70
0
0
VERTEX
8
Layer 1
10
-34.164120
20
98.261934
70
0
0
VERTEX
8
Layer 1
10
-34.125839
20
98.553757
70
0
0
VERTEX
8
Layer 1
10
-34.065392
20
99.014580
70
0
0
VERTEX
8
Layer 1
10
-34.028999
20
99.292000
70
0
0
VERTEX
8
Layer 1
10
-33.928535
20
99.710970
70
0
0
VERTEX
8
Layer 1
10
-33.752998
20
100.443001
70
0
0
VERTEX
8
Layer 1
10
-33.627003
20
100.797768
70
0
0
VERTEX
8
Layer 1
10
-33.438686
20
101.327999
70
0
0
VERTEX
8
Layer 1
10
-33.356998
20
101.558001
70
0
0
VERTEX
8
Layer 1
10
-34.275002
20
101.745001
70
0
0
VERTEX
8
Layer 1
10
-35.000000
20
102.015017
70
0
0
VERTEX
8
Layer 1
10
-35.153000
20
102.072001
70
0
0
VERTEX
8
Layer 1
10
-35.967999
20
102.532000
70
0
0
VERTEX
8
Layer 1
10
-36.702999
20
103.113001
70
0
0
VERTEX
8
Layer 1
10
-37.000000
20
103.434790
70
0
0
VERTEX
8
Layer 1
10
-37.338001
20
103.801001
70
0
0
VERTEX
8
Layer 1
10
-37.858002
20
104.580000
70
0
0
VERTEX
8
Layer 1
10
-38.248226
20
105.424000
70
0
0
VERTEX
8
Layer 1
10
-38.250999
20
105.430000
70
0
0
VERTEX
8
Layer 1
10
-38.506001
20
106.330999
70
0
0
VERTEX
8
Layer 1
10
-38.118000
20
106.964001
70
0
0
VERTEX
8
Layer 1
10
-37.199001
20
107.146000
70
0
0
VERTEX
8
Layer 1
10
-37.000000
20
107.153662
70
0
0
VERTEX
8
Layer 1
10
-36.264000
20
107.181999
70
0
0
VERTEX
8
Layer 1
10
-35.334000
20
107.072001
70
0
0
SEQEND
8
Layer 1
0
POLYLINE
8
Layer 1
62
10
70
0
10
0.000000
20
0.000000
66
1
0
VERTEX
8
Layer 1
10
6.393000
20
149.607000
70
0
0
VERTEX
8
Layer 1
10
7.000000
20
150.138742
70
0
0
VERTEX
8
Layer 1
10
7.869000
20
150.900000
70
0
0
VERTEX
8
Layer 1
10
9.000000
20
151.655849
70
0
0
VERTEX
8
Layer 1
10
9.500000
20
151.990000
70
0
0
VERTEX
8
Layer 1
10
11.260000
20
152.858000
70
0
0
VERTEX
8
Layer 1
10
13.118000
20
153.489000
70
0
0
VERTEX
8
Layer 1
10
15.042000
20
153.872000
70
0
0
VERTEX
8
Layer 1
10
16.384001
20
153.959730
70
0
0
VERTEX
8
Layer 1
10
17.000000
20
154.000000
70
0
0
VERTEX
8
Layer 1
10
18.958000
20
153.872000
70
0
0
VERTEX
8
Layer 1
10
20.882000
20
153.489000
70
0
0
VERTEX
8
Layer 1
10
22.740000
20
152.858000
70
0
0
VERTEX
8
Layer 1
10
24.500000
20
151.990000
70
0
0
VERTEX
8
Layer 1
10
26.131001
20
150.900000
70
0
0
VERTEX
8
Layer 1
10
27.607000
20
149.607000
70
0
0
VERTEX
8
Layer 1
10
28.900000
20
148.131001
70
0
0
VERTEX
8
Layer 1
10
29.990000
20
146.500000
70
0
0
VERTEX
8
Layer 1
10
30.047209
20
146.384001
70
0
0
VERTEX
8
Layer 1
10
30.858000
20
144.740000
70
0
0
VERTEX
8
Layer 1
10
31.489000
20
142.882000
70
0
0
VERTEX
8
Layer 1
10
31.872000
20
140.958000
70
0
0
VERTEX
8
Layer 1
10
32.000000
20
139.000000
70
0
0
VERTEX
8
Layer 1
10
31.872000
20
137.042000
70
0
0
VERTEX
8
Layer 1
10
31.489000
20
135.118000
70
0
0
VERTEX
8
Layer 1
10
30.858000
20
133.260000
70
0
0
VERTEX
8
Layer 1
10
29.990000
20
131.500000
70
0
0
VERTEX
8
Layer 1
10
28.987547
20
130.000000
70
0
0
VERTEX
8
Layer 1
10
28.900000
20
129.869000
70
0
0
VERTEX
8
Layer 1
10
27.607000
20
128.393000
70
0
0
VERTEX
8
Layer 1
10
26.131001
20
127.100000
70
0
0
VERTEX
8
Layer 1
10
24.500000
20
126.010000
70
0
0
VERTEX
8
Layer 1
10
22.740000
20
125.142000
70
0
0
VERTEX
8
Layer 1
10
20.882000
20
124.511000
70
0
0
VERTEX
8
Layer 1
10
18.958000
20
124.128000
70
0
0
VERTEX
8
Layer 1
10
17.000000
20
124.000000
70
0
0
VERTEX
8
Layer 1
10
15.042000
20
124.128000
70
0
0
VERTEX
8
Layer 1
10
13.118000
20
124.511000
70
0
0
VERTEX
8
Layer 1
10
11.260000
20
125.142000
70
0
0
VERTEX
8
Layer 1
10
9.500000
20
126.010000
70
0
0
VERTEX
8
Layer 1
10
9.000000
20
126.344151
70
0
0
VERTEX
8
Layer 1
10
7.869000
20
127.100000
70
0
0
VERTEX
8
Layer 1
10
7.000000
20
127.861258
70
0
0
VERTEX
8
Layer 1
10
6.393000
20
128.393000
70
0
0
VERTEX
8
Layer 1
10
5.100000
20
129.869000
70
0
0
VERTEX
8
Layer 1
10
5.012453
20
130.000000
70
0
0
VERTEX
8
Layer 1
10
5.000000
20
130.018633
70
0
0
VERTEX
8
Layer 1
10
4.010000
20
131.500000
70
0
0
VERTEX
8
Layer 1
10
3.142000
20
133.260000
70
0
0
VERTEX
8
Layer 1
10
2.511000
20
135.118000
70
0
0
VERTEX
8
Layer 1
10
2.128000
20
137.042000
70
0
0
VERTEX
8
Layer 1
10
2.000000
20
139.000000
70
0
0
VERTEX
8
Layer 1
10
2.128000
20
140.958000
70
0
0
VERTEX
8
Layer 1
10
2.511000
20
142.882000
70
0
0
VERTEX
8
Layer 1
10
3.142000
20
144.740000
70
0
0
VERTEX
8
Layer 1
10
3.952791
20
146.384001
70
0
0
VERTEX
8
Layer 1
10
4.010000
20
146.500000
70
0
0
VERTEX
8
Layer 1
10
5.000000
20
147.981367
70
0
0
VERTEX
8
Layer 1
10
5.100000
20
148.131001
70
0
0
VERTEX
8
Layer 1
10
6.393000
20
149.607000
70
0
0
SEQEND
8
Layer 1
0
POLYLINE
8
Layer 1
62
10
70
0
10
0.000000
20
0.000000
66
1
0
VERTEX
8
Layer 1
10
35.900002
20
110.131001
70
0
0
VERTEX
8
Layer 1
10
36.000000
20
109.981367
70
0
0
VERTEX
8
Layer 1
10
36.990002
20
108.500000
70
0
0
VERTEX
8
Layer 1
10
37.858002
20
106.740000
70
0
0
VERTEX
8
Layer 1
10
38.488998
20
104.882000
70
0
0
VERTEX
8
Layer 1
10
38.872002
20
102.958000
70
0
0
VERTEX
8
Layer 1
10
39.000000
20
101.000000
70
0
0
VERTEX
8
Layer 1
10
38.872002
20
99.042000
70
0
0
VERTEX
8
Layer 1
10
38.511692
20
97.231998
70
0
0
VERTEX
8
Layer 1
10
38.488998
20
97.118000
70
0
0
VERTEX
8
Layer 1
10
37.858002
20
95.259998
70
0
0
VERTEX
8
Layer 1
10
36.990002
20
93.500000
70
0
0
VERTEX
8
Layer 1
10
36.000000
20
92.018635
70
0
0
VERTEX
8
Layer 1
10
35.900002
20
91.868999
70
0
0
VERTEX
8
Layer 1
10
34.606998
20
90.393002
70
0
0
VERTEX
8
Layer 1
10
33.131001
20
89.099998
70
0
0
VERTEX
8
Layer 1
10
32.768002
20
88.857407
70
0
0
VERTEX
8
Layer 1
10
31.500000
20
88.009998
70
0
0
VERTEX
8
Layer 1
10
29.740000
20
87.141998
70
0
0
VERTEX
8
Layer 1
10
27.882000
20
86.511002
70
0
0
VERTEX
8
Layer 1
10
25.958000
20
86.127998
70
0
0
VERTEX
8
Layer 1
10
24.000000
20
86.000000
70
0
0
VERTEX
8
Layer 1
10
22.042000
20
86.127998
70
0
0
VERTEX
8
Layer 1
10
20.118000
20
86.511002
70
0
0
VERTEX
8
Layer 1
10
18.260000
20
87.141998
70
0
0
VERTEX
8
Layer 1
10
16.500000
20
88.009998
70
0
0
VERTEX
8
Layer 1
10
14.869000
20
89.099998
70
0
0
VERTEX
8
Layer 1
10
13.393000
20
90.393002
70
0
0
VERTEX
8
Layer 1
10
12.100000
20
91.868999
70
0
0
VERTEX
8
Layer 1
10
11.010000
20
93.500000
70
0
0
VERTEX
8
Layer 1
10
10.142000
20
95.259998
70
0
0
VERTEX
8
Layer 1
10
9.511000
20
97.118000
70
0
0
VERTEX
8
Layer 1
10
9.488307
20
97.231998
70
0
0
VERTEX
8
Layer 1
10
9.128000
20
99.042000
70
0
0
VERTEX
8
Layer 1
10
9.000000
20
101.000000
70
0
0
VERTEX
8
Layer 1
10
9.128000
20
102.958000
70
0
0
VERTEX
8
Layer 1
10
9.511000
20
104.882000
70
0
0
VERTEX
8
Layer 1
10
10.142000
20
106.740000
70
0
0
VERTEX
8
Layer 1
10
11.010000
20
108.500000
70
0
0
VERTEX
8
Layer 1
10
12.100000
20
110.131001
70
0
0
VERTEX
8
Layer 1
10
13.393000
20
111.607000
70
0
0
VERTEX
8
Layer 1
10
14.869000
20
112.900000
70
0
0
VERTEX
8
Layer 1
10
16.384001
20
113.912477
70
0
0
VERTEX
8
Layer 1
10
16.500000
20
113.990000
70
0
0
VERTEX
8
Layer 1
10
18.260000
20
114.858000
70
0
0
VERTEX
8
Layer 1
10
20.118000
20
115.489000
70
0
0
VERTEX
8
Layer 1
10
22.042000
20
115.872000
70
0
0
VERTEX
8
Layer 1
10
24.000000
20
116.000000
70
0
0
VERTEX
8
Layer 1
10
25.958000
20
115.872000
70
0
0
VERTEX
8
Layer 1
10
27.882000
20
115.489000
70
0
0
VERTEX
8
Layer 1
10
29.740000
20
114.858000
70
0
0
VERTEX
8
Layer 1
10
31.500000
20
113.990000
70
0
0
VERTEX
8
Layer 1
10
32.768002
20
113.142593
70
0
0
VERTEX
8
Layer 1
10
33.131001
20
112.900000
70
0
0
VERTEX
8
Layer 1
10
34.606998
20
111.607000
70
0
0
VERTEX
8
Layer 1
10
35.900002
20
110.131001
70
0
0
SEQEND
8
Layer 1
0
POLYLINE
8
Layer 1
62
10
70
0
10
0.000000
20
0.000000
66
1
0
VERTEX
8
Layer 1
10
34.653999
20
74.478001
70
0
0
VERTEX
8
Layer 1
10
36.000000
20
73.814178
70
0
0
VERTEX
8
Layer 1
10
37.000000
20
73.320999
70
0
0
VERTEX
8
Layer 1
10
39.174999
20
71.867001
70
0
0
VERTEX
8
Layer 1
10
41.141998
20
70.141998
70
0
0
VERTEX
8
Layer 1
10
42.867001
20
68.174999
70
0
0
VERTEX
8
Layer 1
10
44.320999
20
66.000000
70
0
0
VERTEX
8
Layer 1
10
45.078526
20
64.463997
70
0
0
VERTEX
8
Layer 1
10
45.478001
20
63.653999
70
0
0
VERTEX
8
Layer 1
10
46.319000
20
61.176003
70
0
0
VERTEX
8
Layer 1
10
46.828999
20
58.611000
70
0
0
VERTEX
8
Layer 1
10
47.000000
20
56.000000
70
0
0
VERTEX
8
Layer 1
10
46.828999
20
53.389000
70
0
0
VERTEX
8
Layer 1
10
46.319000
20
50.823997
70
0
0
VERTEX
8
Layer 1
10
45.478001
20
48.346001
70
0
0
VERTEX
8
Layer 1
10
44.320999
20
46.000000
70
0
0
VERTEX
8
Layer 1
10
42.867001
20
43.824997
70
0
0
VERTEX
8
Layer 1
10
41.141998
20
41.858002
70
0
0
VERTEX
8
Layer 1
10
39.174999
20
40.133003
70
0
0
VERTEX
8
Layer 1
10
37.000000
20
38.679001
70
0
0
VERTEX
8
Layer 1
10
36.000000
20
38.185822
70
0
0
VERTEX
8
Layer 1
10
34.653999
20
37.522003
70
0
0
VERTEX
8
Layer 1
10
32.768002
20
36.881920
70
0
0
VERTEX
8
Layer 1
10
32.175999
20
36.681000
70
0
0
VERTEX
8
Layer 1
10
29.611000
20
36.170998
70
0
0
VERTEX
8
Layer 1
10
27.000000
20
36.000000
70
0
0
VERTEX
8
Layer 1
10
24.389000
20
36.170998
70
0
0
VERTEX
8
Layer 1
10
21.823999
20
36.681000
70
0
0
VERTEX
8
Layer 1
10
19.346001
20
37.522003
70
0
0
VERTEX
8
Layer 1
10
17.000000
20
38.679001
70
0
0
VERTEX
8
Layer 1
10
14.825000
20
40.133003
70
0
0
VERTEX
8
Layer 1
10
12.858000
20
41.858002
70
0
0
VERTEX
8
Layer 1
10
11.133000
20
43.824997
70
0
0
VERTEX
8
Layer 1
10
9.679000
20
46.000000
70
0
0
VERTEX
8
Layer 1
10
8.653186
20
48.080002
70
0
0
VERTEX
8
Layer 1
10
8.522000
20
48.346001
70
0
0
VERTEX
8
Layer 1
10
7.681000
20
50.823997
70
0
0
VERTEX
8
Layer 1
10
7.171000
20
53.389000
70
0
0
VERTEX
8
Layer 1
10
7.000000
20
56.000000
70
0
0
VERTEX
8
Layer 1
10
7.171000
20
58.611000
70
0
0
VERTEX
8
Layer 1
10
7.681000
20
61.176003
70
0
0
VERTEX
8
Layer 1
10
8.522000
20
63.653999
70
0
0
VERTEX
8
Layer 1
10
8.921475
20
64.463997
70
0
0
VERTEX
8
Layer 1
10
9.679000
20
66.000000
70
0
0
VERTEX
8
Layer 1
10
11.133000
20
68.174999
70
0
0
VERTEX
8
Layer 1
10
12.858000
20
70.141998
70
0
0
VERTEX
8
Layer 1
10
14.825000
20
71.867001
70
0
0
VERTEX
8
Layer 1
10
17.000000
20
73.320999
70
0
0
VERTEX
8
Layer 1
10
19.346001
20
74.478001
70
0
0
VERTEX
8
Layer 1
10
21.823999
20
75.319000
70
0
0
VERTEX
8
Layer 1
10
24.389000
20
75.828999
70
0
0
VERTEX
8
Layer 1
10
27.000000
20
76.000000
70
0
0
VERTEX
8
Layer 1
10
29.611000
20
75.828999
70
0
0
VERTEX
8
Layer 1
10
32.175999
20
75.319000
70
0
0
VERTEX
8
Layer 1
10
32.768002
20
75.118084
70
0
0
VERTEX
8
Layer 1
10
34.653999
20
74.478001
70
0
0
SEQEND
8
Layer 1
0
POLYLINE
8
Layer 1
62
10
70
0
10
0.000000
20
0.000000
66
1
0
VERTEX
8
Layer 1
10
2.321000
20
65.000000
70
0
0
VERTEX
8
Layer 1
10
2.585344
20
64.463997
70
0
0
VERTEX
8
Layer 1
10
3.478000
20
62.653999
70
0
0
VERTEX
8
Layer 1
10
4.319000
20
60.176003
70
0
0
VERTEX
8
Layer 1
10
4.829000
20
57.611000
70
0
0
VERTEX
8
Layer 1
10
5.000000
20
55.000000
70
0
0
VERTEX
8
Layer 1
10
4.829000
20
52.389000
70
0
0
VERTEX
8
Layer 1
10
4.319000
20
49.823997
70
0
0
VERTEX
8
Layer 1
10
3.478000
20
47.346001
70
0
0
VERTEX
8
Layer 1
10
2.321000
20
45.000000
70
0
0
VERTEX
8
Layer 1
10
0.867000
20
42.824997
70
0
0
VERTEX
8
Layer 1
10
0.000000
20
41.836372
70
0
0
VERTEX
8
Layer 1
10
-0.858000
20
40.858002
70
0
0
VERTEX
8
Layer 1
10
-2.825000
20
39.133003
70
0
0
VERTEX
8
Layer 1
10
-5.000000
20
37.679001
70
0
0
VERTEX
8
Layer 1
10
-7.346000
20
36.522003
70
0
0
VERTEX
8
Layer 1
10
-9.824000
20
35.681000
70
0
0
VERTEX
8
Layer 1
10
-12.389000
20
35.170998
70
0
0
VERTEX
8
Layer 1
10
-15.000000
20
35.000000
70
0
0
VERTEX
8
Layer 1
10
-16.384001
20
35.090645
70
0
0
VERTEX
8
Layer 1
10
-17.611000
20
35.170998
70
0
0
VERTEX
8
Layer 1
10
-20.176001
20
35.681000
70
0
0
VERTEX
8
Layer 1
10
-22.653999
20
36.522003
70
0
0
VERTEX
8
Layer 1
10
-25.000000
20
37.679001
70
0
0
VERTEX
8
Layer 1
10
-27.174999
20
39.133003
70
0
0
VERTEX
8
Layer 1
10
-29.142000
20
40.858002
70
0
0
VERTEX
8
Layer 1
10
-30.867001
20
42.824997
70
0
0
VERTEX
8
Layer 1
10
-32.320999
20
45.000000
70
0
0
VERTEX
8
Layer 1
10
-32.768002
20
45.906364
70
0
0
VERTEX
8
Layer 1
10
-33.478001
20
47.346001
70
0
0
VERTEX
8
Layer 1
10
-34.319000
20
49.823997
70
0
0
VERTEX
8
Layer 1
10
-34.828999
20
52.389000
70
0
0
VERTEX
8
Layer 1
10
-35.000000
20
55.000000
70
0
0
VERTEX
8
Layer 1
10
-34.828999
20
57.611000
70
0
0
VERTEX
8
Layer 1
10
-34.319000
20
60.176003
70
0
0
VERTEX
8
Layer 1
10
-33.478001
20
62.653999
70
0
0
VERTEX
8
Layer 1
10
-32.768002
20
64.093636
70
0
0
VERTEX
8
Layer 1
10
-32.585346
20
64.463997
70
0
0
VERTEX
8
Layer 1
10
-32.320999
20
65.000000
70
0
0
VERTEX
8
Layer 1
10
-30.867001
20
67.174999
70
0
0
VERTEX
8
Layer 1
10
-29.142000
20
69.141998
70
0
0
VERTEX
8
Layer 1
10
-27.174999
20
70.867001
70
0
0
VERTEX
8
Layer 1
10
-25.000000
20
72.320999
70
0
0
VERTEX
8
Layer 1
10
-22.653999
20
73.478001
70
0
0
VERTEX
8
Layer 1
10
-20.176001
20
74.319000
70
0
0
VERTEX
8
Layer 1
10
-17.611000
20
74.828999
70
0
0
VERTEX
8
Layer 1
10
-15.000000
20
75.000000
70
0
0
VERTEX
8
Layer 1
10
-12.389000
20
74.828999
70
0
0
VERTEX
8
Layer 1
10
-9.824000
20
74.319000
70
0
0
VERTEX
8
Layer 1
10
-7.346000
20
73.478001
70
0
0
VERTEX
8
Layer 1
10
-5.000000
20
72.320999
70
0
0
VERTEX
8
Layer 1
10
-2.825000
20
70.867001
70
0
0
VERTEX
8
Layer 1
10
-0.858000
20
69.141998
70
0
0
VERTEX
8
Layer 1
10
0.000000
20
68.163631
70
0
0
VERTEX
8
Layer 1
10
0.867000
20
67.174999
70
0
0
VERTEX
8
Layer 1
10
2.321000
20
65.000000
70
0
0
SEQEND
8
Layer 1
0
POLYLINE
8
Layer 1
62
10
70
0
10
0.000000
20
0.000000
66
1
0
VERTEX
8
Layer 1
10
-67.581001
20
148.598000
70
0
0
VERTEX
8
Layer 1
10
-66.969002
20
148.191568
70
0
0
VERTEX
8
Layer 1
10
-66.801003
20
148.080000
70
0
0
VERTEX
8
Layer 1
10
-66.111000
20
147.447001
70
0
0
VERTEX
8
Layer 1
10
-65.536003
20
146.724058
70
0
0
VERTEX
8
Layer 1
10
-65.528000
20
146.714001
70
0
0
VERTEX
8
Layer 1
10
-64.713997
20
147.573000
70
0
0
VERTEX
8
Layer 1
10
-63.969002
20
148.208733
70
0
0
VERTEX
8
Layer 1
10
-63.813999
20
148.341000
70
0
0
VERTEX
8
Layer 1
10
-62.838001
20
149.011000
70
0
0
VERTEX
8
Layer 1
10
-62.921730
20
149.102404
70
0
0
VERTEX
8
Layer 1
10
-63.090321
20
149.286440
70
0
0
VERTEX
8
Layer 1
10
-63.471001
20
149.702000
70
0
0
VERTEX
8
Layer 1
10
-63.969002
20
150.451883
70
0
0
VERTEX
8
Layer 1
10
-63.987671
20
150.480000
70
0
0
VERTEX
8
Layer 1
10
-63.988998
20
150.482000
70
0
0
VERTEX
8
Layer 1
10
-64.377998
20
151.334000
70
0
0
VERTEX
8
Layer 1
10
-64.630997
20
152.235001
70
0
0
VERTEX
8
Layer 1
10
-64.739998
20
153.165001
70
0
0
VERTEX
8
Layer 1
10
-64.704002
20
154.101000
70
0
0
VERTEX
8
Layer 1
10
-64.609932
20
154.576000
70
0
0
VERTEX
8
Layer 1
10
-64.522003
20
155.020000
70
0
0
VERTEX
8
Layer 1
10
-64.198997
20
155.899000
70
0
0
VERTEX
8
Layer 1
10
-63.969002
20
155.994080
70
0
0
VERTEX
8
Layer 1
10
-63.512001
20
156.183001
70
0
0
VERTEX
8
Layer 1
10
-62.662998
20
155.790001
70
0
0
VERTEX
8
Layer 1
10
-61.883999
20
155.268999
70
0
0
VERTEX
8
Layer 1
10
-61.196999
20
154.632999
70
0
0
VERTEX
8
Layer 1
10
-61.151943
20
154.576000
70
0
0
VERTEX
8
Layer 1
10
-60.616001
20
153.898001
70
0
0
VERTEX
8
Layer 1
10
-60.157001
20
153.082001
70
0
0
VERTEX
8
Layer 1
10
-59.831001
20
152.204000
70
0
0
VERTEX
8
Layer 1
10
-59.645000
20
151.287001
70
0
0
VERTEX
8
Layer 1
10
-59.609650
20
150.480000
70
0
0
VERTEX
8
Layer 1
10
-59.604000
20
150.351000
70
0
0
VERTEX
8
Layer 1
10
-58.908833
20
150.480000
70
0
0
VERTEX
8
Layer 1
10
-58.713737
20
150.516203
70
0
0
VERTEX
8
Layer 1
10
-58.439999
20
150.566999
70
0
0
VERTEX
8
Layer 1
10
-58.009731
20
150.600910
70
0
0
VERTEX
8
Layer 1
10
-57.344002
20
150.653379
70
0
0
VERTEX
8
Layer 1
10
-57.259998
20
150.660000
70
0
0
VERTEX
8
Layer 1
10
-56.077000
20
150.628000
70
0
0
VERTEX
8
Layer 1
10
-56.091133
20
150.752123
70
0
0
VERTEX
8
Layer 1
10
-56.182999
20
151.559000
70
0
0
VERTEX
8
Layer 1
10
-56.143002
20
152.495001
70
0
0
VERTEX
8
Layer 1
10
-55.958000
20
153.413000
70
0
0
VERTEX
8
Layer 1
10
-55.632999
20
154.291000
70
0
0
VERTEX
8
Layer 1
10
-55.472687
20
154.576000
70
0
0
VERTEX
8
Layer 1
10
-55.174000
20
155.107000
70
0
0
VERTEX
8
Layer 1
10
-54.594002
20
155.843000
70
0
0
VERTEX
8
Layer 1
10
-53.907001
20
156.479000
70
0
0
VERTEX
8
Layer 1
10
-53.129002
20
157.000000
70
0
0
VERTEX
8
Layer 1
10
-52.969002
20
156.961662
70
0
0
VERTEX
8
Layer 1
10
-52.407001
20
156.827000
70
0
0
VERTEX
8
Layer 1
10
-51.951000
20
156.009001
70
0
0
VERTEX
8
Layer 1
10
-51.626999
20
155.129999
70
0
0
VERTEX
8
Layer 1
10
-51.516563
20
154.576000
70
0
0
VERTEX
8
Layer 1
10
-51.444000
20
154.212000
70
0
0
VERTEX
8
Layer 1
10
-51.407001
20
153.275999
70
0
0
VERTEX
8
Layer 1
10
-51.514999
20
152.346001
70
0
0
VERTEX
8
Layer 1
10
-51.766998
20
151.444000
70
0
0
VERTEX
8
Layer 1
10
-52.155998
20
150.591999
70
0
0
VERTEX
8
Layer 1
10
-52.230141
20
150.480000
70
0
0
VERTEX
8
Layer 1
10
-52.673000
20
149.811001
70
0
0
VERTEX
8
Layer 1
10
-51.604000
20
149.302000
70
0
0
VERTEX
8
Layer 1
10
-50.595001
20
148.684000
70
0
0
VERTEX
8
Layer 1
10
-49.969002
20
148.202154
70
0
0
VERTEX
8
Layer 1
10
-49.657001
20
147.962000
70
0
0
VERTEX
8
Layer 1
10
-49.595097
20
148.071571
70
0
0
VERTEX
8
Layer 1
10
-49.473160
20
148.287409
70
0
0
VERTEX
8
Layer 1
10
-49.195999
20
148.778000
70
0
0
VERTEX
8
Layer 1
10
-49.152000
20
148.833321
70
0
0
VERTEX
8
Layer 1
10
-48.612999
20
149.511000
70
0
0
VERTEX
8
Layer 1
10
-47.924000
20
150.145000
70
0
0
VERTEX
8
Layer 1
10
-47.144001
20
150.664000
70
0
0
VERTEX
8
Layer 1
10
-46.293999
20
151.055000
70
0
0
VERTEX
8
Layer 1
10
-45.391998
20
151.309000
70
0
0
VERTEX
8
Layer 1
10
-44.462002
20
151.420000
70
0
0
VERTEX
8
Layer 1
10
-43.527000
20
151.385000
70
0
0
VERTEX
8
Layer 1
10
-43.043999
20
150.820000
70
0
0
VERTEX
8
Layer 1
10
-43.155998
20
149.889999
70
0
0
VERTEX
8
Layer 1
10
-43.410000
20
148.989000
70
0
0
VERTEX
8
Layer 1
10
-43.801998
20
148.138000
70
0
0
VERTEX
8
Layer 1
10
-44.321999
20
147.358999
70
0
0
VERTEX
8
Layer 1
10
-44.956001
20
146.670000
70
0
0
VERTEX
8
Layer 1
10
-45.317314
20
146.384001
70
0
0
VERTEX
8
Layer 1
10
-45.689999
20
146.089001
70
0
0
VERTEX
8
Layer 1
10
-46.506001
20
145.628000
70
0
0
VERTEX
8
Layer 1
10
-47.382999
20
145.300000
70
0
0
VERTEX
8
Layer 1
10
-47.313389
20
145.171865
70
0
0
VERTEX
8
Layer 1
10
-47.173637
20
144.914623
70
0
0
VERTEX
8
Layer 1
10
-46.818001
20
144.260000
70
0
0
VERTEX
8
Layer 1
10
-46.365002
20
143.167000
70
0
0
VERTEX
8
Layer 1
10
-46.104786
20
142.288000
70
0
0
VERTEX
8
Layer 1
10
-46.028999
20
142.032000
70
0
0
VERTEX
8
Layer 1
10
-45.466854
20
142.288000
70
0
0
VERTEX
8
Layer 1
10
-45.176998
20
142.420000
70
0
0
VERTEX
8
Layer 1
10
-44.275002
20
142.671000
70
0
0
VERTEX
8
Layer 1
10
-43.345001
20
142.779000
70
0
0
VERTEX
8
Layer 1
10
-42.409000
20
142.740000
70
0
0
VERTEX
8
Layer 1
10
-42.000000
20
142.658467
70
0
0
VERTEX
8
Layer 1
10
-41.491001
20
142.557000
70
0
0
VERTEX
8
Layer 1
10
-40.959999
20
142.361273
70
0
0
VERTEX
8
Layer 1
10
-40.938000
20
142.353164
70
0
0
VERTEX
8
Layer 1
10
-40.612000
20
142.233000
70
0
0
VERTEX
8
Layer 1
10
-39.794998
20
141.776000
70
0
0
VERTEX
8
Layer 1
10
-39.057999
20
141.197000
70
0
0
VERTEX
8
Layer 1
10
-39.000000
20
140.456000
70
0
0
VERTEX
8
Layer 1
10
-39.637001
20
139.770000
70
0
0
VERTEX
8
Layer 1
10
-40.373001
20
139.190000
70
0
0
VERTEX
8
Layer 1
10
-40.938000
20
138.873960
70
0
0
VERTEX
8
Layer 1
10
-40.959999
20
138.861653
70
0
0
VERTEX
8
Layer 1
10
-41.189999
20
138.733000
70
0
0
VERTEX
8
Layer 1
10
-42.000000
20
138.433171
70
0
0
VERTEX
8
Layer 1
10
-42.068001
20
138.408000
70
0
0
VERTEX
8
Layer 1
10
-42.986000
20
138.223000
70
0
0
VERTEX
8
Layer 1
10
-43.730000
20
138.192000
70
0
0
VERTEX
8
Layer 1
10
-43.922001
20
138.184000
70
0
0
VERTEX
8
Layer 1
10
-43.991531
20
138.192000
70
0
0
VERTEX
8
Layer 1
10
-44.852001
20
138.291000
70
0
0
VERTEX
8
Layer 1
10
-45.754002
20
138.542000
70
0
0
VERTEX
8
Layer 1
10
-45.773026
20
138.396967
70
0
0
VERTEX
8
Layer 1
10
-45.799911
20
138.192000
70
0
0
VERTEX
8
Layer 1
10
-45.811287
20
138.105280
70
0
0
VERTEX
8
Layer 1
10
-45.908001
20
137.368000
70
0
0
VERTEX
8
Layer 1
10
-46.183998
20
136.217000
70
0
0
VERTEX
8
Layer 1
10
-46.580002
20
135.101000
70
0
0
VERTEX
8
Layer 1
10
-46.457558
20
135.076191
70
0
0
VERTEX
8
Layer 1
10
-46.215073
20
135.027061
70
0
0
VERTEX
8
Layer 1
10
-45.661999
20
134.915000
70
0
0
VERTEX
8
Layer 1
10
-44.785000
20
134.588000
70
0
0
VERTEX
8
Layer 1
10
-43.969002
20
134.128000
70
0
0
VERTEX
8
Layer 1
10
-43.928574
20
134.096000
70
0
0
VERTEX
8
Layer 1
10
-43.235001
20
133.547000
70
0
0
VERTEX
8
Layer 1
10
-42.599998
20
132.859000
70
0
0
VERTEX
8
Layer 1
10
-42.303051
20
132.415000
70
0
0
VERTEX
8
Layer 1
10
-42.078999
20
132.080000
70
0
0
VERTEX
8
Layer 1
10
-42.000000
20
131.908699
70
0
0
VERTEX
8
Layer 1
10
-41.687000
20
131.230000
70
0
0
VERTEX
8
Layer 1
10
-41.431000
20
130.329000
70
0
0
VERTEX
8
Layer 1
10
-41.632343
20
130.000000
70
0
0
VERTEX
8
Layer 1
10
-41.819000
20
129.695000
70
0
0
VERTEX
8
Layer 1
10
-42.000000
20
129.659351
70
0
0
VERTEX
8
Layer 1
10
-42.737999
20
129.514000
70
0
0
VERTEX
8
Layer 1
10
-43.674000
20
129.478000
70
0
0
VERTEX
8
Layer 1
10
-44.604000
20
129.588000
70
0
0
VERTEX
8
Layer 1
10
-45.505001
20
129.841000
70
0
0
VERTEX
8
Layer 1
10
-45.851467
20
130.000000
70
0
0
VERTEX
8
Layer 1
10
-46.356998
20
130.232000
70
0
0
VERTEX
8
Layer 1
10
-47.137001
20
130.750000
70
0
0
VERTEX
8
Layer 1
10
-47.826000
20
131.383000
70
0
0
VERTEX
8
Layer 1
10
-48.409000
20
132.116000
70
0
0
VERTEX
8
Layer 1
10
-48.509056
20
132.010540
70
0
0
VERTEX
8
Layer 1
10
-48.712395
20
131.796224
70
0
0
VERTEX
8
Layer 1
10
-49.031837
20
131.459537
70
0
0
VERTEX
8
Layer 1
10
-49.152000
20
131.332887
70
0
0
VERTEX
8
Layer 1
10
-49.223999
20
131.257000
70
0
0
VERTEX
8
Layer 1
10
-50.124001
20
130.489000
70
0
0
VERTEX
8
Layer 1
10
-50.835606
20
130.000000
70
0
0
VERTEX
8
Layer 1
10
-51.098999
20
129.819000
70
0
0
VERTEX
8
Layer 1
10
-50.466999
20
129.128000
70
0
0
VERTEX
8
Layer 1
10
-49.949001
20
128.348000
70
0
0
VERTEX
8
Layer 1
10
-49.558998
20
127.497000
70
0
0
VERTEX
8
Layer 1
10
-49.306000
20
126.595000
70
0
0
VERTEX
8
Layer 1
10
-49.196999
20
125.665000
70
0
0
VERTEX
8
Layer 1
10
-49.234001
20
124.729000
70
0
0
VERTEX
8
Layer 1
10
-49.416000
20
123.810000
70
0
0
VERTEX
8
Layer 1
10
-49.738998
20
122.931000
70
0
0
VERTEX
8
Layer 1
10
-50.424999
20
122.647000
70
0
0
VERTEX
8
Layer 1
10
-51.275002
20
123.040000
70
0
0
VERTEX
8
Layer 1
10
-52.053001
20
123.561000
70
0
0
VERTEX
8
Layer 1
10
-52.741001
20
124.197000
70
0
0
VERTEX
8
Layer 1
10
-52.969002
20
124.485434
70
0
0
VERTEX
8
Layer 1
10
-53.248001
20
124.838386
70
0
0
VERTEX
8
Layer 1
10
-53.321999
20
124.932000
70
0
0
VERTEX
8
Layer 1
10
-53.780998
20
125.748000
70
0
0
VERTEX
8
Layer 1
10
-54.106998
20
126.626000
70
0
0
VERTEX
8
Layer 1
10
-54.292999
20
127.544000
70
0
0
VERTEX
8
Layer 1
10
-54.334000
20
128.479000
70
0
0
VERTEX
8
Layer 1
10
-54.477062
20
128.452430
70
0
0
VERTEX
8
Layer 1
10
-54.765274
20
128.398901
70
0
0
VERTEX
8
Layer 1
10
-55.224190
20
128.313668
70
0
0
VERTEX
8
Layer 1
10
-55.497002
20
128.263000
70
0
0
VERTEX
8
Layer 1
10
-55.928211
20
128.229015
70
0
0
VERTEX
8
Layer 1
10
-56.676998
20
128.170000
70
0
0
VERTEX
8
Layer 1
10
-57.344002
20
128.188042
70
0
0
VERTEX
8
Layer 1
10
-57.860001
20
128.202000
70
0
0
VERTEX
8
Layer 1
10
-57.754002
20
127.271000
70
0
0
VERTEX
8
Layer 1
10
-57.793999
20
126.336000
70
0
0
VERTEX
8
Layer 1
10
-57.979000
20
125.418000
70
0
0
VERTEX
8
Layer 1
10
-58.305000
20
124.540000
70
0
0
VERTEX
8
Layer 1
10
-58.763000
20
123.723000
70
0
0
VERTEX
8
Layer 1
10
-59.342999
20
122.987000
70
0
0
VERTEX
8
Layer 1
10
-60.029999
20
122.351000
70
0
0
VERTEX
8
Layer 1
10
-60.807999
20
121.830000
70
0
0
VERTEX
8
Layer 1
10
-61.439999
20
121.981225
70
0
0
VERTEX
8
Layer 1
10
-61.530998
20
122.003000
70
0
0
VERTEX
8
Layer 1
10
-61.987000
20
122.821000
70
0
0
VERTEX
8
Layer 1
10
-62.310001
20
123.700000
70
0
0
VERTEX
8
Layer 1
10
-62.493000
20
124.618000
70
0
0
VERTEX
8
Layer 1
10
-62.530998
20
125.554000
70
0
0
VERTEX
8
Layer 1
10
-62.422001
20
126.484000
70
0
0
VERTEX
8
Layer 1
10
-62.171001
20
127.386000
70
0
0
VERTEX
8
Layer 1
10
-61.780998
20
128.238000
70
0
0
VERTEX
8
Layer 1
10
-61.439999
20
128.754126
70
0
0
VERTEX
8
Layer 1
10
-61.264999
20
129.019000
70
0
0
VERTEX
8
Layer 1
10
-61.439999
20
129.102404
70
0
0
VERTEX
8
Layer 1
10
-61.663708
20
129.209021
70
0
0
VERTEX
8
Layer 1
10
-62.079395
20
129.407134
70
0
0
VERTEX
8
Layer 1
10
-62.333000
20
129.528000
70
0
0
VERTEX
8
Layer 1
10
-62.701515
20
129.754077
70
0
0
VERTEX
8
Layer 1
10
-63.102383
20
130.000000
70
0
0
VERTEX
8
Layer 1
10
-63.341999
20
130.147000
70
0
0
VERTEX
8
Layer 1
10
-63.969002
20
130.628434
70
0
0
VERTEX
8
Layer 1
10
-64.280998
20
130.868000
70
0
0
VERTEX
8
Layer 1
10
-64.341812
20
130.760362
70
0
0
VERTEX
8
Layer 1
10
-64.741997
20
130.052000
70
0
0
VERTEX
8
Layer 1
10
-64.783287
20
130.000000
70
0
0
VERTEX
8
Layer 1
10
-65.323997
20
129.319000
70
0
0
VERTEX
8
Layer 1
10
-65.512703
20
129.145613
70
0
0
VERTEX
8
Layer 1
10
-65.536003
20
129.124206
70
0
0
VERTEX
8
Layer 1
10
-66.014000
20
128.685000
70
0
0
VERTEX
8
Layer 1
10
-66.792999
20
128.166000
70
0
0
VERTEX
8
Layer 1
10
-66.969002
20
128.085135
70
0
0
VERTEX
8
Layer 1
10
-67.643997
20
127.775000
70
0
0
VERTEX
8
Layer 1
10
-68.544998
20
127.521000
70
0
0
VERTEX
8
Layer 1
10
-69.474998
20
127.410000
70
0
0
VERTEX
8
Layer 1
10
-70.411003
20
127.445000
70
0
0
VERTEX
8
Layer 1
10
-70.892998
20
128.010000
70
0
0
VERTEX
8
Layer 1
10
-70.781998
20
128.940000
70
0
0
VERTEX
8
Layer 1
10
-70.527000
20
129.841000
70
0
0
VERTEX
8
Layer 1
10
-70.453758
20
130.000000
70
0
0
VERTEX
8
Layer 1
10
-70.135002
20
130.692000
70
0
0
VERTEX
8
Layer 1
10
-69.615997
20
131.471000
70
0
0
VERTEX
8
Layer 1
10
-68.981003
20
132.160000
70
0
0
VERTEX
8
Layer 1
10
-68.247002
20
132.742000
70
0
0
VERTEX
8
Layer 1
10
-67.431999
20
133.202000
70
0
0
VERTEX
8
Layer 1
10
-66.969002
20
133.375163
70
0
0
VERTEX
8
Layer 1
10
-66.555000
20
133.530000
70
0
0
VERTEX
8
Layer 1
10
-66.624435
20
133.657805
70
0
0
VERTEX
8
Layer 1
10
-66.765213
20
133.916934
70
0
0
VERTEX
8
Layer 1
10
-66.862488
20
134.096000
70
0
0
VERTEX
8
Layer 1
10
-66.969002
20
134.292053
70
0
0
VERTEX
8
Layer 1
10
-67.120003
20
134.570000
70
0
0
VERTEX
8
Layer 1
10
-67.572998
20
135.663000
70
0
0
VERTEX
8
Layer 1
10
-67.907997
20
136.798000
70
0
0
VERTEX
8
Layer 1
10
-68.021927
20
136.746178
70
0
0
VERTEX
8
Layer 1
10
-68.246704
20
136.643935
70
0
0
VERTEX
8
Layer 1
10
-68.761002
20
136.410000
70
0
0
VERTEX
8
Layer 1
10
-69.663002
20
136.159000
70
0
0
VERTEX
8
Layer 1
10
-70.593002
20
136.051000
70
0
0
VERTEX
8
Layer 1
10
-71.528999
20
136.090000
70
0
0
VERTEX
8
Layer 1
10
-72.446999
20
136.273000
70
0
0
VERTEX
8
Layer 1
10
-73.325996
20
136.597000
70
0
0
VERTEX
8
Layer 1
10
-73.727997
20
136.821864
70
0
0
VERTEX
8
Layer 1
10
-74.142998
20
137.054000
70
0
0
VERTEX
8
Layer 1
10
-74.878998
20
137.633000
70
0
0
VERTEX
8
Layer 1
10
-74.923508
20
138.192000
70
0
0
VERTEX
8
Layer 1
10
-74.938004
20
138.374000
70
0
0
VERTEX
8
Layer 1
10
-74.301003
20
139.061000
70
0
0
VERTEX
8
Layer 1
10
-73.727997
20
139.511770
70
0
0
VERTEX
8
Layer 1
10
-73.565002
20
139.640000
70
0
0
VERTEX
8
Layer 1
10
-72.748001
20
140.097000
70
0
0
VERTEX
8
Layer 1
10
-71.870003
20
140.422000
70
0
0
VERTEX
8
Layer 1
10
-70.952003
20
140.607000
70
0
0
VERTEX
8
Layer 1
10
-70.015999
20
140.646000
70
0
0
VERTEX
8
Layer 1
10
-69.085999
20
140.539000
70
0
0
VERTEX
8
Layer 1
10
-68.182999
20
140.289000
70
0
0
VERTEX
8
Layer 1
10
-68.164101
20
140.432932
70
0
0
VERTEX
8
Layer 1
10
-68.125793
20
140.724759
70
0
0
VERTEX
8
Layer 1
10
-68.064865
20
141.188830
70
0
0
VERTEX
8
Layer 1
10
-68.028999
20
141.462000
70
0
0
VERTEX
8
Layer 1
10
-67.928535
20
141.880971
70
0
0
VERTEX
8
Layer 1
10
-67.830933
20
142.288000
70
0
0
VERTEX
8
Layer 1
10
-67.752998
20
142.613000
70
0
0
VERTEX
8
Layer 1
10
-67.357002
20
143.729000
70
0
0
VERTEX
8
Layer 1
10
-67.479446
20
143.753809
70
0
0
VERTEX
8
Layer 1
10
-68.275002
20
143.915000
70
0
0
VERTEX
8
Layer 1
10
-69.153000
20
144.242000
70
0
0
VERTEX
8
Layer 1
10
-69.968002
20
144.702000
70
0
0
VERTEX
8
Layer 1
10
-70.703003
20
145.283000
70
0
0
VERTEX
8
Layer 1
10
-71.337997
20
145.972000
70
0
0
VERTEX
8
Layer 1
10
-71.613373
20
146.384001
70
0
0
VERTEX
8
Layer 1
10
-71.858002
20
146.750000
70
0
0
VERTEX
8
Layer 1
10
-72.250999
20
147.600000
70
0
0
VERTEX
8
Layer 1
10
-72.505997
20
148.500999
70
0
0
VERTEX
8
Layer 1
10
-72.117996
20
149.135000
70
0
0
VERTEX
8
Layer 1
10
-71.199997
20
149.316000
70
0
0
VERTEX
8
Layer 1
10
-70.264000
20
149.351999
70
0
0
VERTEX
8
Layer 1
10
-69.334000
20
149.242001
70
0
0
VERTEX
8
Layer 1
10
-68.431999
20
148.989000
70
0
0
VERTEX
8
Layer 1
10
-67.581001
20
148.598000
70
0
0
SEQEND
8
Layer 1
0
POLYLINE
8
Layer 1
62
10
70
0
10
0.000000
20
0.000000
66
1
0
VERTEX
8
Layer 1
10
-41.132999
20
66.174999
70
0
0
VERTEX
8
Layer 1
10
-39.989185
20
64.463997
70
0
0
VERTEX
8
Layer 1
10
-39.679001
20
64.000000
70
0
0
VERTEX
8
Layer 1
10
-38.521999
20
61.653999
70
0
0
VERTEX
8
Layer 1
10
-37.681000
20
59.176003
70
0
0
VERTEX
8
Layer 1
10
-37.171001
20
56.611000
70
0
0
VERTEX
8
Layer 1
10
-37.000000
20
54.000000
70
0
0
VERTEX
8
Layer 1
10
-37.171001
20
51.389000
70
0
0
VERTEX
8
Layer 1
10
-37.681000
20
48.823997
70
0
0
VERTEX
8
Layer 1
10
-37.933502
20
48.080002
70
0
0
VERTEX
8
Layer 1
10
-38.521999
20
46.346001
70
0
0
VERTEX
8
Layer 1
10
-39.679001
20
44.000000
70
0
0
VERTEX
8
Layer 1
10
-41.132999
20
41.824997
70
0
0
VERTEX
8
Layer 1
10
-42.858002
20
39.858002
70
0
0
VERTEX
8
Layer 1
10
-44.825001
20
38.133003
70
0
0
VERTEX
8
Layer 1
10
-47.000000
20
36.679001
70
0
0
VERTEX
8
Layer 1
10
-49.346001
20
35.522003
70
0
0
VERTEX
8
Layer 1
10
-51.824001
20
34.681000
70
0
0
VERTEX
8
Layer 1
10
-54.389000
20
34.170998
70
0
0
VERTEX
8
Layer 1
10
-57.000000
20
34.000000
70
0
0
VERTEX
8
Layer 1
10
-59.611000
20
34.170998
70
0
0
VERTEX
8
Layer 1
10
-62.175999
20
34.681000
70
0
0
VERTEX
8
Layer 1
10
-64.653999
20
35.522003
70
0
0
VERTEX
8
Layer 1
10
-65.536003
20
35.956985
70
0
0
VERTEX
8
Layer 1
10
-67.000000
20
36.679001
70
0
0
VERTEX
8
Layer 1
10
-69.175003
20
38.133003
70
0
0
VERTEX
8
Layer 1
10
-71.141998
20
39.858002
70
0
0
VERTEX
8
Layer 1
10
-72.866997
20
41.824997
70
0
0
VERTEX
8
Layer 1
10
-74.320999
20
44.000000
70
0
0
VERTEX
8
Layer 1
10
-75.477997
20
46.346001
70
0
0
VERTEX
8
Layer 1
10
-76.319000
20
48.823997
70
0
0
VERTEX
8
Layer 1
10
-76.829002
20
51.389000
70
0
0
VERTEX
8
Layer 1
10
-77.000000
20
54.000000
70
0
0
VERTEX
8
Layer 1
10
-76.829002
20
56.611000
70
0
0
VERTEX
8
Layer 1
10
-76.319000
20
59.176003
70
0
0
VERTEX
8
Layer 1
10
-75.477997
20
61.653999
70
0
0
VERTEX
8
Layer 1
10
-74.320999
20
64.000000
70
0
0
VERTEX
8
Layer 1
10
-74.010811
20
64.463997
70
0
0
VERTEX
8
Layer 1
10
-72.866997
20
66.174999
70
0
0
VERTEX
8
Layer 1
10
-71.141998
20
68.141998
70
0
0
VERTEX
8
Layer 1
10
-69.175003
20
69.867001
70
0
0
VERTEX
8
Layer 1
10
-67.000000
20
71.320999
70
0
0
VERTEX
8
Layer 1
10
-64.653999
20
72.478001
70
0
0
VERTEX
8
Layer 1
10
-62.175999
20
73.319000
70
0
0
VERTEX
8
Layer 1
10
-59.611000
20
73.828999
70
0
0
VERTEX
8
Layer 1
10
-57.000000
20
74.000000
70
0
0
VERTEX
8
Layer 1
10
-54.389000
20
73.828999
70
0
0
VERTEX
8
Layer 1
10
-51.824001
20
73.319000
70
0
0
VERTEX
8
Layer 1
10
-49.346001
20
72.478001
70
0
0
VERTEX
8
Layer 1
10
-47.000000
20
71.320999
70
0
0
VERTEX
8
Layer 1
10
-44.825001
20
69.867001
70
0
0
VERTEX
8
Layer 1
10
-42.858002
20
68.141998
70
0
0
VERTEX
8
Layer 1
10
-41.132999
20
66.174999
70
0
0
SEQEND
8
Layer 1
0
POLYLINE
8
Layer 1
62
10
70
0
10
0.000000
20
0.000000
66
1
0
VERTEX
8
Layer 1
10
48.500000
20
92.009998
70
0
0
VERTEX
8
Layer 1
10
47.000000
20
93.012451
70
0
0
VERTEX
8
Layer 1
10
46.868999
20
93.099998
70
0
0
VERTEX
8
Layer 1
10
45.393002
20
94.393002
70
0
0
VERTEX
8
Layer 1
10
44.099998
20
95.868999
70
0
0
VERTEX
8
Layer 1
10
43.189106
20
97.231998
70
0
0
VERTEX
8
Layer 1
10
43.009998
20
97.500000
70
0
0
VERTEX
8
Layer 1
10
42.141998
20
99.260000
70
0
0
VERTEX
8
Layer 1
10
41.511002
20
101.118000
70
0
0
VERTEX
8
Layer 1
10
41.127998
20
103.042000
70
0
0
VERTEX
8
Layer 1
10
41.000000
20
105.000000
70
0
0
VERTEX
8
Layer 1
10
41.127998
20
106.958000
70
0
0
VERTEX
8
Layer 1
10
41.511002
20
108.882000
70
0
0
VERTEX
8
Layer 1
10
42.141998
20
110.740000
70
0
0
VERTEX
8
Layer 1
10
43.009998
20
112.500000
70
0
0
VERTEX
8
Layer 1
10
44.099998
20
114.131000
70
0
0
VERTEX
8
Layer 1
10
45.393002
20
115.607000
70
0
0
VERTEX
8
Layer 1
10
46.868999
20
116.900000
70
0
0
VERTEX
8
Layer 1
10
47.000000
20
116.987548
70
0
0
VERTEX
8
Layer 1
10
48.500000
20
117.990000
70
0
0
VERTEX
8
Layer 1
10
49.000000
20
118.236591
70
0
0
VERTEX
8
Layer 1
10
49.152000
20
118.311555
70
0
0
VERTEX
8
Layer 1
10
50.259998
20
118.858000
70
0
0
VERTEX
8
Layer 1
10
52.118000
20
119.489000
70
0
0
VERTEX
8
Layer 1
10
54.042000
20
119.872000
70
0
0
VERTEX
8
Layer 1
10
56.000000
20
120.000000
70
0
0
VERTEX
8
Layer 1
10
57.000000
20
119.934628
70
0
0
VERTEX
8
Layer 1
10
57.958000
20
119.872000
70
0
0
VERTEX
8
Layer 1
10
59.882000
20
119.489000
70
0
0
VERTEX
8
Layer 1
10
61.740002
20
118.858000
70
0
0
VERTEX
8
Layer 1
10
63.500000
20
117.990000
70
0
0
VERTEX
8
Layer 1
10
65.130997
20
116.900000
70
0
0
VERTEX
8
Layer 1
10
65.536003
20
116.545214
70
0
0
VERTEX
8
Layer 1
10
66.607002
20
115.607000
70
0
0
VERTEX
8
Layer 1
10
67.900002
20
114.131000
70
0
0
VERTEX
8
Layer 1
10
68.989998
20
112.500000
70
0
0
VERTEX
8
Layer 1
10
69.858002
20
110.740000
70
0
0
VERTEX
8
Layer 1
10
70.488998
20
108.882000
70
0
0
VERTEX
8
Layer 1
10
70.872002
20
106.958000
70
0
0
VERTEX
8
Layer 1
10
71.000000
20
105.000000
70
0
0
VERTEX
8
Layer 1
10
70.872002
20
103.042000
70
0
0
VERTEX
8
Layer 1
10
70.488998
20
101.118000
70
0
0
VERTEX
8
Layer 1
10
69.858002
20
99.260000
70
0
0
VERTEX
8
Layer 1
10
68.989998
20
97.500000
70
0
0
VERTEX
8
Layer 1
10
68.810898
20
97.231998
70
0
0
VERTEX
8
Layer 1
10
67.900002
20
95.868999
70
0
0
VERTEX
8
Layer 1
10
66.607002
20
94.393002
70
0
0
VERTEX
8
Layer 1
10
65.130997
20
93.099998
70
0
0
VERTEX
8
Layer 1
10
63.500000
20
92.009998
70
0
0
VERTEX
8
Layer 1
10
61.740002
20
91.141998
70
0
0
VERTEX
8
Layer 1
10
59.882000
20
90.511002
70
0
0
VERTEX
8
Layer 1
10
57.958000
20
90.127998
70
0
0
VERTEX
8
Layer 1
10
57.000000
20
90.065372
70
0
0
VERTEX
8
Layer 1
10
56.000000
20
90.000000
70
0
0
VERTEX
8
Layer 1
10
54.042000
20
90.127998
70
0
0
VERTEX
8
Layer 1
10
52.118000
20
90.511002
70
0
0
VERTEX
8
Layer 1
10
50.259998
20
91.141998
70
0
0
VERTEX
8
Layer 1
10
49.000000
20
91.763409
70
0
0
VERTEX
8
Layer 1
10
48.500000
20
92.009998
70
0
0
SEQEND
8
Layer 1
0
POLYLINE
8
Layer 1
62
10
70
0
10
0.000000
20
0.000000
66
1
0
VERTEX
8
Layer 1
10
56.321999
20
75.678001
70
0
0
VERTEX
8
Layer 1
10
57.000000
20
76.272457
70
0
0
VERTEX
8
Layer 1
10
58.780998
20
77.834000
70
0
0
VERTEX
8
Layer 1
10
61.500000
20
79.651001
70
0
0
VERTEX
8
Layer 1
10
64.432999
20
81.097000
70
0
0
VERTEX
8
Layer 1
10
65.536003
20
81.471313
70
0
0
VERTEX
8
Layer 1
10
67.529999
20
82.147999
70
0
0
VERTEX
8
Layer 1
10
70.737000
20
82.785999
70
0
0
VERTEX
8
Layer 1
10
73.000000
20
82.934418
70
0
0
VERTEX
8
Layer 1
10
74.000000
20
83.000000
70
0
0
VERTEX
8
Layer 1
10
77.263000
20
82.785999
70
0
0
VERTEX
8
Layer 1
10
80.470001
20
82.147999
70
0
0
VERTEX
8
Layer 1
10
83.567001
20
81.097000
70
0
0
VERTEX
8
Layer 1
10
86.500000
20
79.651001
70
0
0
VERTEX
8
Layer 1
10
89.219002
20
77.834000
70
0
0
VERTEX
8
Layer 1
10
91.678001
20
75.678001
70
0
0
VERTEX
8
Layer 1
10
93.834000
20
73.219002
70
0
0
VERTEX
8
Layer 1
10
95.651001
20
70.500000
70
0
0
VERTEX
8
Layer 1
10
97.097000
20
67.567001
70
0
0
VERTEX
8
Layer 1
10
98.148003
20
64.470001
70
0
0
VERTEX
8
Layer 1
10
98.149193
20
64.463997
70
0
0
VERTEX
8
Layer 1
10
98.304001
20
63.685844
70
0
0
VERTEX
8
Layer 1
10
98.786003
20
61.263000
70
0
0
VERTEX
8
Layer 1
10
99.000000
20
58.000000
70
0
0
VERTEX
8
Layer 1
10
98.786003
20
54.737000
70
0
0
VERTEX
8
Layer 1
10
98.304001
20
52.314156
70
0
0
VERTEX
8
Layer 1
10
98.148003
20
51.529999
70
0
0
VERTEX
8
Layer 1
10
97.097000
20
48.432999
70
0
0
VERTEX
8
Layer 1
10
95.651001
20
45.500000
70
0
0
VERTEX
8
Layer 1
10
93.834000
20
42.780998
70
0
0
VERTEX
8
Layer 1
10
91.678001
20
40.321999
70
0
0
VERTEX
8
Layer 1
10
89.219002
20
38.166000
70
0
0
VERTEX
8
Layer 1
10
86.500000
20
36.348999
70
0
0
VERTEX
8
Layer 1
10
83.567001
20
34.903000
70
0
0
VERTEX
8
Layer 1
10
80.470001
20
33.851997
70
0
0
VERTEX
8
Layer 1
10
77.263000
20
33.213997
70
0
0
VERTEX
8
Layer 1
10
74.000000
20
33.000000
70
0
0
VERTEX
8
Layer 1
10
73.000000
20
33.065582
70
0
0
VERTEX
8
Layer 1
10
70.737000
20
33.213997
70
0
0
VERTEX
8
Layer 1
10
67.529999
20
33.851997
70
0
0
VERTEX
8
Layer 1
10
65.536003
20
34.528687
70
0
0
VERTEX
8
Layer 1
10
64.432999
20
34.903000
70
0
0
VERTEX
8
Layer 1
10
61.500000
20
36.348999
70
0
0
VERTEX
8
Layer 1
10
58.780998
20
38.166000
70
0
0
VERTEX
8
Layer 1
10
57.000000
20
39.727547
70
0
0
VERTEX
8
Layer 1
10
56.321999
20
40.321999
70
0
0
VERTEX
8
Layer 1
10
54.166000
20
42.780998
70
0
0
VERTEX
8
Layer 1
10
52.348999
20
45.500000
70
0
0
VERTEX
8
Layer 1
10
50.903000
20
48.432999
70
0
0
VERTEX
8
Layer 1
10
49.852001
20
51.529999
70
0
0
VERTEX
8
Layer 1
10
49.214001
20
54.737000
70
0
0
VERTEX
8
Layer 1
10
49.000000
20
58.000000
70
0
0
VERTEX
8
Layer 1
10
49.214001
20
61.263000
70
0
0
VERTEX
8
Layer 1
10
49.850807
20
64.463997
70
0
0
VERTEX
8
Layer 1
10
49.852001
20
64.470001
70
0
0
VERTEX
8
Layer 1
10
50.903000
20
67.567001
70
0
0
VERTEX
8
Layer 1
10
52.348999
20
70.500000
70
0
0
VERTEX
8
Layer 1
10
54.166000
20
73.219002
70
0
0
VERTEX
8
Layer 1
10
56.321999
20
75.678001
70
0
0
SEQEND
8
Layer 1
0
POLYLINE
8
Layer 1
62
10
70
0
10
0.000000
20
0.000000
66
1
0
VERTEX
8
Layer 1
10
55.914001
20
135.305000
70
0
0
VERTEX
8
Layer 1
10
56.000000
20
134.000000
70
0
0
VERTEX
8
Layer 1
10
55.914001
20
132.695000
70
0
0
VERTEX
8
Layer 1
10
55.659000
20
131.412000
70
0
0
VERTEX
8
Layer 1
10
55.238998
20
130.173000
70
0
0
VERTEX
8
Layer 1
10
55.153606
20
130.000000
70
0
0
VERTEX
8
Layer 1
10
54.660000
20
129.000000
70
0
0
VERTEX
8
Layer 1
10
53.933998
20
127.912000
70
0
0
VERTEX
8
Layer 1
10
53.070999
20
126.929000
70
0
0
VERTEX
8
Layer 1
10
52.088001
20
126.066000
70
0
0
VERTEX
8
Layer 1
10
51.000000
20
125.340000
70
0
0
VERTEX
8
Layer 1
10
49.827000
20
124.761000
70
0
0
VERTEX
8
Layer 1
10
49.152000
20
124.532187
70
0
0
VERTEX
8
Layer 1
10
48.588001
20
124.341000
70
0
0
VERTEX
8
Layer 1
10
47.305000
20
124.086000
70
0
0
VERTEX
8
Layer 1
10
46.000000
20
124.000000
70
0
0
VERTEX
8
Layer 1
10
44.695000
20
124.086000
70
0
0
VERTEX
8
Layer 1
10
43.411999
20
124.341000
70
0
0
VERTEX
8
Layer 1
10
42.173000
20
124.761000
70
0
0
VERTEX
8
Layer 1
10
41.000000
20
125.340000
70
0
0
VERTEX
8
Layer 1
10
39.911999
20
126.066000
70
0
0
VERTEX
8
Layer 1
10
38.929001
20
126.929000
70
0
0
VERTEX
8
Layer 1
10
38.066002
20
127.912000
70
0
0
VERTEX
8
Layer 1
10
37.340000
20
129.000000
70
0
0
VERTEX
8
Layer 1
10
36.846394
20
130.000000
70
0
0
VERTEX
8
Layer 1
10
36.761002
20
130.173000
70
0
0
VERTEX
8
Layer 1
10
36.341000
20
131.412000
70
0
0
VERTEX
8
Layer 1
10
36.085999
20
132.695000
70
0
0
VERTEX
8
Layer 1
10
36.000000
20
134.000000
70
0
0
VERTEX
8
Layer 1
10
36.085999
20
135.305000
70
0
0
VERTEX
8
Layer 1
10
36.341000
20
136.588000
70
0
0
VERTEX
8
Layer 1
10
36.761002
20
137.827000
70
0
0
VERTEX
8
Layer 1
10
36.941166
20
138.192000
70
0
0
VERTEX
8
Layer 1
10
37.340000
20
139.000000
70
0
0
VERTEX
8
Layer 1
10
38.066002
20
140.088000
70
0
0
VERTEX
8
Layer 1
10
38.929001
20
141.071000
70
0
0
VERTEX
8
Layer 1
10
39.911999
20
141.934000
70
0
0
VERTEX
8
Layer 1
10
41.000000
20
142.660000
70
0
0
VERTEX
8
Layer 1
10
42.173000
20
143.239000
70
0
0
VERTEX
8
Layer 1
10
43.411999
20
143.659000
70
0
0
VERTEX
8
Layer 1
10
44.695000
20
143.914000
70
0
0
VERTEX
8
Layer 1
10
46.000000
20
144.000000
70
0
0
VERTEX
8
Layer 1
10
47.305000
20
143.914000
70
0
0
VERTEX
8
Layer 1
10
48.588001
20
143.659000
70
0
0
VERTEX
8
Layer 1
10
49.152000
20
143.467813
70
0
0
VERTEX
8
Layer 1
10
49.827000
20
143.239000
70
0
0
VERTEX
8
Layer 1
10
51.000000
20
142.660000
70
0
0
VERTEX
8
Layer 1
10
52.088001
20
141.934000
70
0
0
VERTEX
8
Layer 1
10
53.070999
20
141.071000
70
0
0
VERTEX
8
Layer 1
10
53.933998
20
140.088000
70
0
0
VERTEX
8
Layer 1
10
54.660000
20
139.000000
70
0
0
VERTEX
8
Layer 1
10
55.238998
20
137.827000
70
0
0
VERTEX
8
Layer 1
10
55.659000
20
136.588000
70
0
0
VERTEX
8
Layer 1
10
55.914001
20
135.305000
70
0
0
SEQEND
8
Layer 1
0
POLYLINE
8
Layer 1
62
10
70
0
10
0.000000
20
0.000000
66
1
0
VERTEX
8
Layer 1
10
133.470001
20
29.851997
70
0
0
VERTEX
8
Layer 1
10
131.072006
20
29.374939
70
0
0
VERTEX
8
Layer 1
10
130.263000
20
29.213997
70
0
0
VERTEX
8
Layer 1
10
127.000000
20
29.000000
70
0
0
VERTEX
8
Layer 1
10
123.737000
20
29.213997
70
0
0
VERTEX
8
Layer 1
10
120.529999
20
29.851997
70
0
0
VERTEX
8
Layer 1
10
117.432999
20
30.903000
70
0
0
VERTEX
8
Layer 1
10
115.824516
20
31.695999
70
0
0
VERTEX
8
Layer 1
10
114.500000
20
32.348999
70
0
0
VERTEX
8
Layer 1
10
113.525826
20
33.000000
70
0
0
VERTEX
8
Layer 1
10
111.780998
20
34.166000
70
0
0
VERTEX
8
Layer 1
10
109.321999
20
36.321999
70
0
0
VERTEX
8
Layer 1
10
107.166000
20
38.780998
70
0
0
VERTEX
8
Layer 1
10
105.348999
20
41.500000
70
0
0
VERTEX
8
Layer 1
10
104.000000
20
44.236252
70
0
0
VERTEX
8
Layer 1
10
103.903000
20
44.432999
70
0
0
VERTEX
8
Layer 1
10
102.851997
20
47.529999
70
0
0
VERTEX
8
Layer 1
10
102.213997
20
50.737000
70
0
0
VERTEX
8
Layer 1
10
102.000000
20
54.000000
70
0
0
VERTEX
8
Layer 1
10
102.213997
20
57.263000
70
0
0
VERTEX
8
Layer 1
10
102.851997
20
60.470001
70
0
0
VERTEX
8
Layer 1
10
103.903000
20
63.567001
70
0
0
VERTEX
8
Layer 1
10
104.000000
20
63.763748
70
0
0
VERTEX
8
Layer 1
10
104.345230
20
64.463997
70
0
0
VERTEX
8
Layer 1
10
105.348999
20
66.500000
70
0
0
VERTEX
8
Layer 1
10
107.166000
20
69.219002
70
0
0
VERTEX
8
Layer 1
10
109.321999
20
71.678001
70
0
0
VERTEX
8
Layer 1
10
111.780998
20
73.834000
70
0
0
VERTEX
8
Layer 1
10
114.500000
20
75.651001
70
0
0
VERTEX
8
Layer 1
10
117.432999
20
77.097000
70
0
0
VERTEX
8
Layer 1
10
120.529999
20
78.147999
70
0
0
VERTEX
8
Layer 1
10
123.737000
20
78.785999
70
0
0
VERTEX
8
Layer 1
10
127.000000
20
79.000000
70
0
0
VERTEX
8
Layer 1
10
130.263000
20
78.785999
70
0
0
VERTEX
8
Layer 1
10
131.072006
20
78.625057
70
0
0
VERTEX
8
Layer 1
10
133.470001
20
78.147999
70
0
0
VERTEX
8
Layer 1
10
136.567001
20
77.097000
70
0
0
VERTEX
8
Layer 1
10
139.500000
20
75.651001
70
0
0
VERTEX
8
Layer 1
10
142.218994
20
73.834000
70
0
0
VERTEX
8
Layer 1
10
144.677994
20
71.678001
70
0
0
VERTEX
8
Layer 1
10
146.834000
20
69.219002
70
0
0
VERTEX
8
Layer 1
10
148.651001
20
66.500000
70
0
0
VERTEX
8
Layer 1
10
149.654770
20
64.463997
70
0
0
VERTEX
8
Layer 1
10
150.097000
20
63.567001
70
0
0
VERTEX
8
Layer 1
10
151.147995
20
60.470001
70
0
0
VERTEX
8
Layer 1
10
151.785995
20
57.263000
70
0
0
VERTEX
8
Layer 1
10
152.000000
20
54.000000
70
0
0
VERTEX
8
Layer 1
10
151.785995
20
50.737000
70
0
0
VERTEX
8
Layer 1
10
151.147995
20
47.529999
70
0
0
VERTEX
8
Layer 1
10
150.097000
20
44.432999
70
0
0
VERTEX
8
Layer 1
10
148.651001
20
41.500000
70
0
0
VERTEX
8
Layer 1
10
146.834000
20
38.780998
70
0
0
VERTEX
8
Layer 1
10
144.677994
20
36.321999
70
0
0
VERTEX
8
Layer 1
10
142.218994
20
34.166000
70
0
0
VERTEX
8
Layer 1
10
140.474167
20
33.000000
70
0
0
VERTEX
8
Layer 1
10
139.500000
20
32.348999
70
0
0
VERTEX
8
Layer 1
10
136.567001
20
30.903000
70
0
0
VERTEX
8
Layer 1
10
133.470001
20
29.851997
70
0
0
SEQEND
8
Layer 1
0
POLYLINE
8
Layer 1
62
10
70
0
10
0.000000
20
0.000000
66
1
0
VERTEX
8
Layer 1
10
119.000000
20
82.000000
70
0
0
VERTEX
8
Layer 1
10
117.042000
20
82.127998
70
0
0
VERTEX
8
Layer 1
10
115.117996
20
82.511002
70
0
0
VERTEX
8
Layer 1
10
114.688004
20
82.657032
70
0
0
VERTEX
8
Layer 1
10
113.260002
20
83.141998
70
0
0
VERTEX
8
Layer 1
10
111.500000
20
84.009998
70
0
0
VERTEX
8
Layer 1
10
109.869003
20
85.099998
70
0
0
VERTEX
8
Layer 1
10
108.392998
20
86.393002
70
0
0
VERTEX
8
Layer 1
10
107.099998
20
87.868999
70
0
0
VERTEX
8
Layer 1
10
106.344154
20
89.000000
70
0
0
VERTEX
8
Layer 1
10
106.010002
20
89.500000
70
0
0
VERTEX
8
Layer 1
10
105.141998
20
91.259998
70
0
0
VERTEX
8
Layer 1
10
104.511002
20
93.118000
70
0
0
VERTEX
8
Layer 1
10
104.127998
20
95.042000
70
0
0
VERTEX
8
Layer 1
10
104.000000
20
97.000000
70
0
0
VERTEX
8
Layer 1
10
104.015167
20
97.231998
70
0
0
VERTEX
8
Layer 1
10
104.127998
20
98.958000
70
0
0
VERTEX
8
Layer 1
10
104.511002
20
100.882000
70
0
0
VERTEX
8
Layer 1
10
105.141998
20
102.740000
70
0
0
VERTEX
8
Layer 1
10
106.010002
20
104.500000
70
0
0
VERTEX
8
Layer 1
10
107.099998
20
106.131001
70
0
0
VERTEX
8
Layer 1
10
108.392998
20
107.607000
70
0
0
VERTEX
8
Layer 1
10
109.869003
20
108.900000
70
0
0
VERTEX
8
Layer 1
10
111.500000
20
109.990000
70
0
0
VERTEX
8
Layer 1
10
113.260002
20
110.858000
70
0
0
VERTEX
8
Layer 1
10
114.688004
20
111.342966
70
0
0
VERTEX
8
Layer 1
10
115.117996
20
111.489000
70
0
0
VERTEX
8
Layer 1
10
117.042000
20
111.872000
70
0
0
VERTEX
8
Layer 1
10
119.000000
20
112.000000
70
0
0
VERTEX
8
Layer 1
10
120.958000
20
111.872000
70
0
0
VERTEX
8
Layer 1
10
122.882004
20
111.489000
70
0
0
VERTEX
8
Layer 1
10
124.739998
20
110.858000
70
0
0
VERTEX
8
Layer 1
10
126.500000
20
109.990000
70
0
0
VERTEX
8
Layer 1
10
128.130997
20
108.900000
70
0
0
VERTEX
8
Layer 1
10
129.606995
20
107.607000
70
0
0
VERTEX
8
Layer 1
10
130.899994
20
106.131001
70
0
0
VERTEX
8
Layer 1
10
131.072006
20
105.873631
70
0
0
VERTEX
8
Layer 1
10
131.990005
20
104.500000
70
0
0
VERTEX
8
Layer 1
10
132.858002
20
102.740000
70
0
0
VERTEX
8
Layer 1
10
133.488998
20
100.882000
70
0
0
VERTEX
8
Layer 1
10
133.871994
20
98.958000
70
0
0
VERTEX
8
Layer 1
10
133.984833
20
97.231998
70
0
0
VERTEX
8
Layer 1
10
134.000000
20
97.000000
70
0
0
VERTEX
8
Layer 1
10
133.871994
20
95.042000
70
0
0
VERTEX
8
Layer 1
10
133.488998
20
93.118000
70
0
0
VERTEX
8
Layer 1
10
132.858002
20
91.259998
70
0
0
VERTEX
8
Layer 1
10
131.990005
20
89.500000
70
0
0
VERTEX
8
Layer 1
10
131.655853
20
89.000000
70
0
0
VERTEX
8
Layer 1
10
131.072006
20
88.126369
70
0
0
VERTEX
8
Layer 1
10
130.899994
20
87.868999
70
0
0
VERTEX
8
Layer 1
10
129.606995
20
86.393002
70
0
0
VERTEX
8
Layer 1
10
128.130997
20
85.099998
70
0
0
VERTEX
8
Layer 1
10
126.500000
20
84.009998
70
0
0
VERTEX
8
Layer 1
10
124.739998
20
83.141998
70
0
0
VERTEX
8
Layer 1
10
122.882004
20
82.511002
70
0
0
VERTEX
8
Layer 1
10
120.958000
20
82.127998
70
0
0
VERTEX
8
Layer 1
10
119.000000
20
82.000000
70
0
0
SEQEND
8
Layer 1
0
POLYLINE
8
Layer 1
62
10
70
0
10
0.000000
20
0.000000
66
1
0
VERTEX
8
Layer 1
10
148.957993
20
105.128000
70
0
0
VERTEX
8
Layer 1
10
147.455994
20
105.029810
70
0
0
VERTEX
8
Layer 1
10
147.000000
20
105.000000
70
0
0
VERTEX
8
Layer 1
10
145.042007
20
105.128000
70
0
0
VERTEX
8
Layer 1
10
143.117996
20
105.511000
70
0
0
VERTEX
8
Layer 1
10
141.259995
20
106.142000
70
0
0
VERTEX
8
Layer 1
10
139.500000
20
107.010000
70
0
0
VERTEX
8
Layer 1
10
137.869003
20
108.100000
70
0
0
VERTEX
8
Layer 1
10
136.393005
20
109.393000
70
0
0
VERTEX
8
Layer 1
10
135.100006
20
110.868999
70
0
0
VERTEX
8
Layer 1
10
134.009995
20
112.500000
70
0
0
VERTEX
8
Layer 1
10
134.000000
20
112.520277
70
0
0
VERTEX
8
Layer 1
10
133.459610
20
113.615999
70
0
0
VERTEX
8
Layer 1
10
133.141998
20
114.260000
70
0
0
VERTEX
8
Layer 1
10
132.511002
20
116.118000
70
0
0
VERTEX
8
Layer 1
10
132.128006
20
118.042000
70
0
0
VERTEX
8
Layer 1
10
132.000000
20
120.000000
70
0
0
VERTEX
8
Layer 1
10
132.128006
20
121.958000
70
0
0
VERTEX
8
Layer 1
10
132.511002
20
123.882000
70
0
0
VERTEX
8
Layer 1
10
132.890686
20
125.000000
70
0
0
VERTEX
8
Layer 1
10
133.141998
20
125.740000
70
0
0
VERTEX
8
Layer 1
10
134.009995
20
127.500000
70
0
0
VERTEX
8
Layer 1
10
135.100006
20
129.131000
70
0
0
VERTEX
8
Layer 1
10
135.861252
20
130.000000
70
0
0
VERTEX
8
Layer 1
10
136.393005
20
130.607000
70
0
0
VERTEX
8
Layer 1
10
137.869003
20
131.900000
70
0
0
VERTEX
8
Layer 1
10
139.500000
20
132.990000
70
0
0
VERTEX
8
Layer 1
10
141.259995
20
133.858000
70
0
0
VERTEX
8
Layer 1
10
143.117996
20
134.489000
70
0
0
VERTEX
8
Layer 1
10
145.042007
20
134.872000
70
0
0
VERTEX
8
Layer 1
10
147.000000
20
135.000000
70
0
0
VERTEX
8
Layer 1
10
148.957993
20
134.872000
70
0
0
VERTEX
8
Layer 1
10
150.882004
20
134.489000
70
0
0
VERTEX
8
Layer 1
10
152.740005
20
133.858000
70
0
0
VERTEX
8
Layer 1
10
154.500000
20
132.990000
70
0
0
VERTEX
8
Layer 1
10
156.130997
20
131.900000
70
0
0
VERTEX
8
Layer 1
10
157.606995
20
130.607000
70
0
0
VERTEX
8
Layer 1
10
158.138748
20
130.000000
70
0
0
VERTEX
8
Layer 1
10
158.899994
20
129.131000
70
0
0
VERTEX
8
Layer 1
10
159.990005
20
127.500000
70
0
0
VERTEX
8
Layer 1
10
160.858002
20
125.740000
70
0
0
VERTEX
8
Layer 1
10
161.109314
20
125.000000
70
0
0
VERTEX
8
Layer 1
10
161.488998
20
123.882000
70
0
0
VERTEX
8
Layer 1
10
161.871994
20
121.958000
70
0
0
VERTEX
8
Layer 1
10
162.000000
20
120.000000
70
0
0
VERTEX
8
Layer 1
10
161.871994
20
118.042000
70
0
0
VERTEX
8
Layer 1
10
161.488998
20
116.118000
70
0
0
VERTEX
8
Layer 1
10
160.858002
20
114.260000
70
0
0
VERTEX
8
Layer 1
10
160.540390
20
113.615999
70
0
0
VERTEX
8
Layer 1
10
159.990005
20
112.500000
70
0
0
VERTEX
8
Layer 1
10
158.899994
20
110.868999
70
0
0
VERTEX
8
Layer 1
10
157.606995
20
109.393000
70
0
0
VERTEX
8
Layer 1
10
156.130997
20
108.100000
70
0
0
VERTEX
8
Layer 1
10
154.500000
20
107.010000
70
0
0
VERTEX
8
Layer 1
10
152.740005
20
106.142000
70
0
0
VERTEX
8
Layer 1
10
150.882004
20
105.511000
70
0
0
VERTEX
8
Layer 1
10
148.957993
20
105.128000
70
0
0
SEQEND
8
Layer 1
0
POLYLINE
8
Layer 1
62
10
70
0
10
0.000000
20
0.000000
66
1
0
VERTEX
8
Layer 1
10
115.000000
20
120.000000
70
0
0
VERTEX
8
Layer 1
10
114.688004
20
120.020396
70
0
0
VERTEX
8
Layer 1
10
113.042000
20
120.128000
70
0
0
VERTEX
8
Layer 1
10
111.117996
20
120.511000
70
0
0
VERTEX
8
Layer 1
10
109.260002
20
121.142000
70
0
0
VERTEX
8
Layer 1
10
107.500000
20
122.010000
70
0
0
VERTEX
8
Layer 1
10
105.869003
20
123.100000
70
0
0
VERTEX
8
Layer 1
10
104.392998
20
124.393000
70
0
0
VERTEX
8
Layer 1
10
103.861259
20
125.000000
70
0
0
VERTEX
8
Layer 1
10
103.099998
20
125.869000
70
0
0
VERTEX
8
Layer 1
10
102.010002
20
127.500000
70
0
0
VERTEX
8
Layer 1
10
101.141998
20
129.260000
70
0
0
VERTEX
8
Layer 1
10
100.890686
20
130.000000
70
0
0
VERTEX
8
Layer 1
10
100.511002
20
131.118000
70
0
0
VERTEX
8
Layer 1
10
100.127998
20
133.042000
70
0
0
VERTEX
8
Layer 1
10
100.000000
20
135.000000
70
0
0
VERTEX
8
Layer 1
10
100.127998
20
136.958000
70
0
0
VERTEX
8
Layer 1
10
100.511002
20
138.882000
70
0
0
VERTEX
8
Layer 1
10
101.141998
20
140.740000
70
0
0
VERTEX
8
Layer 1
10
102.010002
20
142.500000
70
0
0
VERTEX
8
Layer 1
10
103.099998
20
144.131000
70
0
0
VERTEX
8
Layer 1
10
104.392998
20
145.607000
70
0
0
VERTEX
8
Layer 1
10
105.869003
20
146.900000
70
0
0
VERTEX
8
Layer 1
10
107.500000
20
147.990000
70
0
0
VERTEX
8
Layer 1
10
109.260002
20
148.858000
70
0
0
VERTEX
8
Layer 1
10
111.117996
20
149.489000
70
0
0
VERTEX
8
Layer 1
10
113.042000
20
149.872000
70
0
0
VERTEX
8
Layer 1
10
114.688004
20
149.979603
70
0
0
VERTEX
8
Layer 1
10
115.000000
20
150.000000
70
0
0
VERTEX
8
Layer 1
10
116.958000
20
149.872000
70
0
0
VERTEX
8
Layer 1
10
118.882004
20
149.489000
70
0
0
VERTEX
8
Layer 1
10
120.739998
20
148.858000
70
0
0
VERTEX
8
Layer 1
10
122.500000
20
147.990000
70
0
0
VERTEX
8
Layer 1
10
124.130997
20
146.900000
70
0
0
VERTEX
8
Layer 1
10
125.607002
20
145.607000
70
0
0
VERTEX
8
Layer 1
10
126.900002
20
144.131000
70
0
0
VERTEX
8
Layer 1
10
127.989998
20
142.500000
70
0
0
VERTEX
8
Layer 1
10
128.858002
20
140.740000
70
0
0
VERTEX
8
Layer 1
10
129.488998
20
138.882000
70
0
0
VERTEX
8
Layer 1
10
129.871994
20
136.958000
70
0
0
VERTEX
8
Layer 1
10
130.000000
20
135.000000
70
0
0
VERTEX
8
Layer 1
10
129.871994
20
133.042000
70
0
0
VERTEX
8
Layer 1
10
129.488998
20
131.118000
70
0
0
VERTEX
8
Layer 1
10
129.109314
20
130.000000
70
0
0
VERTEX
8
Layer 1
10
128.858002
20
129.260000
70
0
0
VERTEX
8
Layer 1
10
127.989998
20
127.500000
70
0
0
VERTEX
8
Layer 1
10
126.900002
20
125.869000
70
0
0
VERTEX
8
Layer 1
10
126.138741
20
125.000000
70
0
0
VERTEX
8
Layer 1
10
125.607002
20
124.393000
70
0
0
VERTEX
8
Layer 1
10
124.130997
20
123.100000
70
0
0
VERTEX
8
Layer 1
10
122.500000
20
122.010000
70
0
0
VERTEX
8
Layer 1
10
120.739998
20
121.142000
70
0
0
VERTEX
8
Layer 1
10
118.882004
20
120.511000
70
0
0
VERTEX
8
Layer 1
10
116.958000
20
120.128000
70
0
0
VERTEX
8
Layer 1
10
115.000000
20
120.000000
70
0
0
SEQEND
8
Layer 1
0
POLYLINE
8
Layer 1
62
10
70
0
10
0.000000
20
0.000000
66
1
0
VERTEX
8
Layer 1
10
100.989998
20
111.500000
70
0
0
VERTEX
8
Layer 1
10
101.858002
20
109.740000
70
0
0
VERTEX
8
Layer 1
10
102.488998
20
107.882000
70
0
0
VERTEX
8
Layer 1
10
102.872002
20
105.958000
70
0
0
VERTEX
8
Layer 1
10
103.000000
20
104.000000
70
0
0
VERTEX
8
Layer 1
10
102.872002
20
102.042000
70
0
0
VERTEX
8
Layer 1
10
102.488998
20
100.118000
70
0
0
VERTEX
8
Layer 1
10
101.858002
20
98.260000
70
0
0
VERTEX
8
Layer 1
10
101.351006
20
97.231998
70
0
0
VERTEX
8
Layer 1
10
100.989998
20
96.500000
70
0
0
VERTEX
8
Layer 1
10
99.900002
20
94.868999
70
0
0
VERTEX
8
Layer 1
10
98.607002
20
93.393002
70
0
0
VERTEX
8
Layer 1
10
98.304001
20
93.127567
70
0
0
VERTEX
8
Layer 1
10
97.130997
20
92.099998
70
0
0
VERTEX
8
Layer 1
10
95.500000
20
91.009998
70
0
0
VERTEX
8
Layer 1
10
93.739998
20
90.141998
70
0
0
VERTEX
8
Layer 1
10
91.882004
20
89.511002
70
0
0
VERTEX
8
Layer 1
10
89.958000
20
89.127998
70
0
0
VERTEX
8
Layer 1
10
88.000000
20
89.000000
70
0
0
VERTEX
8
Layer 1
10
86.042000
20
89.127998
70
0
0
VERTEX
8
Layer 1
10
84.117996
20
89.511002
70
0
0
VERTEX
8
Layer 1
10
82.260002
20
90.141998
70
0
0
VERTEX
8
Layer 1
10
80.500000
20
91.009998
70
0
0
VERTEX
8
Layer 1
10
78.869003
20
92.099998
70
0
0
VERTEX
8
Layer 1
10
77.392998
20
93.393002
70
0
0
VERTEX
8
Layer 1
10
76.099998
20
94.868999
70
0
0
VERTEX
8
Layer 1
10
75.010002
20
96.500000
70
0
0
VERTEX
8
Layer 1
10
74.648994
20
97.231998
70
0
0
VERTEX
8
Layer 1
10
74.141998
20
98.260000
70
0
0
VERTEX
8
Layer 1
10
73.511002
20
100.118000
70
0
0
VERTEX
8
Layer 1
10
73.127998
20
102.042000
70
0
0
VERTEX
8
Layer 1
10
73.000000
20
104.000000
70
0
0
VERTEX
8
Layer 1
10
73.127998
20
105.958000
70
0
0
VERTEX
8
Layer 1
10
73.511002
20
107.882000
70
0
0
VERTEX
8
Layer 1
10
74.141998
20
109.740000
70
0
0
VERTEX
8
Layer 1
10
75.010002
20
111.500000
70
0
0
VERTEX
8
Layer 1
10
76.099998
20
113.131001
70
0
0
VERTEX
8
Layer 1
10
77.392998
20
114.607000
70
0
0
VERTEX
8
Layer 1
10
78.869003
20
115.900000
70
0
0
VERTEX
8
Layer 1
10
80.500000
20
116.990000
70
0
0
VERTEX
8
Layer 1
10
81.919998
20
117.690318
70
0
0
VERTEX
8
Layer 1
10
82.260002
20
117.858000
70
0
0
VERTEX
8
Layer 1
10
84.117996
20
118.489000
70
0
0
VERTEX
8
Layer 1
10
86.042000
20
118.872000
70
0
0
VERTEX
8
Layer 1
10
88.000000
20
119.000000
70
0
0
VERTEX
8
Layer 1
10
89.958000
20
118.872000
70
0
0
VERTEX
8
Layer 1
10
91.882004
20
118.489000
70
0
0
VERTEX
8
Layer 1
10
93.739998
20
117.858000
70
0
0
VERTEX
8
Layer 1
10
95.500000
20
116.990000
70
0
0
VERTEX
8
Layer 1
10
97.130997
20
115.900000
70
0
0
VERTEX
8
Layer 1
10
98.304001
20
114.872433
70
0
0
VERTEX
8
Layer 1
10
98.607002
20
114.607000
70
0
0
VERTEX
8
Layer 1
10
99.900002
20
113.131001
70
0
0
VERTEX
8
Layer 1
10
100.989998
20
111.500000
70
0
0
SEQEND
8
Layer 1
0
POLYLINE
8
Layer 1
62
10
70
0
10
0.000000
20
0.000000
66
1
0
VERTEX
8
Layer 1
10
97.914001
20
136.305000
70
0
0
VERTEX
8
Layer 1
10
98.000000
20
135.000000
70
0
0
VERTEX
8
Layer 1
10
97.914001
20
133.695000
70
0
0
VERTEX
8
Layer 1
10
97.658997
20
132.412000
70
0
0
VERTEX
8
Layer 1
10
97.238998
20
131.173000
70
0
0
VERTEX
8
Layer 1
10
96.660004
20
130.000000
70
0
0
VERTEX
8
Layer 1
10
95.933998
20
128.912000
70
0
0
VERTEX
8
Layer 1
10
95.070999
20
127.929000
70
0
0
VERTEX
8
Layer 1
10
94.087997
20
127.066000
70
0
0
VERTEX
8
Layer 1
10
93.000000
20
126.340000
70
0
0
VERTEX
8
Layer 1
10
91.827003
20
125.761000
70
0
0
VERTEX
8
Layer 1
10
90.587997
20
125.341000
70
0
0
VERTEX
8
Layer 1
10
89.305000
20
125.086000
70
0
0
VERTEX
8
Layer 1
10
88.000000
20
125.000000
70
0
0
VERTEX
8
Layer 1
10
86.695000
20
125.086000
70
0
0
VERTEX
8
Layer 1
10
85.412003
20
125.341000
70
0
0
VERTEX
8
Layer 1
10
84.172997
20
125.761000
70
0
0
VERTEX
8
Layer 1
10
83.000000
20
126.340000
70
0
0
VERTEX
8
Layer 1
10
81.912003
20
127.066000
70
0
0
VERTEX
8
Layer 1
10
80.929001
20
127.929000
70
0
0
VERTEX
8
Layer 1
10
80.066002
20
128.912000
70
0
0
VERTEX
8
Layer 1
10
79.339996
20
130.000000
70
0
0
VERTEX
8
Layer 1
10
78.761002
20
131.173000
70
0
0
VERTEX
8
Layer 1
10
78.341003
20
132.412000
70
0
0
VERTEX
8
Layer 1
10
78.085999
20
133.695000
70
0
0
VERTEX
8
Layer 1
10
78.000000
20
135.000000
70
0
0
VERTEX
8
Layer 1
10
78.085999
20
136.305000
70
0
0
VERTEX
8
Layer 1
10
78.341003
20
137.588000
70
0
0
VERTEX
8
Layer 1
10
78.761002
20
138.827000
70
0
0
VERTEX
8
Layer 1
10
79.339996
20
140.000000
70
0
0
VERTEX
8
Layer 1
10
80.066002
20
141.088000
70
0
0
VERTEX
8
Layer 1
10
80.929001
20
142.071000
70
0
0
VERTEX
8
Layer 1
10
81.912003
20
142.934000
70
0
0
VERTEX
8
Layer 1
10
81.919998
20
142.939339
70
0
0
VERTEX
8
Layer 1
10
83.000000
20
143.660000
70
0
0
VERTEX
8
Layer 1
10
84.172997
20
144.239000
70
0
0
VERTEX
8
Layer 1
10
85.412003
20
144.659000
70
0
0
VERTEX
8
Layer 1
10
86.695000
20
144.914000
70
0
0
VERTEX
8
Layer 1
10
88.000000
20
145.000000
70
0
0
VERTEX
8
Layer 1
10
89.305000
20
144.914000
70
0
0
VERTEX
8
Layer 1
10
90.112000
20
144.753607
70
0
0
VERTEX
8
Layer 1
10
90.587997
20
144.659000
70
0
0
VERTEX
8
Layer 1
10
91.827003
20
144.239000
70
0
0
VERTEX
8
Layer 1
10
93.000000
20
143.660000
70
0
0
VERTEX
8
Layer 1
10
94.087997
20
142.934000
70
0
0
VERTEX
8
Layer 1
10
95.070999
20
142.071000
70
0
0
VERTEX
8
Layer 1
10
95.933998
20
141.088000
70
0
0
VERTEX
8
Layer 1
10
96.660004
20
140.000000
70
0
0
VERTEX
8
Layer 1
10
97.238998
20
138.827000
70
0
0
VERTEX
8
Layer 1
10
97.658997
20
137.588000
70
0
0
VERTEX
8
Layer 1
10
97.914001
20
136.305000
70
0
0
SEQEND
8
Layer 1
0
POLYLINE
8
Layer 1
62
10
70
0
10
0.000000
20
0.000000
66
1
0
VERTEX
8
Layer 1
10
76.238998
20
138.827000
70
0
0
VERTEX
8
Layer 1
10
76.454254
20
138.192000
70
0
0
VERTEX
8
Layer 1
10
76.658997
20
137.588000
70
0
0
VERTEX
8
Layer 1
10
76.914001
20
136.305000
70
0
0
VERTEX
8
Layer 1
10
77.000000
20
135.000000
70
0
0
VERTEX
8
Layer 1
10
76.914001
20
133.695000
70
0
0
VERTEX
8
Layer 1
10
76.658997
20
132.412000
70
0
0
VERTEX
8
Layer 1
10
76.238998
20
131.173000
70
0
0
VERTEX
8
Layer 1
10
75.660004
20
130.000000
70
0
0
VERTEX
8
Layer 1
10
74.933998
20
128.912000
70
0
0
VERTEX
8
Layer 1
10
74.070999
20
127.929000
70
0
0
VERTEX
8
Layer 1
10
73.087997
20
127.066000
70
0
0
VERTEX
8
Layer 1
10
72.000000
20
126.340000
70
0
0
VERTEX
8
Layer 1
10
70.827003
20
125.761000
70
0
0
VERTEX
8
Layer 1
10
69.587997
20
125.341000
70
0
0
VERTEX
8
Layer 1
10
68.305000
20
125.086000
70
0
0
VERTEX
8
Layer 1
10
67.000000
20
125.000000
70
0
0
VERTEX
8
Layer 1
10
65.695000
20
125.086000
70
0
0
VERTEX
8
Layer 1
10
64.412003
20
125.341000
70
0
0
VERTEX
8
Layer 1
10
63.173000
20
125.761000
70
0
0
VERTEX
8
Layer 1
10
62.000000
20
126.340000
70
0
0
VERTEX
8
Layer 1
10
60.911999
20
127.066000
70
0
0
VERTEX
8
Layer 1
10
59.929001
20
127.929000
70
0
0
VERTEX
8
Layer 1
10
59.066002
20
128.912000
70
0
0
VERTEX
8
Layer 1
10
58.340000
20
130.000000
70
0
0
VERTEX
8
Layer 1
10
57.761002
20
131.173000
70
0
0
VERTEX
8
Layer 1
10
57.341000
20
132.412000
70
0
0
VERTEX
8
Layer 1
10
57.085999
20
133.695000
70
0
0
VERTEX
8
Layer 1
10
57.000000
20
135.000000
70
0
0
VERTEX
8
Layer 1
10
57.085999
20
136.305000
70
0
0
VERTEX
8
Layer 1
10
57.341000
20
137.588000
70
0
0
VERTEX
8
Layer 1
10
57.761002
20
138.827000
70
0
0
VERTEX
8
Layer 1
10
58.340000
20
140.000000
70
0
0
VERTEX
8
Layer 1
10
59.066002
20
141.088000
70
0
0
VERTEX
8
Layer 1
10
59.929001
20
142.071000
70
0
0
VERTEX
8
Layer 1
10
60.911999
20
142.934000
70
0
0
VERTEX
8
Layer 1
10
62.000000
20
143.660000
70
0
0
VERTEX
8
Layer 1
10
63.173000
20
144.239000
70
0
0
VERTEX
8
Layer 1
10
64.412003
20
144.659000
70
0
0
VERTEX
8
Layer 1
10
65.536003
20
144.882399
70
0
0
VERTEX
8
Layer 1
10
65.695000
20
144.914000
70
0
0
VERTEX
8
Layer 1
10
67.000000
20
145.000000
70
0
0
VERTEX
8
Layer 1
10
68.305000
20
144.914000
70
0
0
VERTEX
8
Layer 1
10
69.587997
20
144.659000
70
0
0
VERTEX
8
Layer 1
10
70.827003
20
144.239000
70
0
0
VERTEX
8
Layer 1
10
72.000000
20
143.660000
70
0
0
VERTEX
8
Layer 1
10
73.087997
20
142.934000
70
0
0
VERTEX
8
Layer 1
10
74.070999
20
142.071000
70
0
0
VERTEX
8
Layer 1
10
74.933998
20
141.088000
70
0
0
VERTEX
8
Layer 1
10
75.660004
20
140.000000
70
0
0
VERTEX
8
Layer 1
10
76.238998
20
138.827000
70
0
0
SEQEND
8
Layer 1
0
POLYLINE
8
Layer 1
62
10
70
0
10
0.000000
20
0.000000
66
1
0
VERTEX
8
Layer 1
10
-91.415001
20
141.676000
70
0
0
VERTEX
8
Layer 1
10
-91.306190
20
141.513000
70
0
0
VERTEX
8
Layer 1
10
-91.452003
20
141.865000
70
0
0
VERTEX
8
Layer 1
10
-91.521843
20
141.836060
70
0
0
VERTEX
8
Layer 1
10
-91.546394
20
141.825887
70
0
0
VERTEX
8
Layer 1
10
-91.415001
20
141.676000
70
0
0
SEQEND
8
Layer 1
0
POLYLINE
8
Layer 1
62
10
70
0
10
0.000000
20
0.000000
66
1
0
VERTEX
8
Layer 1
10
-98.116997
20
140.186000
70
0
0
VERTEX
8
Layer 1
10
-98.304001
20
140.094093
70
0
0
VERTEX
8
Layer 1
10
-98.469002
20
140.013000
70
0
0
VERTEX
8
Layer 1
10
-98.794998
20
139.795000
70
0
0
VERTEX
8
Layer 1
10
-99.089996
20
139.536000
70
0
0
VERTEX
8
Layer 1
10
-99.348999
20
139.241000
70
0
0
VERTEX
8
Layer 1
10
-99.567001
20
138.915000
70
0
0
VERTEX
8
Layer 1
10
-99.739998
20
138.563000
70
0
0
VERTEX
8
Layer 1
10
-99.866661
20
138.192000
70
0
0
VERTEX
8
Layer 1
10
-99.866997
20
138.191000
70
0
0
VERTEX
8
Layer 1
10
-99.943001
20
137.806000
70
0
0
VERTEX
8
Layer 1
10
-99.969002
20
137.415000
70
0
0
VERTEX
8
Layer 1
10
-99.943001
20
137.023000
70
0
0
VERTEX
8
Layer 1
10
-99.866997
20
136.638000
70
0
0
VERTEX
8
Layer 1
10
-99.739998
20
136.267000
70
0
0
VERTEX
8
Layer 1
10
-99.567001
20
135.915000
70
0
0
VERTEX
8
Layer 1
10
-99.348999
20
135.589000
70
0
0
VERTEX
8
Layer 1
10
-99.089996
20
135.294000
70
0
0
VERTEX
8
Layer 1
10
-98.794998
20
135.035000
70
0
0
VERTEX
8
Layer 1
10
-98.469002
20
134.817000
70
0
0
VERTEX
8
Layer 1
10
-98.304001
20
134.735437
70
0
0
VERTEX
8
Layer 1
10
-98.116997
20
134.643000
70
0
0
VERTEX
8
Layer 1
10
-97.745003
20
134.517000
70
0
0
VERTEX
8
Layer 1
10
-97.360001
20
134.440000
70
0
0
VERTEX
8
Layer 1
10
-96.969002
20
134.415000
70
0
0
VERTEX
8
Layer 1
10
-96.577003
20
134.440000
70
0
0
VERTEX
8
Layer 1
10
-96.192001
20
134.517000
70
0
0
VERTEX
8
Layer 1
10
-95.820999
20
134.643000
70
0
0
VERTEX
8
Layer 1
10
-95.469002
20
134.817000
70
0
0
VERTEX
8
Layer 1
10
-95.141998
20
135.035000
70
0
0
VERTEX
8
Layer 1
10
-94.847000
20
135.294000
70
0
0
VERTEX
8
Layer 1
10
-94.588997
20
135.589000
70
0
0
VERTEX
8
Layer 1
10
-94.371002
20
135.915000
70
0
0
VERTEX
8
Layer 1
10
-94.208000
20
136.244747
70
0
0
VERTEX
8
Layer 1
10
-94.196999
20
136.267000
70
0
0
VERTEX
8
Layer 1
10
-94.070999
20
136.638000
70
0
0
VERTEX
8
Layer 1
10
-93.994003
20
137.023000
70
0
0
VERTEX
8
Layer 1
10
-93.969002
20
137.415000
70
0
0
VERTEX
8
Layer 1
10
-93.994003
20
137.806000
70
0
0
VERTEX
8
Layer 1
10
-94.070999
20
138.191000
70
0
0
VERTEX
8
Layer 1
10
-94.071342
20
138.192000
70
0
0
VERTEX
8
Layer 1
10
-94.196999
20
138.563000
70
0
0
VERTEX
8
Layer 1
10
-94.208000
20
138.585253
70
0
0
VERTEX
8
Layer 1
10
-94.371002
20
138.915000
70
0
0
VERTEX
8
Layer 1
10
-94.588997
20
139.241000
70
0
0
VERTEX
8
Layer 1
10
-94.847000
20
139.536000
70
0
0
VERTEX
8
Layer 1
10
-95.141998
20
139.795000
70
0
0
VERTEX
8
Layer 1
10
-95.469002
20
140.013000
70
0
0
VERTEX
8
Layer 1
10
-95.820999
20
140.186000
70
0
0
VERTEX
8
Layer 1
10
-96.192001
20
140.313000
70
0
0
VERTEX
8
Layer 1
10
-96.577003
20
140.389000
70
0
0
VERTEX
8
Layer 1
10
-96.969002
20
140.415000
70
0
0
VERTEX
8
Layer 1
10
-97.360001
20
140.389000
70
0
0
VERTEX
8
Layer 1
10
-97.745003
20
140.313000
70
0
0
VERTEX
8
Layer 1
10
-98.116997
20
140.186000
70
0
0
SEQEND
8
Layer 1
0
POLYLINE
8
Layer 1
62
10
70
0
10
0.000000
20
0.000000
66
1
0
VERTEX
8
Layer 1
10
-94.415001
20
102.506001
70
0
0
VERTEX
8
Layer 1
10
-94.307182
20
102.344481
70
0
0
VERTEX
8
Layer 1
10
-94.421211
20
102.619699
70
0
0
VERTEX
8
Layer 1
10
-94.452003
20
102.694000
70
0
0
VERTEX
8
Layer 1
10
-94.521339
20
102.665302
70
0
0
VERTEX
8
Layer 1
10
-94.545921
20
102.655130
70
0
0
VERTEX
8
Layer 1
10
-94.491676
20
102.593344
70
0
0
VERTEX
8
Layer 1
10
-94.415001
20
102.506001
70
0
0
SEQEND
8
Layer 1
0
POLYLINE
8
Layer 1
62
10
70
0
10
0.000000
20
0.000000
66
1
0
VERTEX
8
Layer 1
10
-93.015968
20
98.959652
70
0
0
VERTEX
8
Layer 1
10
-92.969002
20
98.979111
70
0
0
VERTEX
8
Layer 1
10
-92.967522
20
98.979723
70
0
0
VERTEX
8
Layer 1
10
-92.920998
20
98.999001
70
0
0
VERTEX
8
Layer 1
10
-92.969002
20
99.114845
70
0
0
VERTEX
8
Layer 1
10
-93.036942
20
99.278814
70
0
0
VERTEX
8
Layer 1
10
-93.067627
20
99.352884
70
0
0
VERTEX
8
Layer 1
10
-93.028999
20
99.158001
70
0
0
VERTEX
8
Layer 1
10
-93.020088
20
99.022358
70
0
0
VERTEX
8
Layer 1
10
-93.015968
20
98.959652
70
0
0
SEQEND
8
Layer 1
0
POLYLINE
8
Layer 1
62
10
70
0
10
0.000000
20
0.000000
66
1
0
VERTEX
8
Layer 1
10
-98.141998
20
100.625000
70
0
0
VERTEX
8
Layer 1
10
-98.304001
20
100.733000
70
0
0
VERTEX
8
Layer 1
10
-98.469002
20
100.843000
70
0
0
VERTEX
8
Layer 1
10
-98.820999
20
101.016001
70
0
0
VERTEX
8
Layer 1
10
-99.192001
20
101.142000
70
0
0
VERTEX
8
Layer 1
10
-99.577003
20
101.219000
70
0
0
VERTEX
8
Layer 1
10
-99.969002
20
101.245001
70
0
0
VERTEX
8
Layer 1
10
-100.360001
20
101.219000
70
0
0
VERTEX
8
Layer 1
10
-100.745003
20
101.142000
70
0
0
VERTEX
8
Layer 1
10
-101.116997
20
101.016001
70
0
0
VERTEX
8
Layer 1
10
-101.469002
20
100.843000
70
0
0
VERTEX
8
Layer 1
10
-101.794998
20
100.625000
70
0
0
VERTEX
8
Layer 1
10
-102.089996
20
100.365999
70
0
0
VERTEX
8
Layer 1
10
-102.348999
20
100.070999
70
0
0
VERTEX
8
Layer 1
10
-102.400002
20
99.994734
70
0
0
VERTEX
8
Layer 1
10
-102.567001
20
99.745001
70
0
0
VERTEX
8
Layer 1
10
-102.739998
20
99.393000
70
0
0
VERTEX
8
Layer 1
10
-102.866997
20
99.021000
70
0
0
VERTEX
8
Layer 1
10
-102.943001
20
98.636000
70
0
0
VERTEX
8
Layer 1
10
-102.969002
20
98.245001
70
0
0
VERTEX
8
Layer 1
10
-102.943001
20
97.853001
70
0
0
VERTEX
8
Layer 1
10
-102.866997
20
97.467999
70
0
0
VERTEX
8
Layer 1
10
-102.786217
20
97.231998
70
0
0
VERTEX
8
Layer 1
10
-102.739998
20
97.097000
70
0
0
VERTEX
8
Layer 1
10
-102.567001
20
96.744999
70
0
0
VERTEX
8
Layer 1
10
-102.400002
20
96.494499
70
0
0
VERTEX
8
Layer 1
10
-102.348999
20
96.417999
70
0
0
VERTEX
8
Layer 1
10
-102.089996
20
96.123001
70
0
0
VERTEX
8
Layer 1
10
-101.794998
20
95.865002
70
0
0
VERTEX
8
Layer 1
10
-101.469002
20
95.646999
70
0
0
VERTEX
8
Layer 1
10
-101.116997
20
95.473000
70
0
0
VERTEX
8
Layer 1
10
-100.745003
20
95.347000
70
0
0
VERTEX
8
Layer 1
10
-100.360001
20
95.270000
70
0
0
VERTEX
8
Layer 1
10
-99.969002
20
95.244999
70
0
0
VERTEX
8
Layer 1
10
-99.577003
20
95.270000
70
0
0
VERTEX
8
Layer 1
10
-99.192001
20
95.347000
70
0
0
VERTEX
8
Layer 1
10
-98.820999
20
95.473000
70
0
0
VERTEX
8
Layer 1
10
-98.469002
20
95.646999
70
0
0
VERTEX
8
Layer 1
10
-98.304001
20
95.757000
70
0
0
VERTEX
8
Layer 1
10
-98.141998
20
95.865002
70
0
0
VERTEX
8
Layer 1
10
-97.847000
20
96.123001
70
0
0
VERTEX
8
Layer 1
10
-97.588997
20
96.417999
70
0
0
VERTEX
8
Layer 1
10
-97.371002
20
96.744999
70
0
0
VERTEX
8
Layer 1
10
-97.196999
20
97.097000
70
0
0
VERTEX
8
Layer 1
10
-97.151154
20
97.231998
70
0
0
VERTEX
8
Layer 1
10
-97.070999
20
97.467999
70
0
0
VERTEX
8
Layer 1
10
-96.994003
20
97.853001
70
0
0
VERTEX
8
Layer 1
10
-96.969002
20
98.245001
70
0
0
VERTEX
8
Layer 1
10
-96.994003
20
98.636000
70
0
0
VERTEX
8
Layer 1
10
-97.070999
20
99.021000
70
0
0
VERTEX
8
Layer 1
10
-97.196999
20
99.393000
70
0
0
VERTEX
8
Layer 1
10
-97.371002
20
99.745001
70
0
0
VERTEX
8
Layer 1
10
-97.588997
20
100.070999
70
0
0
VERTEX
8
Layer 1
10
-97.847000
20
100.365999
70
0
0
VERTEX
8
Layer 1
10
-98.141998
20
100.625000
70
0
0
SEQEND
8
Layer 1
0
POLYLINE
8
Layer 1
62
10
70
0
10
0.000000
20
0.000000
66
1
0
VERTEX
8
Layer 1
10
-13.015918
20
137.129717
70
0
0
VERTEX
8
Layer 1
10
-12.969000
20
137.149135
70
0
0
VERTEX
8
Layer 1
10
-12.921000
20
137.169000
70
0
0
VERTEX
8
Layer 1
10
-12.969000
20
137.284877
70
0
0
VERTEX
8
Layer 1
10
-13.036858
20
137.448692
70
0
0
VERTEX
8
Layer 1
10
-13.067286
20
137.522150
70
0
0
VERTEX
8
Layer 1
10
-13.029000
20
137.329000
70
0
0
VERTEX
8
Layer 1
10
-13.015918
20
137.129717
70
0
0
SEQEND
8
Layer 1
0
POLYLINE
8
Layer 1
62
10
70
0
10
0.000000
20
0.000000
66
1
0
VERTEX
8
Layer 1
10
-14.415000
20
140.676000
70
0
0
VERTEX
8
Layer 1
10
-14.306190
20
140.513000
70
0
0
VERTEX
8
Layer 1
10
-14.420862
20
140.789830
70
0
0
VERTEX
8
Layer 1
10
-14.452000
20
140.865000
70
0
0
VERTEX
8
Layer 1
10
-14.521847
20
140.836060
70
0
0
VERTEX
8
Layer 1
10
-14.546396
20
140.825887
70
0
0
VERTEX
8
Layer 1
10
-14.491596
20
140.763375
70
0
0
VERTEX
8
Layer 1
10
-14.415000
20
140.676000
70
0
0
SEQEND
8
Layer 1
0
POLYLINE
8
Layer 1
62
10
70
0
10
0.000000
20
0.000000
66
1
0
VERTEX
8
Layer 1
10
-20.360001
20
139.389000
70
0
0
VERTEX
8
Layer 1
10
-20.480000
20
139.365312
70
0
0
VERTEX
8
Layer 1
10
-20.745001
20
139.313000
70
0
0
VERTEX
8
Layer 1
10
-21.117001
20
139.186000
70
0
0
VERTEX
8
Layer 1
10
-21.469000
20
139.013000
70
0
0
VERTEX
8
Layer 1
10
-21.795000
20
138.795000
70
0
0
VERTEX
8
Layer 1
10
-22.090000
20
138.536000
70
0
0
VERTEX
8
Layer 1
10
-22.349001
20
138.241000
70
0
0
VERTEX
8
Layer 1
10
-22.381767
20
138.192000
70
0
0
VERTEX
8
Layer 1
10
-22.566999
20
137.915000
70
0
0
VERTEX
8
Layer 1
10
-22.740000
20
137.563000
70
0
0
VERTEX
8
Layer 1
10
-22.867001
20
137.191000
70
0
0
VERTEX
8
Layer 1
10
-22.943001
20
136.806000
70
0
0
VERTEX
8
Layer 1
10
-22.969000
20
136.415000
70
0
0
VERTEX
8
Layer 1
10
-22.943001
20
136.023000
70
0
0
VERTEX
8
Layer 1
10
-22.867001
20
135.638000
70
0
0
VERTEX
8
Layer 1
10
-22.740000
20
135.267000
70
0
0
VERTEX
8
Layer 1
10
-22.566999
20
134.915000
70
0
0
VERTEX
8
Layer 1
10
-22.349001
20
134.589000
70
0
0
VERTEX
8
Layer 1
10
-22.090000
20
134.294000
70
0
0
VERTEX
8
Layer 1
10
-21.864479
20
134.096000
70
0
0
VERTEX
8
Layer 1
10
-21.795000
20
134.035000
70
0
0
VERTEX
8
Layer 1
10
-21.469000
20
133.817000
70
0
0
VERTEX
8
Layer 1
10
-21.117001
20
133.643000
70
0
0
VERTEX
8
Layer 1
10
-20.745001
20
133.517000
70
0
0
VERTEX
8
Layer 1
10
-20.480000
20
133.464000
70
0
0
VERTEX
8
Layer 1
10
-20.360001
20
133.440000
70
0
0
VERTEX
8
Layer 1
10
-19.969000
20
133.415000
70
0
0
VERTEX
8
Layer 1
10
-19.577000
20
133.440000
70
0
0
VERTEX
8
Layer 1
10
-19.191999
20
133.517000
70
0
0
VERTEX
8
Layer 1
10
-18.820999
20
133.643000
70
0
0
VERTEX
8
Layer 1
10
-18.469000
20
133.817000
70
0
0
VERTEX
8
Layer 1
10
-18.142000
20
134.035000
70
0
0
VERTEX
8
Layer 1
10
-18.072521
20
134.096000
70
0
0
VERTEX
8
Layer 1
10
-17.847000
20
134.294000
70
0
0
VERTEX
8
Layer 1
10
-17.589001
20
134.589000
70
0
0
VERTEX
8
Layer 1
10
-17.371000
20
134.915000
70
0
0
VERTEX
8
Layer 1
10
-17.197001
20
135.267000
70
0
0
VERTEX
8
Layer 1
10
-17.070999
20
135.638000
70
0
0
VERTEX
8
Layer 1
10
-16.993999
20
136.023000
70
0
0
VERTEX
8
Layer 1
10
-16.969000
20
136.415000
70
0
0
VERTEX
8
Layer 1
10
-16.993999
20
136.806000
70
0
0
VERTEX
8
Layer 1
10
-17.070999
20
137.191000
70
0
0
VERTEX
8
Layer 1
10
-17.197001
20
137.563000
70
0
0
VERTEX
8
Layer 1
10
-17.371000
20
137.915000
70
0
0
VERTEX
8
Layer 1
10
-17.556232
20
138.192000
70
0
0
VERTEX
8
Layer 1
10
-17.589001
20
138.241000
70
0
0
VERTEX
8
Layer 1
10
-17.847000
20
138.536000
70
0
0
VERTEX
8
Layer 1
10
-18.142000
20
138.795000
70
0
0
VERTEX
8
Layer 1
10
-18.469000
20
139.013000
70
0
0
VERTEX
8
Layer 1
10
-18.820999
20
139.186000
70
0
0
VERTEX
8
Layer 1
10
-19.191999
20
139.313000
70
0
0
VERTEX
8
Layer 1
10
-19.577000
20
139.389000
70
0
0
VERTEX
8
Layer 1
10
-19.969000
20
139.415000
70
0
0
VERTEX
8
Layer 1
10
-20.360001
20
139.389000
70
0
0
SEQEND
8
Layer 1
0
POLYLINE
8
Layer 1
62
10
70
0
10
0.000000
20
0.000000
66
1
0
VERTEX
8
Layer 1
10
-16.015965
20
97.959652
70
0
0
VERTEX
8
Layer 1
10
-15.969000
20
97.979111
70
0
0
VERTEX
8
Layer 1
10
-15.921000
20
97.999001
70
0
0
VERTEX
8
Layer 1
10
-15.969000
20
98.114845
70
0
0
VERTEX
8
Layer 1
10
-16.036940
20
98.278814
70
0
0
VERTEX
8
Layer 1
10
-16.067629
20
98.352884
70
0
0
VERTEX
8
Layer 1
10
-16.028999
20
98.158001
70
0
0
VERTEX
8
Layer 1
10
-16.015965
20
97.959652
70
0
0
SEQEND
8
Layer 1
0
POLYLINE
8
Layer 1
62
10
70
0
10
0.000000
20
0.000000
66
1
0
VERTEX
8
Layer 1
10
-20.371000
20
98.745001
70
0
0
VERTEX
8
Layer 1
10
-20.480000
20
98.908001
70
0
0
VERTEX
8
Layer 1
10
-20.589001
20
99.070999
70
0
0
VERTEX
8
Layer 1
10
-20.847000
20
99.365999
70
0
0
VERTEX
8
Layer 1
10
-21.142000
20
99.625000
70
0
0
VERTEX
8
Layer 1
10
-21.469000
20
99.843000
70
0
0
VERTEX
8
Layer 1
10
-21.820999
20
100.016001
70
0
0
VERTEX
8
Layer 1
10
-22.191999
20
100.142000
70
0
0
VERTEX
8
Layer 1
10
-22.577000
20
100.219000
70
0
0
VERTEX
8
Layer 1
10
-22.969000
20
100.245001
70
0
0
VERTEX
8
Layer 1
10
-23.360001
20
100.219000
70
0
0
VERTEX
8
Layer 1
10
-23.745001
20
100.142000
70
0
0
VERTEX
8
Layer 1
10
-24.117001
20
100.016001
70
0
0
VERTEX
8
Layer 1
10
-24.469000
20
99.843000
70
0
0
VERTEX
8
Layer 1
10
-24.576000
20
99.771448
70
0
0
VERTEX
8
Layer 1
10
-24.795000
20
99.625000
70
0
0
VERTEX
8
Layer 1
10
-25.090000
20
99.365999
70
0
0
VERTEX
8
Layer 1
10
-25.349001
20
99.070999
70
0
0
VERTEX
8
Layer 1
10
-25.566999
20
98.745001
70
0
0
VERTEX
8
Layer 1
10
-25.740000
20
98.393000
70
0
0
VERTEX
8
Layer 1
10
-25.867001
20
98.021000
70
0
0
VERTEX
8
Layer 1
10
-25.943001
20
97.636002
70
0
0
VERTEX
8
Layer 1
10
-25.969000
20
97.244999
70
0
0
VERTEX
8
Layer 1
10
-25.968138
20
97.231998
70
0
0
VERTEX
8
Layer 1
10
-25.943001
20
96.853001
70
0
0
VERTEX
8
Layer 1
10
-25.867001
20
96.467999
70
0
0
VERTEX
8
Layer 1
10
-25.740000
20
96.097000
70
0
0
VERTEX
8
Layer 1
10
-25.566999
20
95.744999
70
0
0
VERTEX
8
Layer 1
10
-25.349001
20
95.417999
70
0
0
VERTEX
8
Layer 1
10
-25.090000
20
95.123001
70
0
0
VERTEX
8
Layer 1
10
-24.795000
20
94.865002
70
0
0
VERTEX
8
Layer 1
10
-24.576000
20
94.718552
70
0
0
VERTEX
8
Layer 1
10
-24.469000
20
94.646999
70
0
0
VERTEX
8
Layer 1
10
-24.117001
20
94.473000
70
0
0
VERTEX
8
Layer 1
10
-23.745001
20
94.347000
70
0
0
VERTEX
8
Layer 1
10
-23.360001
20
94.270000
70
0
0
VERTEX
8
Layer 1
10
-22.969000
20
94.244999
70
0
0
VERTEX
8
Layer 1
10
-22.577000
20
94.270000
70
0
0
VERTEX
8
Layer 1
10
-22.191999
20
94.347000
70
0
0
VERTEX
8
Layer 1
10
-21.820999
20
94.473000
70
0
0
VERTEX
8
Layer 1
10
-21.469000
20
94.646999
70
0
0
VERTEX
8
Layer 1
10
-21.142000
20
94.865002
70
0
0
VERTEX
8
Layer 1
10
-20.847000
20
95.123001
70
0
0
VERTEX
8
Layer 1
10
-20.589001
20
95.417999
70
0
0
VERTEX
8
Layer 1
10
-20.480000
20
95.581501
70
0
0
VERTEX
8
Layer 1
10
-20.371000
20
95.744999
70
0
0
VERTEX
8
Layer 1
10
-20.197001
20
96.097000
70
0
0
VERTEX
8
Layer 1
10
-20.070999
20
96.467999
70
0
0
VERTEX
8
Layer 1
10
-19.993999
20
96.853001
70
0
0
VERTEX
8
Layer 1
10
-19.969830
20
97.231998
70
0
0
VERTEX
8
Layer 1
10
-19.969000
20
97.244999
70
0
0
VERTEX
8
Layer 1
10
-19.993999
20
97.636002
70
0
0
VERTEX
8
Layer 1
10
-20.070999
20
98.021000
70
0
0
VERTEX
8
Layer 1
10
-20.197001
20
98.393000
70
0
0
VERTEX
8
Layer 1
10
-20.371000
20
98.745001
70
0
0
SEQEND
8
Layer 1
0
POLYLINE
8
Layer 1
62
10
70
0
10
0.000000
20
0.000000
66
1
0
VERTEX
8
Layer 1
10
-17.415001
20
101.506001
70
0
0
VERTEX
8
Layer 1
10
-17.307178
20
101.344481
70
0
0
VERTEX
8
Layer 1
10
-17.452000
20
101.694000
70
0
0
VERTEX
8
Layer 1
10
-17.521341
20
101.665302
70
0
0
VERTEX
8
Layer 1
10
-17.545921
20
101.655130
70
0
0
VERTEX
8
Layer 1
10
-17.415001
20
101.506001
70
0
0
SEQEND
8
Layer 1
0
POLYLINE
8
Layer 1
62
10
70
0
10
0.000000
20
0.000000
66
1
0
VERTEX
8
Layer 1
10
-49.921001
20
140.169000
70
0
0
VERTEX
8
Layer 1
10
-49.969002
20
140.284877
70
0
0
VERTEX
8
Layer 1
10
-50.036858
20
140.448692
70
0
0
VERTEX
8
Layer 1
10
-50.067287
20
140.522150
70
0
0
VERTEX
8
Layer 1
10
-50.028999
20
140.329000
70
0
0
VERTEX
8
Layer 1
10
-50.020027
20
140.192310
70
0
0
VERTEX
8
Layer 1
10
-50.015919
20
140.129717
70
0
0
VERTEX
8
Layer 1
10
-49.969002
20
140.149135
70
0
0
VERTEX
8
Layer 1
10
-49.967545
20
140.149737
70
0
0
VERTEX
8
Layer 1
10
-49.921001
20
140.169000
70
0
0
SEQEND
8
Layer 1
0
POLYLINE
8
Layer 1
62
10
70
0
10
0.000000
20
0.000000
66
1
0
VERTEX
8
Layer 1
10
-51.415001
20
143.676000
70
0
0
VERTEX
8
Layer 1
10
-51.306190
20
143.513000
70
0
0
VERTEX
8
Layer 1
10
-51.452000
20
143.865000
70
0
0
VERTEX
8
Layer 1
10
-51.521847
20
143.836060
70
0
0
VERTEX
8
Layer 1
10
-51.546394
20
143.825887
70
0
0
VERTEX
8
Layer 1
10
-51.415001
20
143.676000
70
0
0
SEQEND
8
Layer 1
0
POLYLINE
8
Layer 1
62
10
70
0
10
0.000000
20
0.000000
66
1
0
VERTEX
8
Layer 1
10
-52.921001
20
100.999001
70
0
0
VERTEX
8
Layer 1
10
-52.969002
20
101.114878
70
0
0
VERTEX
8
Layer 1
10
-53.036858
20
101.278692
70
0
0
VERTEX
8
Layer 1
10
-53.057281
20
101.327999
70
0
0
VERTEX
8
Layer 1
10
-53.067287
20
101.352150
70
0
0
VERTEX
8
Layer 1
10
-53.062500
20
101.327999
70
0
0
VERTEX
8
Layer 1
10
-53.028999
20
101.159000
70
0
0
VERTEX
8
Layer 1
10
-53.020027
20
101.022310
70
0
0
VERTEX
8
Layer 1
10
-53.015919
20
100.959717
70
0
0
VERTEX
8
Layer 1
10
-52.969002
20
100.979136
70
0
0
VERTEX
8
Layer 1
10
-52.967545
20
100.979738
70
0
0
VERTEX
8
Layer 1
10
-52.921001
20
100.999001
70
0
0
SEQEND
8
Layer 1
0
POLYLINE
8
Layer 1
62
10
70
0
10
0.000000
20
0.000000
66
1
0
VERTEX
8
Layer 1
10
-56.969002
20
142.415000
70
0
0
VERTEX
8
Layer 1
10
-57.344002
20
142.390064
70
0
0
VERTEX
8
Layer 1
10
-57.360001
20
142.389000
70
0
0
VERTEX
8
Layer 1
10
-57.744999
20
142.313000
70
0
0
VERTEX
8
Layer 1
10
-57.818810
20
142.288000
70
0
0
VERTEX
8
Layer 1
10
-58.117001
20
142.187000
70
0
0
VERTEX
8
Layer 1
10
-58.469002
20
142.013000
70
0
0
VERTEX
8
Layer 1
10
-58.794998
20
141.795000
70
0
0
VERTEX
8
Layer 1
10
-59.090000
20
141.536000
70
0
0
VERTEX
8
Layer 1
10
-59.348999
20
141.241000
70
0
0
VERTEX
8
Layer 1
10
-59.567001
20
140.915000
70
0
0
VERTEX
8
Layer 1
10
-59.740002
20
140.563000
70
0
0
VERTEX
8
Layer 1
10
-59.867001
20
140.192000
70
0
0
VERTEX
8
Layer 1
10
-59.943001
20
139.807000
70
0
0
VERTEX
8
Layer 1
10
-59.969002
20
139.415000
70
0
0
VERTEX
8
Layer 1
10
-59.943001
20
139.023000
70
0
0
VERTEX
8
Layer 1
10
-59.867001
20
138.639000
70
0
0
VERTEX
8
Layer 1
10
-59.740002
20
138.267000
70
0
0
VERTEX
8
Layer 1
10
-59.703140
20
138.192000
70
0
0
VERTEX
8
Layer 1
10
-59.567001
20
137.915000
70
0
0
VERTEX
8
Layer 1
10
-59.348999
20
137.589000
70
0
0
VERTEX
8
Layer 1
10
-59.090000
20
137.294000
70
0
0
VERTEX
8
Layer 1
10
-58.794998
20
137.035000
70
0
0
VERTEX
8
Layer 1
10
-58.469002
20
136.817000
70
0
0
VERTEX
8
Layer 1
10
-58.117001
20
136.643000
70
0
0
VERTEX
8
Layer 1
10
-57.744999
20
136.517000
70
0
0
VERTEX
8
Layer 1
10
-57.360001
20
136.441000
70
0
0
VERTEX
8
Layer 1
10
-57.344002
20
136.439936
70
0
0
VERTEX
8
Layer 1
10
-56.969002
20
136.415000
70
0
0
VERTEX
8
Layer 1
10
-56.577000
20
136.441000
70
0
0
VERTEX
8
Layer 1
10
-56.192001
20
136.517000
70
0
0
VERTEX
8
Layer 1
10
-55.820999
20
136.643000
70
0
0
VERTEX
8
Layer 1
10
-55.469002
20
136.817000
70
0
0
VERTEX
8
Layer 1
10
-55.143002
20
137.035000
70
0
0
VERTEX
8
Layer 1
10
-54.847000
20
137.294000
70
0
0
VERTEX
8
Layer 1
10
-54.589001
20
137.589000
70
0
0
VERTEX
8
Layer 1
10
-54.370998
20
137.915000
70
0
0
VERTEX
8
Layer 1
10
-54.234074
20
138.192000
70
0
0
VERTEX
8
Layer 1
10
-54.196999
20
138.267000
70
0
0
VERTEX
8
Layer 1
10
-54.070999
20
138.639000
70
0
0
VERTEX
8
Layer 1
10
-53.993999
20
139.023000
70
0
0
VERTEX
8
Layer 1
10
-53.969002
20
139.415000
70
0
0
VERTEX
8
Layer 1
10
-53.993999
20
139.807000
70
0
0
VERTEX
8
Layer 1
10
-54.070999
20
140.192000
70
0
0
VERTEX
8
Layer 1
10
-54.196999
20
140.563000
70
0
0
VERTEX
8
Layer 1
10
-54.370998
20
140.915000
70
0
0
VERTEX
8
Layer 1
10
-54.589001
20
141.241000
70
0
0
VERTEX
8
Layer 1
10
-54.847000
20
141.536000
70
0
0
VERTEX
8
Layer 1
10
-55.143002
20
141.795000
70
0
0
VERTEX
8
Layer 1
10
-55.469002
20
142.013000
70
0
0
VERTEX
8
Layer 1
10
-55.820999
20
142.187000
70
0
0
VERTEX
8
Layer 1
10
-56.118389
20
142.288000
70
0
0
VERTEX
8
Layer 1
10
-56.192001
20
142.313000
70
0
0
VERTEX
8
Layer 1
10
-56.577000
20
142.389000
70
0
0
VERTEX
8
Layer 1
10
-56.969002
20
142.415000
70
0
0
SEQEND
8
Layer 1
0
POLYLINE
8
Layer 1
62
10
70
0
10
0.000000
20
0.000000
66
1
0
VERTEX
8
Layer 1
10
-54.415001
20
104.506001
70
0
0
VERTEX
8
Layer 1
10
-54.306190
20
104.343000
70
0
0
VERTEX
8
Layer 1
10
-54.452000
20
104.695000
70
0
0
VERTEX
8
Layer 1
10
-54.521847
20
104.666059
70
0
0
VERTEX
8
Layer 1
10
-54.546394
20
104.655888
70
0
0
VERTEX
8
Layer 1
10
-54.415001
20
104.506001
70
0
0
SEQEND
8
Layer 1
0
POLYLINE
8
Layer 1
62
10
70
0
10
0.000000
20
0.000000
66
1
0
VERTEX
8
Layer 1
10
-57.070999
20
101.021000
70
0
0
VERTEX
8
Layer 1
10
-57.174984
20
101.327999
70
0
0
VERTEX
8
Layer 1
10
-57.196999
20
101.393000
70
0
0
VERTEX
8
Layer 1
10
-57.344002
20
101.690380
70
0
0
VERTEX
8
Layer 1
10
-57.370998
20
101.745001
70
0
0
VERTEX
8
Layer 1
10
-57.589001
20
102.070999
70
0
0
VERTEX
8
Layer 1
10
-57.847000
20
102.365999
70
0
0
VERTEX
8
Layer 1
10
-58.143002
20
102.625000
70
0
0
VERTEX
8
Layer 1
10
-58.469002
20
102.843000
70
0
0
VERTEX
8
Layer 1
10
-58.820999
20
103.016001
70
0
0
VERTEX
8
Layer 1
10
-59.192001
20
103.143000
70
0
0
VERTEX
8
Layer 1
10
-59.577000
20
103.219000
70
0
0
VERTEX
8
Layer 1
10
-59.969002
20
103.245001
70
0
0
VERTEX
8
Layer 1
10
-60.360001
20
103.219000
70
0
0
VERTEX
8
Layer 1
10
-60.744999
20
103.143000
70
0
0
VERTEX
8
Layer 1
10
-61.117001
20
103.016001
70
0
0
VERTEX
8
Layer 1
10
-61.439999
20
102.857252
70
0
0
VERTEX
8
Layer 1
10
-61.469002
20
102.843000
70
0
0
VERTEX
8
Layer 1
10
-61.794998
20
102.625000
70
0
0
VERTEX
8
Layer 1
10
-62.090000
20
102.365999
70
0
0
VERTEX
8
Layer 1
10
-62.348999
20
102.070999
70
0
0
VERTEX
8
Layer 1
10
-62.567001
20
101.745001
70
0
0
VERTEX
8
Layer 1
10
-62.740002
20
101.393000
70
0
0
VERTEX
8
Layer 1
10
-62.762192
20
101.327999
70
0
0
VERTEX
8
Layer 1
10
-62.867001
20
101.021000
70
0
0
VERTEX
8
Layer 1
10
-62.943001
20
100.636000
70
0
0
VERTEX
8
Layer 1
10
-62.969002
20
100.245001
70
0
0
VERTEX
8
Layer 1
10
-62.943001
20
99.853001
70
0
0
VERTEX
8
Layer 1
10
-62.867001
20
99.468000
70
0
0
VERTEX
8
Layer 1
10
-62.740002
20
99.097000
70
0
0
VERTEX
8
Layer 1
10
-62.567001
20
98.745001
70
0
0
VERTEX
8
Layer 1
10
-62.348999
20
98.419001
70
0
0
VERTEX
8
Layer 1
10
-62.090000
20
98.124001
70
0
0
VERTEX
8
Layer 1
10
-61.794998
20
97.865002
70
0
0
VERTEX
8
Layer 1
10
-61.469002
20
97.646999
70
0
0
VERTEX
8
Layer 1
10
-61.439999
20
97.632664
70
0
0
VERTEX
8
Layer 1
10
-61.117001
20
97.473000
70
0
0
VERTEX
8
Layer 1
10
-60.744999
20
97.347000
70
0
0
VERTEX
8
Layer 1
10
-60.360001
20
97.270000
70
0
0
VERTEX
8
Layer 1
10
-59.969002
20
97.244999
70
0
0
VERTEX
8
Layer 1
10
-59.577000
20
97.270000
70
0
0
VERTEX
8
Layer 1
10
-59.192001
20
97.347000
70
0
0
VERTEX
8
Layer 1
10
-58.820999
20
97.473000
70
0
0
VERTEX
8
Layer 1
10
-58.469002
20
97.646999
70
0
0
VERTEX
8
Layer 1
10
-58.143002
20
97.865002
70
0
0
VERTEX
8
Layer 1
10
-57.847000
20
98.124001
70
0
0
VERTEX
8
Layer 1
10
-57.589001
20
98.419001
70
0
0
VERTEX
8
Layer 1
10
-57.370998
20
98.745001
70
0
0
VERTEX
8
Layer 1
10
-57.344002
20
98.799622
70
0
0
VERTEX
8
Layer 1
10
-57.196999
20
99.097000
70
0
0
VERTEX
8
Layer 1
10
-57.070999
20
99.468000
70
0
0
VERTEX
8
Layer 1
10
-56.993999
20
99.853001
70
0
0
VERTEX
8
Layer 1
10
-56.969002
20
100.245001
70
0
0
VERTEX
8
Layer 1
10
-56.993999
20
100.636000
70
0
0
VERTEX
8
Layer 1
10
-57.070999
20
101.021000
70
0
0
VERTEX
8
Layer 1
10
-57.070999
20
101.021000
70
0
0
SEQEND
8
Layer 1
 0 
ENDSEC
 0 
EOF